<svg width="108" height="32" viewBox="0 0 108 32" fill="none" xmlns="http://www.w3.org/2000/svg">
<path d="M15.9515 32C24.7613 32 31.9031 24.8366 31.9031 16C31.9031 7.16344 24.7613 0 15.9515 0C7.14175 0 0 7.16344 0 16C0 24.8366 7.14175 32 15.9515 32Z" fill="#6D1413"/>
<path d="M27.1178 4.80005H4.78564V27.2H27.1178V4.80005Z" fill="#ED4C41"/>
<path d="M15.9696 23.468L22.5715 12H9.36963L15.9696 23.468Z" fill="#FED6D2"/>
<path d="M40.8301 13.6782C41.2768 12.8522 41.8949 12.2122 42.6865 11.7582C43.4781 11.3042 44.3833 11.0762 45.4042 11.0762C46.7182 11.0762 47.8069 11.4062 48.6683 12.0642C49.5297 12.7242 50.1059 13.6482 50.401 14.8382H47.5098C47.3563 14.3782 47.0991 14.0162 46.7342 13.7542C46.3713 13.4922 45.9207 13.3602 45.3843 13.3602C44.6186 13.3602 44.0125 13.6382 43.5658 14.1962C43.1192 14.7522 42.8958 15.5442 42.8958 16.5682C42.8958 17.5802 43.1192 18.3642 43.5658 18.9202C44.0125 19.4762 44.6186 19.7562 45.3843 19.7562C46.469 19.7562 47.1768 19.2702 47.5098 18.2962H50.401C50.1079 19.4482 49.5277 20.3642 48.6583 21.0422C47.791 21.7202 46.7063 22.0602 45.4042 22.0602C44.3833 22.0602 43.4781 21.8342 42.6865 21.3782C41.8949 20.9242 41.2768 20.2842 40.8301 19.4582C40.3835 18.6322 40.1602 17.6702 40.1602 16.5682C40.1602 15.4662 40.3835 14.5042 40.8301 13.6782Z" fill="#3C0A14"/>
<path d="M52.3232 13.6682C52.7499 12.8362 53.3321 12.1962 54.0659 11.7482C54.7996 11.3002 55.6191 11.0762 56.5264 11.0762C57.318 11.0762 58.0099 11.2362 58.6041 11.5562C59.1983 11.8762 59.6728 12.2802 60.0297 12.7662V11.2502H62.7295V21.8862H60.0297V20.3302C59.6848 20.8302 59.2102 21.2422 58.6041 21.5682C57.9979 21.8942 57.3 22.0582 56.5084 22.0582C55.6152 22.0582 54.8016 21.8282 54.0679 21.3662C53.3341 20.9062 52.7539 20.2562 52.3252 19.4182C51.8985 18.5802 51.6831 17.6162 51.6831 16.5282C51.6831 15.4542 51.8965 14.5002 52.3232 13.6682ZM59.6449 14.8882C59.3897 14.4202 59.0447 14.0622 58.6121 13.8122C58.1774 13.5622 57.7128 13.4382 57.2143 13.4382C56.7158 13.4382 56.2572 13.5602 55.8365 13.8022C55.4158 14.0462 55.0728 14.4002 54.8116 14.8682C54.5504 15.3362 54.4188 15.8882 54.4188 16.5282C54.4188 17.1682 54.5504 17.7282 54.8116 18.2082C55.0728 18.6882 55.4178 19.0562 55.8445 19.3122C56.2712 19.5682 56.7278 19.6962 57.2123 19.6962C57.7108 19.6962 58.1754 19.5722 58.6101 19.3222C59.0427 19.0722 59.3877 18.7142 59.6429 18.2462C59.8981 17.7802 60.0258 17.2182 60.0258 16.5662C60.0278 15.9142 59.9001 15.3542 59.6449 14.8882Z" fill="#3C0A14"/>
<path d="M65.3017 13.6682C65.7284 12.8362 66.3106 12.1962 67.0444 11.7482C67.7782 11.3002 68.5977 11.0762 69.5049 11.0762C70.2965 11.0762 70.9884 11.2362 71.5826 11.5562C72.1768 11.8762 72.6513 12.2802 73.0083 12.7662V11.2502H75.7081V21.8862H73.0083V20.3302C72.6633 20.8302 72.1888 21.2422 71.5826 21.5682C70.9764 21.8942 70.2786 22.0582 69.487 22.0582C68.5937 22.0582 67.7801 21.8282 67.0464 21.3662C66.3126 20.9062 65.7324 20.2562 65.3037 19.4182C64.877 18.5802 64.6616 17.6162 64.6616 16.5282C64.6616 15.4542 64.875 14.5002 65.3017 13.6682ZM72.6234 14.8882C72.3682 14.4202 72.0233 14.0622 71.5906 13.8122C71.1559 13.5622 70.6913 13.4382 70.1928 13.4382C69.6943 13.4382 69.2357 13.5602 68.815 13.8022C68.3943 14.0462 68.0513 14.4002 67.7901 14.8682C67.5289 15.3362 67.3973 15.8882 67.3973 16.5282C67.3973 17.1682 67.5289 17.7282 67.7901 18.2082C68.0513 18.6882 68.3963 19.0562 68.823 19.3122C69.2497 19.5682 69.7063 19.6962 70.1908 19.6962C70.6893 19.6962 71.1539 19.5722 71.5886 19.3222C72.0213 19.0722 72.3662 18.7142 72.6214 18.2462C72.8767 17.7802 73.0043 17.2182 73.0043 16.5662C73.0063 15.9142 72.8787 15.3542 72.6234 14.8882Z" fill="#3C0A14"/>
<path d="M82.3579 11.5762C82.9122 11.2562 83.5483 11.0962 84.2621 11.0962V13.9182H83.5543C82.7128 13.9182 82.0767 14.1162 81.65 14.5142C81.2213 14.9102 81.008 15.6022 81.008 16.5882V21.8882H78.3281V11.2522H81.008V12.9042C81.3529 12.3362 81.8016 11.8962 82.3579 11.5762Z" fill="#3C0A14"/>
<path d="M96.2059 11.248L89.6398 26.916H86.7885L89.0855 21.616L84.8364 11.248H87.8413L90.579 18.678L93.3546 11.248H96.2059Z" fill="#3C0A14"/>
<path d="M97.5932 13.6682C98.0199 12.8362 98.6021 12.1962 99.3359 11.7482C100.07 11.3002 100.889 11.0762 101.796 11.0762C102.588 11.0762 103.28 11.2362 103.874 11.5562C104.468 11.8762 104.943 12.2802 105.3 12.7662V11.2502H108V21.8862H105.3V20.3302C104.955 20.8302 104.48 21.2422 103.874 21.5682C103.268 21.8942 102.57 22.0582 101.778 22.0582C100.885 22.0582 100.072 21.8282 99.3379 21.3662C98.6041 20.9062 98.0239 20.2562 97.5952 19.4182C97.1685 18.5802 96.9531 17.6162 96.9531 16.5282C96.9511 15.4542 97.1665 14.5002 97.5932 13.6682ZM104.915 14.8882C104.66 14.4202 104.315 14.0622 103.882 13.8122C103.447 13.5622 102.983 13.4382 102.484 13.4382C101.986 13.4382 101.527 13.5602 101.107 13.8022C100.686 14.0462 100.343 14.4002 100.082 14.8682C99.8204 15.3362 99.6888 15.8882 99.6888 16.5282C99.6888 17.1682 99.8204 17.7282 100.082 18.2082C100.343 18.6882 100.688 19.0562 101.114 19.3122C101.541 19.5682 101.998 19.6962 102.482 19.6962C102.981 19.6962 103.445 19.5722 103.88 19.3222C104.313 19.0722 104.658 18.7142 104.913 18.2462C105.168 17.7802 105.296 17.2182 105.296 16.5662C105.298 15.9142 105.17 15.3542 104.915 14.8882Z" fill="#3C0A14"/>
</svg>
