<svg width="180" height="32" viewBox="0 0 180 32" fill="none" xmlns="http://www.w3.org/2000/svg">
<path d="M74.1078 23.1307V23.4017H69.135L65.0524 16.7248H62.3994V23.4017H58.1577V4.48233H66.8103C70.8382 4.48233 73.2748 7.29375 73.2748 10.5079C73.2748 13.2422 71.8427 15.293 69.5453 16.2128L74.1078 23.1307ZM62.3994 12.939H66.5915C68.2946 12.939 68.9162 11.7234 68.9162 10.5327C68.9162 9.39922 68.2399 8.26321 66.5915 8.26321H62.3994V12.939Z" fill="#393951"/>
<path d="M75.5947 16.3469C75.5947 12.1037 78.1084 9.0238 82.651 9.0238C87.1936 9.0238 89.7049 12.1037 89.7049 16.3469C89.7049 20.5902 87.2458 23.6452 82.651 23.6452C78.0562 23.6452 75.5947 20.5902 75.5947 16.3469ZM85.4606 16.3469C85.4606 13.7791 84.3791 12.6705 82.651 12.6705C80.923 12.6705 79.8389 13.809 79.8389 16.3469C79.8389 18.8849 80.9479 19.9961 82.651 19.9961C84.3542 19.9961 85.4581 18.9148 85.4581 16.3469H85.4606Z" fill="#393951"/>
<path d="M91.5995 16.3469C91.5995 12.1037 94.1132 9.0238 98.6533 9.0238C103.193 9.0238 105.71 12.1037 105.71 16.3469C105.71 20.5902 103.251 23.6452 98.6533 23.6452C94.056 23.6452 91.5995 20.5902 91.5995 16.3469ZM101.465 16.3469C101.465 13.7791 100.384 12.6705 98.6533 12.6705C96.9228 12.6705 95.8437 13.8065 95.8437 16.3469C95.8437 18.8874 96.9526 19.9961 98.6533 19.9961C100.354 19.9961 101.465 18.9148 101.465 16.3469Z" fill="#393951"/>
<path d="M109.765 19.1311V12.8147H107.468V9.265H109.954V6.31935L113.656 5.57361H113.927V9.27495H117.309V12.8147H113.93V18.1393C113.93 19.4617 114.497 20.031 115.74 20.031C116.202 20.0295 116.66 19.9453 117.092 19.7824H117.363V23.2426C116.434 23.5252 115.467 23.6619 114.497 23.6478C111.227 23.6453 109.765 21.6989 109.765 19.1311Z" fill="#393951"/>
<path d="M120.434 3.32462H124.613V23.4023H120.434V3.32462Z" fill="#393951"/>
<path d="M127.257 16.3469C127.257 12.1037 129.77 9.0238 134.313 9.0238C138.856 9.0238 141.369 12.1037 141.369 16.3469C141.369 20.5902 138.908 23.6452 134.313 23.6452C129.718 23.6452 127.257 20.5902 127.257 16.3469ZM137.125 16.3469C137.125 13.7791 136.043 12.6705 134.313 12.6705C132.582 12.6705 131.501 13.8065 131.501 16.3469C131.501 18.8874 132.61 19.9961 134.313 19.9961C136.016 19.9961 137.125 18.9148 137.125 16.3469Z" fill="#393951"/>
<path d="M143.667 25.5195H147.749C147.856 26.4641 148.803 27.1676 150.101 27.1676C151.939 27.1676 152.859 26.1956 152.859 24.9304V22.0493H152.749C152.073 22.8622 150.994 23.6452 148.992 23.6452C145.425 23.6452 143.274 20.5628 143.274 16.3469C143.274 12.131 145.437 9.0238 148.992 9.0238C150.994 9.0238 152.073 9.80682 152.749 10.6172H152.859L153.291 9.26492H157.021V24.9776C157.021 28.5174 154.037 30.7347 150.101 30.7347C146.29 30.7347 143.749 28.7088 143.667 25.5195ZM153.048 16.3469C153.048 14.3732 152.317 12.6705 150.263 12.6705C148.209 12.6705 147.478 14.3732 147.478 16.3469C147.478 18.3207 148.155 19.9961 150.263 19.9961C152.371 19.9961 153.048 18.3207 153.048 16.3469Z" fill="#393951"/>
<path d="M159.589 5.40273C159.589 3.91126 160.455 2.99649 162.103 2.99649C163.699 2.99649 164.619 3.91623 164.619 5.40273C164.619 6.88923 163.699 7.83383 162.103 7.83383C160.455 7.84378 159.589 6.91658 159.589 5.40273ZM159.995 9.26564H164.159V23.4023H159.995V9.26564Z" fill="#393951"/>
<path d="M166.457 16.3196C166.457 12.049 168.943 9.0238 173.458 9.0238C177.65 9.0238 179.811 11.5643 180 14.8331H175.81C175.676 13.5902 174.816 12.6705 173.458 12.6705C171.7 12.6705 170.701 13.7791 170.701 16.3196C170.701 18.8601 171.696 19.9961 173.458 19.9961C174.811 19.9961 175.676 19.0763 175.81 17.8334H180C179.811 21.1047 177.675 23.6452 173.568 23.6452C169.052 23.6452 166.457 20.6175 166.457 16.3196Z" fill="#393951"/>
<path d="M30.3046 9.05426L30.3028 9.0525C29.024 7.774 26.9507 7.774 25.6719 9.0525L16.4048 18.3174C15.126 19.5959 15.126 21.6688 16.4048 22.9473L16.4066 22.949C17.6853 24.2275 19.7587 24.2275 21.0375 22.949L30.3046 13.6841C31.5834 12.4056 31.5834 10.3327 30.3046 9.05426Z" fill="url(#paint0_linear_1081_1244)"/>
<path d="M16.2151 8.4418L16.2133 8.44004C14.9346 7.16154 12.8612 7.16155 11.5824 8.44004L2.31531 17.705C1.03652 18.9835 1.03652 21.0563 2.31531 22.3348L2.31707 22.3366C3.59587 23.6151 5.66919 23.6151 6.94799 22.3366L16.2151 13.0716C17.4939 11.7931 17.4939 9.72029 16.2151 8.4418Z" fill="url(#paint1_linear_1081_1244)"/>
<path d="M44.3892 9.66521L44.3875 9.66345C43.1087 8.38496 41.0354 8.38496 39.7566 9.66345L30.4894 18.9284C29.2107 20.2069 29.2107 22.2797 30.4894 23.5582L30.4912 23.56C31.77 24.8385 33.8433 24.8385 35.1221 23.56L44.3892 14.295C45.668 13.0165 45.668 10.9437 44.3892 9.66521Z" fill="url(#paint2_linear_1081_1244)"/>
<path d="M37.0406 2.31722L37.0389 2.31546C35.7601 1.03667 33.6867 1.03666 32.4079 2.31546L32.4062 2.31722C31.1274 3.59601 31.1274 5.66935 32.4062 6.94814L32.4079 6.9499C33.6867 8.22869 35.7601 8.22869 37.0389 6.94989L37.0406 6.94813C38.3194 5.66934 38.3194 3.59601 37.0406 2.31722Z" fill="url(#paint3_linear_1081_1244)"/>
<path d="M14.3013 25.0538L14.2996 25.052C13.0206 23.7734 10.947 23.7734 9.6681 25.052L9.66634 25.0538C8.38739 26.3324 8.38739 28.4055 9.66634 29.6841L9.6681 29.6859C10.947 30.9645 13.0206 30.9645 14.2996 29.6859L14.3013 29.6841C15.5803 28.4055 15.5803 26.3324 14.3013 25.0538Z" fill="url(#paint4_linear_1081_1244)"/>
<defs>
<linearGradient id="paint0_linear_1081_1244" x1="2159.89" y1="9537.09" x2="2075.73" y2="11720.5" gradientUnits="userSpaceOnUse">
<stop stop-color="#FF1C30"/>
<stop offset="1" stop-color="#E5173D"/>
</linearGradient>
<linearGradient id="paint1_linear_1081_1244" x1="2145.81" y1="9536.48" x2="2061.64" y2="11719.9" gradientUnits="userSpaceOnUse">
<stop stop-color="#FF1C30"/>
<stop offset="1" stop-color="#E5173D"/>
</linearGradient>
<linearGradient id="paint2_linear_1081_1244" x1="2173.98" y1="9537.7" x2="2089.81" y2="11721.1" gradientUnits="userSpaceOnUse">
<stop stop-color="#FF1C30"/>
<stop offset="1" stop-color="#E5173D"/>
</linearGradient>
<linearGradient id="paint3_linear_1081_1244" x1="4633.53" y1="7065.7" x2="4190.36" y2="7904.44" gradientUnits="userSpaceOnUse">
<stop stop-color="#FF1C30"/>
<stop offset="1" stop-color="#E5173D"/>
</linearGradient>
<linearGradient id="paint4_linear_1081_1244" x1="4611.33" y1="7087.6" x2="4168.28" y2="7926.33" gradientUnits="userSpaceOnUse">
<stop stop-color="#FF1C30"/>
<stop offset="1" stop-color="#E5173D"/>
</linearGradient>
</defs>
</svg>
