<svg width="180" height="32" viewBox="0 0 180 32" fill="none" xmlns="http://www.w3.org/2000/svg">
<path d="M74.1079 23.1308V23.4018H69.1351L65.0525 16.7249H62.3996V23.4018H58.1578V4.48242H66.8104C70.8383 4.48242 73.275 7.29384 73.275 10.508C73.275 13.2423 71.8428 15.2931 69.5454 16.2129L74.1079 23.1308ZM62.3996 12.9391H66.5916C68.2947 12.9391 68.9163 11.7235 68.9163 10.5328C68.9163 9.39931 68.24 8.2633 66.5916 8.2633H62.3996V12.9391Z" fill="white"/>
<path d="M75.5948 16.3471C75.5948 12.1038 78.1085 9.02393 82.6512 9.02393C87.1938 9.02393 89.705 12.1038 89.705 16.3471C89.705 20.5903 87.246 23.6453 82.6512 23.6453C78.0563 23.6453 75.5948 20.5903 75.5948 16.3471ZM85.4608 16.3471C85.4608 13.7792 84.3792 12.6706 82.6512 12.6706C80.9231 12.6706 79.8391 13.8091 79.8391 16.3471C79.8391 18.8851 80.948 19.9962 82.6512 19.9962C84.3543 19.9962 85.4583 18.9149 85.4583 16.3471H85.4608Z" fill="white"/>
<path d="M91.5996 16.3471C91.5996 12.1038 94.1133 9.02393 98.6534 9.02393C103.194 9.02393 105.71 12.1038 105.71 16.3471C105.71 20.5903 103.251 23.6453 98.6534 23.6453C94.0561 23.6453 91.5996 20.5903 91.5996 16.3471ZM101.466 16.3471C101.466 13.7792 100.384 12.6706 98.6534 12.6706C96.9229 12.6706 95.8439 13.8066 95.8439 16.3471C95.8439 18.8875 96.9528 19.9962 98.6534 19.9962C100.354 19.9962 101.466 18.9149 101.466 16.3471Z" fill="white"/>
<path d="M109.765 19.1312V12.8148H107.468V9.26512H109.954V6.31947L113.656 5.57373H113.927V9.27507H117.309V12.8148H113.93V18.1394C113.93 19.4618 114.497 20.0311 115.74 20.0311C116.202 20.0296 116.66 19.9454 117.092 19.7825H117.363V23.2427C116.435 23.5254 115.467 23.6621 114.497 23.6479C111.227 23.6454 109.765 21.699 109.765 19.1312Z" fill="white"/>
<path d="M120.434 3.32471H124.614V23.4024H120.434V3.32471Z" fill="white"/>
<path d="M127.257 16.3471C127.257 12.1038 129.77 9.02393 134.313 9.02393C138.856 9.02393 141.369 12.1038 141.369 16.3471C141.369 20.5903 138.908 23.6453 134.313 23.6453C129.718 23.6453 127.257 20.5903 127.257 16.3471ZM137.125 16.3471C137.125 13.7792 136.044 12.6706 134.313 12.6706C132.583 12.6706 131.501 13.8066 131.501 16.3471C131.501 18.8875 132.61 19.9962 134.313 19.9962C136.016 19.9962 137.125 18.9149 137.125 16.3471Z" fill="white"/>
<path d="M143.667 25.5196H147.749C147.856 26.4642 148.804 27.1677 150.102 27.1677C151.939 27.1677 152.859 26.1958 152.859 24.9305V22.0495H152.749C152.073 22.8623 150.994 23.6453 148.993 23.6453C145.425 23.6453 143.274 20.563 143.274 16.3471C143.274 12.1312 145.437 9.02393 148.993 9.02393C150.994 9.02393 152.073 9.80694 152.749 10.6173H152.859L153.292 9.26504H157.021V24.9777C157.021 28.5175 154.037 30.7348 150.102 30.7348C146.29 30.7348 143.749 28.7089 143.667 25.5196ZM153.048 16.3471C153.048 14.3733 152.317 12.6706 150.263 12.6706C148.209 12.6706 147.478 14.3733 147.478 16.3471C147.478 18.3208 148.155 19.9962 150.263 19.9962C152.372 19.9962 153.048 18.3208 153.048 16.3471Z" fill="white"/>
<path d="M159.59 5.40282C159.59 3.91135 160.455 2.99658 162.103 2.99658C163.7 2.99658 164.619 3.91632 164.619 5.40282C164.619 6.88933 163.7 7.83392 162.103 7.83392C160.455 7.84387 159.59 6.91667 159.59 5.40282ZM159.995 9.26573H164.159V23.4024H159.995V9.26573Z" fill="white"/>
<path d="M166.457 16.3197C166.457 12.0491 168.943 9.02393 173.458 9.02393C177.65 9.02393 179.811 11.5644 180 14.8332H175.811C175.676 13.5903 174.816 12.6706 173.458 12.6706C171.701 12.6706 170.701 13.7792 170.701 16.3197C170.701 18.8602 171.696 19.9962 173.458 19.9962C174.811 19.9962 175.676 19.0765 175.811 17.8336H180C179.811 21.1049 177.675 23.6453 173.568 23.6453C169.053 23.6453 166.457 20.6176 166.457 16.3197Z" fill="white"/>
<path d="M30.3047 9.05447L30.3029 9.05271C29.0242 7.77422 26.9508 7.77422 25.672 9.05271L16.4049 18.3176C15.1261 19.5961 15.1261 21.669 16.4049 22.9475L16.4067 22.9492C17.6855 24.2277 19.7588 24.2277 21.0376 22.9492L30.3047 13.6843C31.5835 12.4058 31.5835 10.333 30.3047 9.05447Z" fill="url(#paint0_linear_15_221)"/>
<path d="M16.2152 8.44167L16.2135 8.43991C14.9347 7.16142 12.8613 7.16142 11.5825 8.43992L2.31543 17.7049C1.03664 18.9833 1.03664 21.0562 2.31543 22.3347L2.31719 22.3364C3.59599 23.6149 5.66932 23.6149 6.94811 22.3364L16.2152 13.0715C17.494 11.793 17.494 9.72017 16.2152 8.44167Z" fill="url(#paint1_linear_15_221)"/>
<path d="M44.3894 9.6653L44.3876 9.66355C43.1088 8.38505 41.0355 8.38505 39.7567 9.66354L30.4896 18.9285C29.2108 20.207 29.2108 22.2798 30.4896 23.5583L30.4913 23.5601C31.7701 24.8386 33.8435 24.8386 35.1222 23.5601L44.3894 14.2951C45.6682 13.0166 45.6682 10.9438 44.3894 9.6653Z" fill="url(#paint2_linear_15_221)"/>
<path d="M37.0407 2.31722L37.039 2.31546C35.7602 1.03667 33.6868 1.03666 32.4081 2.31546L32.4063 2.31722C31.1275 3.59601 31.1275 5.66935 32.4063 6.94814L32.4081 6.9499C33.6868 8.22869 35.7602 8.22869 37.039 6.94989L37.0407 6.94813C38.3195 5.66934 38.3195 3.59601 37.0407 2.31722Z" fill="url(#paint3_linear_15_221)"/>
<path d="M14.3014 25.0538L14.2997 25.052C13.0207 23.7734 10.9472 23.7734 9.66822 25.052L9.66646 25.0538C8.38751 26.3324 8.38752 28.4055 9.66646 29.6841L9.66822 29.6859C10.9472 30.9645 13.0207 30.9645 14.2997 29.6859L14.3014 29.6841C15.5804 28.4055 15.5804 26.3324 14.3014 25.0538Z" fill="url(#paint4_linear_15_221)"/>
<defs>
<linearGradient id="paint0_linear_15_221" x1="2159.9" y1="9537.09" x2="2075.73" y2="11720.5" gradientUnits="userSpaceOnUse">
<stop stop-color="#FF1C30"/>
<stop offset="1" stop-color="#E5173D"/>
</linearGradient>
<linearGradient id="paint1_linear_15_221" x1="2145.81" y1="9536.48" x2="2061.64" y2="11719.9" gradientUnits="userSpaceOnUse">
<stop stop-color="#FF1C30"/>
<stop offset="1" stop-color="#E5173D"/>
</linearGradient>
<linearGradient id="paint2_linear_15_221" x1="2173.98" y1="9537.7" x2="2089.81" y2="11721.1" gradientUnits="userSpaceOnUse">
<stop stop-color="#FF1C30"/>
<stop offset="1" stop-color="#E5173D"/>
</linearGradient>
<linearGradient id="paint3_linear_15_221" x1="4633.53" y1="7065.7" x2="4190.36" y2="7904.44" gradientUnits="userSpaceOnUse">
<stop stop-color="#FF1C30"/>
<stop offset="1" stop-color="#E5173D"/>
</linearGradient>
<linearGradient id="paint4_linear_15_221" x1="4611.33" y1="7087.6" x2="4168.28" y2="7926.33" gradientUnits="userSpaceOnUse">
<stop stop-color="#FF1C30"/>
<stop offset="1" stop-color="#E5173D"/>
</linearGradient>
</defs>
</svg>
