<svg width="47" height="32" viewBox="0 0 47 32" fill="none" xmlns="http://www.w3.org/2000/svg">
<path d="M30.3047 9.05447L30.3029 9.05271C29.0242 7.77422 26.9508 7.77422 25.672 9.05271L16.4049 18.3176C15.1261 19.5961 15.1261 21.669 16.4049 22.9475L16.4067 22.9492C17.6855 24.2277 19.7588 24.2277 21.0376 22.9492L30.3047 13.6843C31.5835 12.4058 31.5835 10.333 30.3047 9.05447Z" fill="url(#paint0_linear_31_99)"/>
<path d="M16.2152 8.44167L16.2135 8.43991C14.9347 7.16142 12.8613 7.16142 11.5825 8.43992L2.31543 17.7049C1.03664 18.9833 1.03664 21.0562 2.31543 22.3347L2.31719 22.3364C3.59599 23.6149 5.66932 23.6149 6.94811 22.3364L16.2152 13.0715C17.494 11.793 17.494 9.72017 16.2152 8.44167Z" fill="url(#paint1_linear_31_99)"/>
<path d="M44.3894 9.6653L44.3876 9.66355C43.1088 8.38505 41.0355 8.38505 39.7567 9.66354L30.4896 18.9285C29.2108 20.207 29.2108 22.2798 30.4896 23.5583L30.4913 23.5601C31.7701 24.8386 33.8435 24.8386 35.1222 23.5601L44.3894 14.2951C45.6682 13.0166 45.6682 10.9438 44.3894 9.6653Z" fill="url(#paint2_linear_31_99)"/>
<path d="M37.0407 2.31722L37.039 2.31546C35.7602 1.03667 33.6868 1.03666 32.4081 2.31546L32.4063 2.31722C31.1275 3.59601 31.1275 5.66935 32.4063 6.94814L32.4081 6.9499C33.6868 8.22869 35.7602 8.22869 37.039 6.94989L37.0407 6.94813C38.3195 5.66934 38.3195 3.59601 37.0407 2.31722Z" fill="url(#paint3_linear_31_99)"/>
<path d="M14.3014 25.0538L14.2997 25.052C13.0207 23.7734 10.9472 23.7734 9.66822 25.052L9.66646 25.0538C8.38751 26.3324 8.38752 28.4055 9.66646 29.6841L9.66822 29.6859C10.9472 30.9645 13.0207 30.9645 14.2997 29.6859L14.3014 29.6841C15.5804 28.4055 15.5804 26.3324 14.3014 25.0538Z" fill="url(#paint4_linear_31_99)"/>
<defs>
<linearGradient id="paint0_linear_31_99" x1="2159.9" y1="9537.09" x2="2075.73" y2="11720.5" gradientUnits="userSpaceOnUse">
<stop stop-color="#FF1C30"/>
<stop offset="1" stop-color="#E5173D"/>
</linearGradient>
<linearGradient id="paint1_linear_31_99" x1="2145.81" y1="9536.48" x2="2061.64" y2="11719.9" gradientUnits="userSpaceOnUse">
<stop stop-color="#FF1C30"/>
<stop offset="1" stop-color="#E5173D"/>
</linearGradient>
<linearGradient id="paint2_linear_31_99" x1="2173.98" y1="9537.7" x2="2089.81" y2="11721.1" gradientUnits="userSpaceOnUse">
<stop stop-color="#FF1C30"/>
<stop offset="1" stop-color="#E5173D"/>
</linearGradient>
<linearGradient id="paint3_linear_31_99" x1="4633.53" y1="7065.7" x2="4190.36" y2="7904.44" gradientUnits="userSpaceOnUse">
<stop stop-color="#FF1C30"/>
<stop offset="1" stop-color="#E5173D"/>
</linearGradient>
<linearGradient id="paint4_linear_31_99" x1="4611.33" y1="7087.6" x2="4168.28" y2="7926.33" gradientUnits="userSpaceOnUse">
<stop stop-color="#FF1C30"/>
<stop offset="1" stop-color="#E5173D"/>
</linearGradient>
</defs>
</svg>
