<svg width="1440" height="313" viewBox="0 0 1440 313" fill="none" xmlns="http://www.w3.org/2000/svg">
<g opacity="0.16">
<path fill-rule="evenodd" clip-rule="evenodd" d="M467.837 30.4197C467.729 5.93698 424.655 -21.5945 406.255 -35.7886C369.874 -63.8626 332.036 -89.7876 294.549 -116.127C257.061 -142.466 219.473 -168.733 183.726 -197.65C160.516 -216.421 133.244 -237.562 117.502 -264.365C83.9689 -321.484 189.697 -313.002 217.084 -314.251C286.756 -317.443 366.669 -315.986 431.975 -345.731C470.96 -363.488 486.506 -393.269 478.133 -436.672C475.434 -450.788 467.445 -467.031 474.213 -480.782C481.439 -495.469 498.064 -503.944 511.862 -509.627C562.189 -530.333 620.053 -532.732 673.302 -535.331C730.72 -538.187 788.679 -537.352 845.693 -537.573C869.868 -537.666 895.116 -546.855 918.137 -554.323C948.317 -564.112 978.14 -575.107 1008.07 -585.739C1073.92 -609.072 1141.77 -633.647 1211.43 -639.574C1255.06 -643.286 1302.74 -638.267 1336.63 -605.973C1353.65 -589.758 1362.55 -565.654 1372.39 -544.242C1384.3 -518.374 1395.74 -492.256 1408.41 -466.795C1449.26 -384.794 1507.56 -304.663 1602.21 -300.636C1616.52 -300.029 1630.59 -302.007 1644.84 -302.378C1653.91 -302.606 1661.99 -300.286 1665.36 -290.24C1673.84 -265.043 1647.18 -225.267 1636.25 -205.275C1612.32 -161.515 1585.33 -119.718 1560.05 -76.8358C1543.32 -48.4761 1514.37 -9.72082 1514.07 24.7363C1513.8 55.4378 1552.39 77.6286 1573.4 92.7509C1593.09 106.909 1628.76 126.722 1630.92 155.525C1631.97 169.49 1623.27 181.064 1614.18 190.046C1598.25 205.754 1579.89 216.835 1565.56 234.756C1542.06 264.158 1522.43 304.613 1525.62 344.232C1527.83 371.685 1542.64 389.663 1561.47 406.849C1569.38 414.075 1575.81 419.187 1576.22 430.918C1576.9 449.546 1570 469.259 1564.32 486.53C1544 548.34 1515.13 608.108 1483.03 663.914C1466.98 691.802 1449.65 719.605 1428.37 743.395C1414.44 759.017 1395.65 777.609 1374.4 777.588C1349.79 777.588 1323.75 768.192 1299.83 761.166C1255.16 748.036 1211.03 732.856 1167.07 717.284C1065.41 681.256 964.708 642.311 864.963 600.447C794.704 570.909 722.954 541.329 656.9 502.059C644.017 494.348 631.858 485.356 620.586 475.206C608.542 464.546 593.597 459.777 578.443 456.221C484.387 434.152 381.344 451.095 286.897 461.719C262.924 464.411 238.952 467.117 214.911 469.002C194.245 470.622 169.503 475.271 149.417 468.288C109.838 454.543 144.437 403.886 159.065 383.244C210.566 310.568 277.013 249.079 338.601 186.305C367.884 156.41 397.389 126.594 425.08 95.0071C439.498 78.5853 467.931 51.8822 467.837 30.4197Z" stroke="white"/>
<path fill-rule="evenodd" clip-rule="evenodd" d="M485.584 26.2922C469.799 0.385827 442.103 -18.7621 419.113 -36.7823C386.029 -62.7244 351.905 -87.2248 318.295 -112.432C286.514 -136.268 254.666 -160.376 225.235 -187.446C207.288 -203.953 184.771 -223.693 176.271 -248.108C157.831 -301.027 257.029 -292.998 281.518 -294.383C342.399 -297.808 411.423 -298.594 467.746 -326.455C502.916 -343.855 517.365 -372.708 509.864 -412.767C507.271 -426.627 502.599 -438.459 508.514 -452.247C515.353 -468.205 531.085 -478.154 545.507 -485.176C590.683 -507.179 644.083 -511.853 693.054 -515.743C743.645 -519.761 796.357 -522.594 845.321 -519.654C864.901 -518.484 887.439 -525.128 906.816 -530.223C936.632 -538.074 966.145 -547.13 995.812 -555.552C1056.11 -572.68 1117.97 -589.18 1180.69 -591.057C1225.97 -592.413 1273.19 -585.062 1310.87 -556.651C1349.05 -527.84 1365.99 -483.178 1387.16 -440.722C1423.73 -367.32 1473.12 -278.075 1557.72 -262.567C1570.55 -260.212 1582.88 -261.49 1595.69 -260.911C1602.28 -260.619 1609.78 -259.691 1613.12 -252.818C1621.8 -234.977 1598.03 -202.355 1590.03 -188.688C1567.92 -150.92 1543.07 -115.001 1519.9 -77.9613C1501.5 -48.5508 1478.18 -15.8717 1471.07 18.9913C1462.43 61.2979 1518.85 91.4006 1538.7 121.189C1573.1 172.845 1507.92 202.277 1475.79 226.906C1438.89 255.182 1408.44 306.766 1441.51 350.514C1454.17 367.243 1469.74 377.213 1475.39 399.044C1484.22 433.186 1477.54 472.203 1470.37 505.952C1459.57 556.687 1442.47 606.873 1419.23 652.726C1402.58 685.555 1374.96 737.033 1334.51 733.172C1307.28 730.595 1279.6 721.182 1253.08 712.861C1213.38 700.407 1174.18 686.212 1135.19 671.467C1045.18 637.525 956.165 600.1 868.898 558.935C809.354 530.838 643.26 416.015 630.762 411.919C593.499 399.715 551.131 401.863 512.713 403.754C461.609 406.266 410.761 412.775 359.953 418.806C335.769 421.66 311.462 425.15 287.149 426.556C269.844 427.555 247.117 428.412 231.959 417.771C202.373 397.01 235.335 349.508 248.967 329.411C290.727 267.799 343.553 214.445 393.085 159.892C417.391 133.108 442.069 106.366 464.134 77.434C473.033 65.7512 495.341 42.2927 485.584 26.2922Z" stroke="white"/>
<path fill-rule="evenodd" clip-rule="evenodd" d="M507.423 13.0062C464.313 -38.8353 404.811 -77.3916 353.458 -120.688C327.683 -142.426 301.746 -164.755 279.516 -190.648C267.952 -204.111 253.512 -221.137 251.284 -239.905C245.33 -290.112 334.737 -283.323 361.498 -285.229C413.236 -288.927 471.684 -291.732 518.623 -317.353C547.3 -333.015 561.423 -358.722 556.063 -392.51C553.687 -407.501 549.987 -420.237 556.063 -434.957C562.22 -449.869 575.046 -460.392 588.035 -468.28C625.36 -490.967 671.745 -498.22 713.769 -503.624C763.067 -509.919 812.736 -512.376 862.375 -510.977C905.85 -509.771 949.116 -523.341 991.565 -532.286C1047.8 -544.129 1105.05 -554.473 1162.6 -552.91C1208.04 -551.668 1253.85 -541.909 1292.7 -515.974C1332.18 -489.561 1355.91 -450.027 1377.31 -407.365C1409.66 -342.874 1449.98 -256.453 1520.95 -231.96C1531.27 -228.39 1540.89 -227.998 1551.54 -227.376C1556.71 -227.077 1563.39 -226.984 1565.95 -221.28C1572.12 -207.545 1549.31 -180.918 1542.94 -171.637C1522.62 -142.011 1500.6 -113.721 1479.77 -84.4875C1460.33 -57.1961 1439.15 -28.7554 1427.07 3.22615C1407.85 54.161 1469.3 83.9438 1467.58 132.48C1466.51 162.613 1439.23 184.222 1417.62 199.17C1391.02 217.552 1352.73 229.638 1339.41 263.183C1329.5 288.169 1345.06 302.71 1357.04 321.671C1377.35 353.795 1378.73 397.342 1376.62 434.527C1373.77 484.777 1362.64 535.769 1343.69 581.956C1335.1 602.894 1324.58 624.675 1309.1 640.937C1294.59 656.178 1280.86 660.083 1261.47 656.963C1202.12 647.397 1142.19 620.734 1085.27 596.919C1013.76 566.994 943.236 533.956 874.816 496.784C828.161 471.434 780.454 444.614 739.503 409.592C728.83 400.461 717.9 390.538 710.096 378.495C704.196 369.443 701.692 361.969 691.748 356.801C662.274 341.488 621.276 345.493 589.696 347.085C539.199 349.619 488.946 356.365 438.761 362.44C409.476 366.01 354.308 377.239 330.923 350.304C310.738 327.046 335.095 287.391 347.537 266.903C379.009 215.09 419.494 169.616 457.056 122.793C474.27 101.334 492.16 79.7106 506.377 55.8529C510.009 49.7707 515.828 41.7111 516.827 34.3225C517.948 25.8559 512.716 19.3953 507.423 13.0062Z" stroke="white"/>
<path fill-rule="evenodd" clip-rule="evenodd" d="M511.13 25.0745C471.294 -20.7629 423.302 -58.4202 380.536 -101.314C361.36 -120.546 341.996 -140.722 327.385 -164.184C319.526 -176.8 311.181 -192.682 313.348 -208.363C319.567 -253.372 393.101 -249.307 422.809 -251.943C466.952 -255.815 517.665 -259.716 556.698 -283.985C582.267 -299.881 591.854 -323.357 587.081 -353.634C581.956 -386.112 593.414 -409.688 619.49 -427.806C652.182 -450.503 693.449 -459.755 731.408 -466.327C777.141 -474.208 823.453 -477.702 869.78 -476.765C914.835 -475.851 958.485 -483.838 1003.24 -489.032C1062.59 -495.912 1123.83 -499.305 1182.5 -485.202C1233.59 -472.922 1279.73 -445.859 1314.32 -404.008C1350.45 -360.328 1368.33 -305.296 1397.67 -256.973C1415.97 -226.831 1441.48 -186.959 1475.68 -175.243C1487.08 -171.335 1507.86 -176.607 1498.75 -157.382C1493.55 -146.387 1483.8 -136.742 1476.11 -127.755C1463.67 -113.231 1450.82 -99.1066 1438.18 -84.7824C1411.22 -54.248 1382.36 -23.0634 1362.16 13.0935C1336.7 58.6166 1374.54 93.6519 1369.93 139.811C1367.45 164.651 1351.12 184.477 1333.85 200.051C1322.68 210.139 1310.45 218.876 1297.97 227.028C1284.93 235.544 1269.5 242.031 1258.13 253.04C1241.93 268.707 1248.96 287.254 1252 307.507C1257.35 343.102 1258.52 379.258 1255.5 415.157C1251.8 459.158 1243.12 504.417 1224.85 544.403C1217.74 559.97 1208.73 576.474 1195.35 586.911C1181.98 597.349 1168.14 596.635 1152.82 593.491C1107.36 584.204 1061.99 562.592 1018.87 542.11C964.893 516.469 911.979 487.814 861.448 455.214C826.568 432.71 791.573 408.398 762.392 377.885C753.905 369.005 745.83 359.496 739.301 348.88C734.818 341.6 732.414 332.205 725.919 326.733C705.596 309.651 664.794 314.752 640.96 315.745C593.394 317.724 546.577 327.133 499.071 329.419C473.144 330.669 432.538 333.813 413.498 310.458C395.592 288.504 411.81 253.926 422.512 232.772C443.544 191.178 471.8 154.121 497.126 115.456C507.538 99.546 518.948 82.8999 525.693 64.7321C531.689 48.5433 521.338 36.8267 511.13 25.0745Z" stroke="white"/>
<path fill-rule="evenodd" clip-rule="evenodd" d="M520.927 25.8242C489.219 -14.5114 450.994 -50.3169 419.057 -91.3088C400.363 -115.315 368.169 -155.672 382.626 -189.515C398.487 -226.705 453.774 -227.718 485.732 -230.714C523.768 -234.281 568.435 -239.154 600.987 -262.375C611.282 -269.716 620.052 -279.432 623.769 -292.231C627.75 -305.928 623.398 -317.913 622.832 -331.624C621.644 -360.389 637.876 -383.482 659.357 -399.34C689.715 -421.763 727.677 -432.364 763.534 -439.755C804.158 -448.091 845.457 -452.2 886.838 -452.025C926.385 -451.882 965.514 -452.81 1005.1 -453.88C1056.87 -455.307 1109.37 -453.002 1159.59 -438.456C1209.07 -424.117 1254.04 -397.243 1289.37 -357.714C1323.84 -319.14 1347.1 -271.992 1367.46 -223.965C1379.02 -196.706 1398.54 -155.971 1426.11 -142.203C1438.37 -136.075 1450.4 -136.496 1437.36 -120.558C1420.95 -100.49 1398.83 -84.3889 1379.82 -67.2245C1352.39 -42.4552 1324.28 -17.2009 1301.26 12.2482C1286.56 31.0534 1280.01 49.3022 1281.02 73.6505C1281.81 92.1989 1285.35 110.555 1283.56 129.174C1279.36 172.877 1246.82 202.847 1218.05 230.755C1199.55 248.704 1182.65 262.395 1173.12 287.927C1161.85 318.104 1157.13 350.935 1149.6 382.267C1141.33 416.674 1131.77 452.466 1113.72 482.771C1097.65 509.752 1078.1 521.851 1048.85 514.581C1003.23 503.252 958.255 475.344 917.75 449.526C876.523 423.259 836.004 393.724 801.84 357.619C783.396 338.122 770.807 315.229 754.427 294.284C733.823 267.988 687.212 277.947 659.512 280.172C613.528 283.868 468.839 311.519 482.19 221.959C487.762 184.577 509.708 150.077 525.758 117.089C532.41 103.399 542.037 86.9697 543.541 71.282C545.181 54.1961 530.46 37.9663 520.927 25.8242Z" stroke="white"/>
<path fill-rule="evenodd" clip-rule="evenodd" d="M537.669 29.2494C513.438 -7.30281 484.44 -41.835 463.648 -81.3137C450.161 -106.881 436.916 -141.042 454.315 -168.094C473.953 -198.622 517.255 -205.738 549.073 -209.628C581.854 -213.633 620.989 -217.002 647.782 -240.149C656.306 -247.522 663.333 -257.465 664.642 -269.371C665.903 -280.791 662.342 -292.212 663.522 -303.839C666.166 -329.949 681.13 -351.462 700.424 -367.065C757.498 -413.224 842.443 -423.489 911.304 -424.695C945.772 -425.294 981.245 -422.147 1015.93 -419.891C1060.95 -416.965 1106.03 -410.684 1148.96 -395.544C1240.24 -363.368 1301.42 -292.005 1344.15 -203.204C1357.6 -175.253 1367.89 -145.011 1388.96 -122.548C1399.83 -110.95 1397.45 -102.62 1386.35 -92.0417C1368.98 -75.5108 1347.8 -62.877 1328.53 -49.0798C1301.11 -29.4582 1273.11 -9.54403 1248.87 13.9605C1232.16 30.1631 1220.29 45.7732 1216.69 70.07C1214.12 87.3932 1214.72 105.045 1213.18 122.475C1210.24 155.587 1200.17 188.449 1182.35 215.915C1168.18 237.685 1151.32 257.471 1133.9 276.336C1111.25 300.896 1092.09 325.85 1074.88 355C1052.08 393.587 1020.03 464.764 966.307 445.928C907.056 425.143 851.52 372.331 813.505 321.16C800.739 303.98 790.259 282.909 773.042 270.24C747.267 251.304 721.115 251.967 690.457 252.046C644.558 252.153 544.682 262.695 543.603 189.948C543.178 161.126 554.967 133.874 560.611 106.151C566.977 75.1021 554.218 54.16 537.669 29.2494Z" stroke="white"/>
<path fill-rule="evenodd" clip-rule="evenodd" d="M555.716 32.5084C531.749 -15.1311 478.004 -93.4127 518.881 -146.387C540.473 -174.383 578.665 -184.904 610.702 -191.174C636.484 -196.245 667.577 -198.15 687.057 -219.648C701.376 -235.454 695.02 -258.457 700.505 -278.243C707.314 -302.772 722.941 -322.844 742.145 -337.929C795.808 -380.091 870.423 -393.03 934.977 -395.783C1002.02 -398.636 1075.89 -385.291 1138.98 -359.62C1217.65 -327.601 1276.58 -266.973 1317.79 -190.197C1325.4 -176.024 1332.31 -161.48 1339.61 -147.136C1344.51 -137.514 1351.79 -128.206 1355.65 -118.085C1362.09 -101.209 1354.51 -87.4141 1342.35 -76.4154C1324.86 -60.5808 1303.37 -49.3111 1283.43 -37.428C1256.17 -21.1654 1228.29 -5.19522 1202.93 13.8848C1185.88 26.7237 1168.04 40.5541 1161.94 62.8296C1157.78 78.0223 1156.92 94.1137 1157.07 109.848C1157.39 143.586 1155.72 170.869 1140.83 201.768C1116.34 252.496 1078.67 298.109 1038.88 336.063C1007.65 365.849 958.242 412.119 912.743 392.204C871.921 374.373 848.041 331.69 821.145 297.182C808.068 280.406 793.379 265.085 776.119 253.152C754.358 238.109 733.872 231.797 708.09 229.336C664.696 225.192 599.265 224.115 585.851 169.05C580.898 148.729 583.725 127.68 581.127 107.095C577.733 79.8768 567.808 56.5385 555.716 32.5084Z" stroke="white"/>
<path fill-rule="evenodd" clip-rule="evenodd" d="M580.638 34.2725C563.571 -17.8542 541.15 -83.5482 582.371 -129.877C602.338 -152.32 630.423 -164.866 657.604 -174.242C677.072 -180.961 707.983 -182.939 719.918 -203.597C728.684 -218.799 729.898 -239.771 737.828 -256.059C748.725 -278.452 765.232 -296.897 784.599 -311.335C835.051 -348.959 900.763 -363.498 960.69 -367.661C1090.9 -376.694 1223.39 -304.751 1293.07 -186.388C1313.84 -151.106 1340.66 -113.553 1307.09 -77.5073C1270.43 -38.1837 1215.21 -19.7608 1171.46 8.18058C1154.74 18.8487 1133.44 31.6733 1124.12 50.9888C1118.51 62.5995 1118.12 77.1664 1117.87 89.9482C1117.19 122.502 1114.64 151.779 1102.26 182.155C1083.15 229.098 1052.68 272.406 1018.15 307.881C988.033 338.814 945.086 375.167 901.35 352.867C867.816 335.729 846.548 299.355 820.493 272.542C791.497 242.68 755.637 222.557 716.257 212.725C677.949 203.185 635.932 196.751 615.743 156.221C608.818 142.318 601.582 124.316 598.986 108.928C594.795 83.5564 588.659 58.5887 580.638 34.2725Z" stroke="white"/>
<path fill-rule="evenodd" clip-rule="evenodd" d="M608.426 34.6397C600.531 -17.9972 599.653 -72.8829 636.338 -114.369C653.459 -133.723 675.101 -147.473 696.986 -159.931C713.088 -169.097 729.716 -176.829 741.741 -191.857C752.883 -205.771 761.352 -221.927 772.109 -236.205C786.299 -255.127 803.277 -271.507 822.392 -284.716C870.306 -317.763 928.592 -333.219 984.354 -338.581C1011.35 -341.186 1040.63 -342.543 1067.44 -335.439C1093.33 -328.586 1118.94 -317.749 1142.75 -305.112C1193.36 -278.276 1237.22 -238.975 1269.02 -189.287C1290.83 -155.204 1302.62 -122.065 1274.38 -87.4896C1242.55 -48.517 1192.64 -27.0139 1151.5 -1.71995C1123.28 15.6282 1091.66 32.6336 1086.39 69.5002C1082.19 98.835 1078.78 126.678 1067.93 154.406C1051.77 195.306 1028.01 232.356 998.053 263.357C970.661 291.599 936.008 315.565 896.827 300.48C865.784 288.508 841.699 261.686 814.577 242.51C784.351 221.093 751.142 209.285 716.172 199.79C684.744 191.223 655.152 178.058 634.84 150.108C630.683 144.397 626.316 138.179 623.111 131.789C619.021 123.636 619.339 115.555 618.536 106.417C616.444 82.3007 611.996 58.463 608.426 34.6397Z" stroke="white"/>
<path fill-rule="evenodd" clip-rule="evenodd" d="M639.066 30.3374C639.74 -19.6599 651.106 -66.9113 682.236 -105.875C695.544 -122.543 711.436 -136.272 726.08 -151.546C737.871 -163.86 749.014 -175.301 762.572 -185.447C794.733 -209.474 820.871 -240.565 855.05 -261.959C900.675 -290.562 952.937 -306.372 1004.79 -312.693C1030.12 -315.782 1056.27 -316.862 1081.89 -313.372C1103.9 -310.376 1124.97 -299.858 1144.52 -289.096C1182.83 -268.016 1220.03 -238.055 1244.91 -200.149C1299.75 -116.58 1191.62 -55.8207 1136.12 -20.2391C1110.59 -3.87129 1071.59 15.0851 1061.14 47.5061C1053.66 70.667 1049.11 94.2212 1039.49 116.667C1013.63 176.947 961.146 247.846 891.204 238.407C861.276 234.374 833.998 217.992 806.059 206.994C777.29 195.667 747.597 189.353 717.696 182.424C689.75 175.953 667.477 166.743 649.427 142.052C640.799 130.26 641.562 116.145 640.793 101.679C639.538 77.9177 638.762 54.0203 639.066 30.3374Z" stroke="white"/>
<path fill-rule="evenodd" clip-rule="evenodd" d="M666.966 23.9335C678.202 -51.5328 719.934 -133.921 781.297 -177.748C853.477 -229.303 931.674 -272.716 1017.91 -285.196C1057.9 -290.983 1101.7 -293.83 1139.42 -274.906C1168.14 -260.514 1201.49 -239 1217.29 -208.745C1255.95 -134.741 1169.96 -75.8296 1120.97 -41.5929C1094.59 -23.1616 1061.02 -5.20126 1041.14 21.7143C1029.6 37.3199 1023.71 57.9633 1014.4 75.103C986.183 127.043 939.73 168.936 881.866 176.429C855.111 179.89 828.161 175.608 801.609 172.205C774.429 168.722 746.912 166.831 719.9 161.972C698.339 158.09 672.928 151.518 664.987 127.107C654.973 96.3458 662.38 54.7523 666.966 23.9335Z" stroke="white"/>
<path fill-rule="evenodd" clip-rule="evenodd" d="M694.324 11.8104C710.712 -59.1407 745.414 -128.349 803.752 -170.706C834.688 -193.166 870.601 -208.67 905.08 -223.989C944.163 -241.35 984.997 -254.826 1026.7 -261.51C1078.63 -269.837 1162.73 -277.343 1189.86 -214.748C1216.79 -152.616 1148.75 -97.6264 1108.51 -66.2894C1082.71 -46.2145 1055.1 -27.7894 1030.45 -5.84349C1017.08 6.05431 1006.79 19.8018 995.476 33.7563C964.215 72.4206 919.649 103.029 874.225 119.369C830.199 135.209 775.736 142.222 729.263 136.987C709.211 134.738 694.879 127.146 688.814 105.564C680.411 75.5629 687.55 41.1192 694.324 11.8104Z" stroke="white"/>
<path fill-rule="evenodd" clip-rule="evenodd" d="M721.51 -7.29923C737.79 -69.769 772.904 -126.827 824.124 -164.32C881.538 -206.351 955.469 -229.706 1023.42 -241.582C1059.54 -247.89 1137.81 -264.994 1156.22 -216.044C1174.63 -167.094 1121.41 -118.854 1090.78 -92.2991C1053.6 -60.1184 1013.52 -29.047 973.481 -0.173213C938.697 24.9313 901.58 50.5977 863.903 69.9844C842.654 80.9823 820.518 89.962 797.759 96.8171C780.906 101.852 759.476 109.362 741.807 105.614C697.241 96.1486 713.724 22.5702 721.51 -7.29923Z" stroke="white"/>
<path fill-rule="evenodd" clip-rule="evenodd" d="M755.067 -26.0059C790.787 -144.144 903.959 -202.246 1012.92 -222.498C1038.25 -227.199 1109.23 -244.148 1123.38 -208.06C1137.1 -173.07 1093.48 -131.574 1073.06 -111.915C1009.78 -50.9945 931.598 -5.82524 857.516 38.9232C834.392 52.8905 792.687 83.2007 764.003 69.2191C732.86 54.0105 747.667 -1.5095 755.067 -26.0059Z" stroke="white"/>
<path fill-rule="evenodd" clip-rule="evenodd" d="M791.655 -48.7443C822.719 -135.744 913.071 -185.642 996.141 -202.091C1016.49 -206.116 1068.16 -218.647 1083.57 -194.369C1097.83 -171.911 1063.8 -139.369 1051.07 -126.438C1022.72 -97.6428 989.129 -73.9214 955.942 -51.1207C925.256 -30.0255 894.239 -8.4023 861.952 9.43867C844.945 18.8302 813.05 38.8692 793.724 24.368C772.918 8.76788 784.758 -29.4261 791.655 -48.7443Z" stroke="white"/>
<path fill-rule="evenodd" clip-rule="evenodd" d="M-207.146 97.3704C-208.002 41.6341 -235.996 -16.2918 -222.171 -73.0836C-210.818 -119.727 -153.663 -123.621 -119.375 -144.753C-92.1284 -161.541 -76.6656 -191.282 -61.9305 -219.817C-48.6911 -245.435 -36.7993 -271.823 -22.8524 -297.02C-13.824 -313.31 1.6792 -345.297 21.2587 -345.874C40.0027 -346.431 57.1903 -321.504 68.0782 -306.77C82.2744 -287.563 94.8602 -267.087 108.645 -247.574C131.877 -214.66 159.75 -190.298 191.666 -167.24C227.986 -141.004 264.906 -115.664 302.425 -91.2203C330.05 -73.1693 357.862 -55.2538 384.415 -35.4198C401.071 -22.9745 437.831 0.375608 438 23.3192C438.08 34.2667 428.277 46.3911 421.668 55.142C410.483 69.9551 397.736 83.4987 384.948 96.7499C361.13 121.434 336.302 144.998 311.744 168.847C279.868 199.8 249.421 230.246 221.399 265.385C192.427 301.758 164.749 339.33 136.505 376.387C117.377 401.492 98.2694 429.684 70.679 445.09C36.1218 464.346 7.7565 444.041 -27.1914 443.806C-57.2546 443.599 -55.0379 369.883 -58.8582 349.386C-62.6918 328.639 -71.1408 309.325 -74.4153 288.529C-78.4983 262.568 -78.5522 236.009 -79.5561 209.77C-80.7756 177.676 -81.2607 147.123 -113.675 134.885C-132.123 127.931 -152.08 126.469 -171.174 122.304C-183.544 119.601 -206.876 114.979 -207.146 97.3704Z" stroke="white"/>
<path fill-rule="evenodd" clip-rule="evenodd" d="M-192.366 87.4553C-195.518 40.7345 -214.135 -19.0647 -196.53 -67.2926C-181.489 -108.506 -134.45 -113.849 -102.776 -135.499C-76.628 -153.356 -64.988 -182.577 -51.9175 -211.284C-41.4314 -234.312 -31.2625 -257.561 -19.3593 -279.854C-10.5872 -296.282 2.80727 -324.018 21.0466 -327.418C37.4438 -330.475 55.0286 -305.989 64.2326 -293.532C77.6607 -275.347 89.1455 -255.597 101.008 -236.262C121.852 -202.298 143.195 -171.755 173.702 -146.806C204.344 -121.749 237.867 -103.014 271.748 -83.5138C298.253 -68.2569 324.624 -52.5571 349.807 -34.9431C368.566 -21.829 395.537 -5.04347 404.12 18.3419C410.915 36.8417 376.454 67.5413 366.292 78.3768C345.373 100.655 323.207 121.569 301 142.354C273.928 167.683 245.992 189.832 222.084 218.725C179.323 270.381 143.58 334.709 88.5584 373.101C55.3727 396.258 18.4419 402.18 -18.4686 398.715C-33.0844 397.344 -36.5932 375.508 -38.4354 362.773C-41.4989 341.616 -41.8835 320.095 -44.2385 298.852C-46.445 278.967 -51.3439 260.074 -55.2914 240.575C-59.2861 220.818 -60.4063 200.575 -63.3483 180.683C-65.1702 168.333 -66.9719 153.962 -74.941 144.033C-83.1869 133.755 -96.7905 129.448 -108.68 126.176C-131.009 120.09 -190.14 120.426 -192.366 87.4553Z" stroke="white"/>
<path fill-rule="evenodd" clip-rule="evenodd" d="M-173.344 67.8973C-178.644 25.0112 -186.064 -28.404 -164.473 -67.9161C-146.826 -100.223 -109.188 -107.193 -82.3047 -128.243C-59.9448 -145.749 -51.4991 -173.591 -40.4002 -199.464C-31.2928 -220.686 -22.1382 -242 -11.1001 -262.195C-2.72861 -277.51 8.05978 -298.276 24.6812 -303.619C38.8924 -308.184 54.9467 -287.733 62.8253 -277.553C76.2399 -260.205 87.1768 -240.766 98.0395 -221.584C115.809 -190.197 132.16 -156.67 157.45 -131.14C182.024 -106.365 211.216 -91.7417 240.955 -75.2992C263.734 -62.7015 286.37 -49.6188 307.832 -34.5958C324.312 -23.0682 344.734 -9.40765 353.322 9.77414C360.748 26.3166 341.683 45.8978 332.157 57.5681C316.427 76.8284 298.968 94.4979 281.753 112.239C263.173 131.378 242.596 149.033 224.617 168.643C186.811 209.91 156.606 255.599 110.009 287.215C79.8315 307.695 39.2232 326.299 3.54999 322.953C-22.1045 320.542 -20.4167 260.464 -22.8809 241.268C-26.9316 209.881 -34.7562 176.903 -47.1851 147.991C-57.8587 123.217 -83.2229 115.577 -106.555 110.02C-121.171 106.532 -136.49 104.649 -150.627 99.2559C-166.992 93.007 -171.123 85.8736 -173.344 67.8973Z" stroke="white"/>
<path fill-rule="evenodd" clip-rule="evenodd" d="M-155.601 47.7949C-158.756 11.5368 -158.047 -31.339 -137.607 -62.7036C-119.695 -90.1762 -87.8021 -97.4092 -65.1192 -119.051C-47.4161 -135.935 -40.4632 -163.465 -30.9427 -185.794C-19.3074 -213.095 -3.00294 -263.518 26.3491 -273.792C53.6537 -283.343 82.2084 -222.331 92.0938 -204.137C107.743 -175.341 120.831 -143.762 139.811 -117.169C156.156 -94.2756 178.055 -81.6196 201.299 -68.0193C230.935 -50.6486 275.929 -30.0513 291.774 3.803C303.585 29.0292 265.179 66.5321 252.063 84.0101C238.347 102.268 228.016 123.91 213.86 141.524C191.522 169.318 155.325 191.697 125.439 208.774C96.3844 225.387 58.6538 243.773 25.6936 242.679C4.031 241.963 -0.0907097 206.564 -4.71243 189.272C-11.3342 164.689 -20.1384 142.661 -39.051 125.942C-58.3014 108.921 -80.9911 100.901 -104.843 93.8831C-117.087 90.3059 -131.053 87.5157 -142.006 80.2899C-154.108 72.4273 -154.385 61.7315 -155.601 47.7949Z" stroke="white"/>
<path fill-rule="evenodd" clip-rule="evenodd" d="M-133.982 26.8961C-133.807 -4.42827 -127.038 -37.8314 -106.968 -61.9938C-90.2515 -82.1197 -64.0861 -88.8473 -48.0837 -109.422C-35.4084 -125.71 -28.9563 -148.577 -20.4702 -167.493C-10.0916 -190.673 4.58397 -231.167 30.3925 -239.211C55.5814 -247.042 77.8608 -202.441 87.5188 -184.792C101.662 -158.914 113.112 -131.484 127.383 -105.677C138.563 -85.4302 152.235 -72.3807 170.44 -59.3313C191.81 -44.0037 221.626 -27.0245 233.042 -1.66604C241.272 16.6943 221.35 46.0323 214.117 62.2071C209.267 73.0709 204.829 84.1057 202.391 95.8808C200.492 105.05 200.303 113.536 194.801 121.41C180.947 141.216 150.572 143.8 129.963 150.328C102.592 158.992 73.5504 168.838 44.9064 170.717C27.3011 171.892 18.3167 154.728 8.26804 142.654C-3.60577 128.38 -20.4163 118.114 -35.0986 107.343C-54.4752 93.1043 -75.5625 84.248 -97.3772 75.1782C-107.217 71.0847 -118.774 67.0695 -126.398 58.9323C-134.359 50.4961 -134.042 38.2013 -133.982 26.8961Z" stroke="white"/>
<path fill-rule="evenodd" clip-rule="evenodd" d="M-111.276 8.30008C-107.797 -18.0081 -96.9558 -43.1526 -78.6449 -61.7504C-64.6084 -76.0289 -45.9671 -84.0678 -34.7014 -101.223C-24.2044 -117.215 -16.8894 -135.399 -8.21939 -152.498C0.956291 -170.574 14.5883 -200.788 35.7511 -205.707C58.5588 -211.004 76.1281 -180.526 85.8566 -163.635C98.1471 -142.288 107.485 -119.321 118.474 -97.2397C126.753 -80.7812 137.313 -65.7288 149.803 -52.5836C162.903 -38.7263 180.668 -25.4544 187.295 -6.39968C193.153 10.4775 182.191 30.8958 180.256 48.0087C178.187 66.2923 181.814 85.497 170.339 101.196C146.675 133.573 87.2859 127.569 53.3339 128.261C19.8335 128.975 -7.10024 109.164 -34.2093 90.316C-52.1157 77.8722 -70.7637 67.3347 -89.1218 55.7405C-107.837 43.9107 -114.336 31.4527 -111.276 8.30008Z" stroke="white"/>
<path fill-rule="evenodd" clip-rule="evenodd" d="M-90.1792 -6.75763C-79.8916 -44.8706 -47.7607 -65.1276 -24.7907 -93.9302C-5.9965 -117.51 8.09579 -166.341 39.7478 -172.8C75.6834 -180.131 97.1963 -115.43 109.69 -90.4647C123.553 -62.7767 148.243 -40.2548 158.51 -10.9448C163.907 4.43905 159.272 18.7939 156.399 34.1706C153.248 51.0549 150.881 68.318 140.006 81.9083C118.601 108.653 76.7965 108.467 46.6894 109.203C15.5231 109.968 -12.0476 91.6402 -36.8795 73.3482C-63.2156 53.9773 -100.716 32.3271 -90.1792 -6.75763Z" stroke="white"/>
<path fill-rule="evenodd" clip-rule="evenodd" d="M-72.9486 -17.0925C-61.3564 -44.2469 -36.9965 -66.3226 -17.23 -87.1625C-0.731913 -104.536 17.0165 -139.511 42.1714 -142.004C71.7362 -144.944 89.6545 -107.598 101.287 -84.6978C112.737 -62.1959 129.235 -38.4367 135.575 -13.74C142.186 11.9867 124.58 46.6346 107.79 64.8393C89.0633 85.1394 58.4249 92.64 32.1353 91.8303C4.60893 91.0063 -20.6479 74.2293 -41.4948 56.8272C-63.7822 38.2247 -86.4297 14.4301 -72.9486 -17.0925Z" stroke="white"/>
<path fill-rule="evenodd" clip-rule="evenodd" d="M-56.9603 -22.2048C-45.8874 -44.7899 -26.6933 -63.8955 -8.99567 -80.9375C4.66187 -94.0944 24.8149 -116.466 44.519 -117.014C66.1956 -117.619 84.5666 -98.8406 93.1842 -79.5927C101.679 -60.608 110.63 -36.8061 111.902 -15.9785C114.664 29.3768 58.4418 80.1827 16.2245 76.0485C-23.8027 72.1278 -79.0382 22.7948 -56.9603 -22.2048Z" stroke="white"/>
<path fill-rule="evenodd" clip-rule="evenodd" d="M-42.1741 -24.6952C-26.8984 -54.1218 10.2067 -96.0735 44.5584 -97.0698C83.9884 -98.2084 93.8867 -51.5243 88.7472 -17.6925C83.5261 16.8366 38.066 66.8157 1.8176 60.0622C-33.5607 53.4723 -60.2779 10.2041 -42.1741 -24.6952Z" stroke="white"/>
<path fill-rule="evenodd" clip-rule="evenodd" d="M-26.5621 -29.4533C-13.6286 -54.0917 13.9704 -84.8667 42.7556 -85.7982C77.0538 -86.9003 76.4068 -47.4859 68.6292 -22.9541C60.5416 2.51626 24.9224 46.0193 -5.10966 39.1504C-34.3127 32.445 -38.9564 -5.83876 -26.5621 -29.4533Z" stroke="white"/>
<path fill-rule="evenodd" clip-rule="evenodd" d="M-12.9644 -32.2889C-4.42738 -49.8696 16.9387 -72.0896 37.2504 -72.8005C62.0772 -73.6552 57.2511 -42.3935 50.8366 -27.3048C43.2121 -9.35071 17.6552 21.8463 -3.79199 16.7905C-24.908 11.8136 -20.0075 -17.8035 -12.9644 -32.2889Z" stroke="white"/>
</g>
</svg>
