<svg width="74" height="74" viewBox="0 0 74 74" fill="none" xmlns="http://www.w3.org/2000/svg">
<path d="M61.6665 21.5833H12.3332C8.92741 21.5833 6.1665 24.3442 6.1665 27.7499V58.5832C6.1665 61.989 8.92741 64.7499 12.3332 64.7499H61.6665C65.0723 64.7499 67.8332 61.989 67.8332 58.5832V27.7499C67.8332 24.3442 65.0723 21.5833 61.6665 21.5833Z" stroke="#0061FE" stroke-width="4" stroke-linecap="round" stroke-linejoin="round"/>
<path d="M49.3332 64.75V15.4167C49.3332 13.7812 48.6835 12.2126 47.527 11.0562C46.3705 9.8997 44.802 9.25 43.1665 9.25H30.8332C29.1977 9.25 27.6292 9.8997 26.4727 11.0562C25.3162 12.2126 24.6665 13.7812 24.6665 15.4167V64.75" stroke="#0061FE" stroke-width="4" stroke-linecap="round" stroke-linejoin="round"/>
</svg>
