<svg width="74" height="74" viewBox="0 0 74 74" fill="none" xmlns="http://www.w3.org/2000/svg">
<path d="M52.4168 64.75V58.5833C52.4168 55.3123 51.1174 52.1753 48.8045 49.8624C46.4915 47.5494 43.3545 46.25 40.0835 46.25H15.4168C12.1458 46.25 9.00879 47.5494 6.69585 49.8624C4.3829 52.1753 3.0835 55.3123 3.0835 58.5833V64.75" stroke="#0061FE" stroke-width="4" stroke-linecap="round" stroke-linejoin="round"/>
<path d="M27.7498 33.9167C34.5614 33.9167 40.0832 28.3948 40.0832 21.5833C40.0832 14.7718 34.5614 9.25 27.7498 9.25C20.9383 9.25 15.4165 14.7718 15.4165 21.5833C15.4165 28.3948 20.9383 33.9167 27.7498 33.9167Z" stroke="#0061FE" stroke-width="4" stroke-linecap="round" stroke-linejoin="round"/>
<path d="M70.9165 64.7501V58.5834C70.9145 55.8507 70.0049 53.1961 68.3307 51.0364C66.6565 48.8766 64.3124 47.334 61.6665 46.6509" stroke="#0061FE" stroke-width="4" stroke-linecap="round" stroke-linejoin="round"/>
<path d="M49.3335 9.65088C51.9864 10.3301 54.3379 11.873 56.017 14.0363C57.6962 16.1996 58.6077 18.8603 58.6077 21.5988C58.6077 24.3373 57.6962 26.998 56.017 29.1613C54.3379 31.3245 51.9864 32.8675 49.3335 33.5467" stroke="#0061FE" stroke-width="4" stroke-linecap="round" stroke-linejoin="round"/>
</svg>
