<?xml version="1.0" standalone="no"?>
<!DOCTYPE svg PUBLIC "-//W3C//DTD SVG 20010904//EN"
 "http://www.w3.org/TR/2001/REC-SVG-20010904/DTD/svg10.dtd">
<svg version="1.0" xmlns="http://www.w3.org/2000/svg"
 width="1136.000000pt" height="1136.000000pt" viewBox="0 0 1136.000000 1136.000000"
 preserveAspectRatio="xMidYMid meet">
<metadata>
Created by potrace 1.14, written by Peter Selinger 2001-2017
</metadata>
<g transform="translate(0.000000,1136.000000) scale(0.100000,-0.100000)"
fill="#000000" stroke="none">
<path d="M8250 9269 c-101 -12 -149 -25 -238 -65 -29 -13 -57 -24 -62 -24 -6
0 -10 -4 -10 -9 0 -5 -16 -16 -36 -26 -37 -17 -214 -186 -214 -204 0 -5 -6
-16 -14 -24 -29 -29 -94 -183 -113 -267 -14 -65 -18 -217 -7 -275 32 -176 95
-303 211 -431 85 -92 281 -207 374 -218 13 -1 33 -7 44 -11 11 -5 76 -9 145
-8 142 0 234 20 345 74 72 35 198 122 189 131 -3 4 3 9 14 12 10 4 25 18 32
31 7 14 17 25 21 25 10 0 93 126 118 180 36 80 73 241 72 320 0 52 -13 152
-26 202 -17 67 -70 195 -86 208 -3 3 -13 19 -22 35 -18 36 -125 148 -182 192
-58 44 -138 87 -220 116 -38 14 -72 25 -75 25 -3 0 -30 3 -60 7 -83 10 -139
11 -200 4z"/>
<path d="M3297 7804 c-1 -1 -31 -4 -67 -8 -36 -3 -96 -17 -135 -31 -38 -14
-75 -27 -81 -28 -6 -2 -23 -10 -37 -20 -15 -9 -29 -17 -33 -17 -28 0 -179
-141 -576 -537 -254 -255 -465 -464 -468 -464 -3 -1 -108 -109 -235 -239 -126
-130 -232 -238 -235 -239 -8 -2 -290 -284 -291 -291 -1 -3 -36 -36 -79 -75
-43 -38 -78 -72 -79 -75 -1 -8 -434 -440 -441 -440 -3 -1 -21 -24 -40 -51 -19
-28 -40 -56 -46 -63 -28 -29 -97 -191 -109 -253 -29 -152 -21 -321 20 -419 8
-19 12 -34 10 -34 -3 0 4 -16 15 -35 11 -20 20 -42 20 -50 0 -8 5 -15 10 -15
6 0 10 -5 10 -11 0 -15 62 -101 109 -152 95 -105 264 -199 416 -233 51 -11
261 -14 291 -4 16 5 40 11 54 13 14 2 34 7 45 12 11 4 49 19 85 33 35 14 73
33 84 43 11 11 24 19 29 19 6 0 29 15 52 34 51 42 2342 2335 2371 2373 35 46
72 115 103 191 16 40 28 72 26 72 -2 0 1 15 6 33 18 62 26 190 15 267 -25 183
-98 332 -226 463 -42 42 -80 77 -84 77 -4 0 -22 11 -39 24 -31 23 -155 85
-180 90 -7 2 -32 8 -57 15 -25 7 -63 15 -85 18 -47 5 -145 10 -148 7z"/>
<path d="M6605 7649 c-93 -17 -124 -25 -160 -39 -83 -32 -173 -85 -242 -144
-30 -26 -2287 -2285 -2314 -2316 -41 -48 -79 -109 -108 -172 -29 -63 -64 -168
-56 -168 3 0 0 -12 -5 -26 -14 -37 -14 -197 0 -274 27 -153 104 -303 208 -407
36 -37 123 -108 142 -116 8 -4 31 -17 50 -28 38 -23 144 -66 182 -73 13 -2 42
-9 64 -14 110 -25 332 5 452 60 44 20 141 80 169 103 7 6 530 528 1164 1160
1048 1047 1239 1243 1239 1274 0 5 6 16 13 23 7 7 21 33 31 58 10 25 23 56 29
70 13 30 11 23 22 85 4 28 10 57 11 65 7 29 6 156 -1 210 -10 87 -78 280 -97
280 -5 0 -8 5 -8 10 0 14 -67 104 -111 150 -138 143 -336 230 -539 234 -52 2
-113 -1 -135 -5z"/>
<path d="M9988 7505 c-2 -3 -18 -5 -36 -7 -18 -1 -32 -5 -32 -8 0 -3 -9 -6
-20 -7 -31 -3 -143 -44 -161 -59 -8 -8 -19 -14 -23 -14 -37 0 -252 -207 -1273
-1228 -631 -631 -1164 -1168 -1184 -1192 -51 -63 -103 -157 -123 -221 -10 -30
-20 -61 -23 -69 -26 -68 -31 -264 -10 -355 19 -81 33 -120 68 -191 49 -99 113
-180 204 -257 63 -54 204 -133 251 -142 11 -2 19 -4 19 -6 0 -1 9 -3 20 -5 11
-2 40 -8 65 -14 24 -6 53 -9 62 -7 10 3 20 2 22 -2 6 -8 97 -7 176 3 30 4 92
20 137 35 180 62 121 8 1401 1285 805 805 1186 1191 1216 1236 68 102 114 216
130 324 4 21 9 43 13 49 3 6 1 7 -5 3 -9 -5 -10 0 -4 16 7 20 8 93 2 108 -1 3
-3 19 -4 35 -4 38 -20 128 -26 140 -1 3 -3 8 -5 13 -11 40 -56 133 -91 188
-52 81 -210 234 -242 234 -6 0 -12 3 -14 8 -3 6 -55 33 -123 63 -57 26 -178
46 -276 47 -59 0 -109 -1 -111 -3z"/>
<path d="M2740 3805 c-144 -28 -283 -93 -366 -170 -6 -5 -22 -19 -35 -31 -95
-83 -200 -258 -224 -371 -2 -10 -8 -37 -13 -60 -12 -53 -8 -252 6 -316 60
-257 256 -476 508 -567 61 -22 71 -24 164 -38 85 -12 194 -6 290 17 45 10 171
60 189 74 7 6 21 16 31 22 42 24 78 52 124 95 53 49 142 160 129 160 -4 0 -3
4 3 8 15 9 38 55 68 135 49 130 60 277 33 427 -1 8 -6 21 -10 28 -5 6 -6 12
-3 12 8 0 -29 101 -59 160 -29 57 -83 134 -131 186 -36 38 -149 125 -189 144
-16 8 -32 17 -35 20 -7 7 -123 46 -180 61 -65 16 -224 18 -300 4z"/>
</g>
</svg>
