<svg width="1440" height="800" viewBox="0 0 1440 800" fill="none" xmlns="http://www.w3.org/2000/svg">
<path opacity="0.1" d="M2248.74 -611.887L2248.58 -612.054C2127.22 -733.376 1930.48 -733.376 1809.13 -612.054L929.725 267.14C808.374 388.462 808.374 585.164 929.725 706.486L929.892 706.653C1051.24 827.975 1247.99 827.975 1369.34 706.653L2248.74 -172.541C2370.09 -293.863 2370.09 -490.565 2248.74 -611.887Z" fill="url(#paint0_linear_0_1)"/>
<path opacity="0.1" d="M1201.74 -1214.89L1201.58 -1215.05C1080.22 -1336.38 883.476 -1336.38 762.125 -1215.05L-117.275 -335.86C-238.626 -214.538 -238.626 -17.8361 -117.275 103.486L-117.108 103.653C4.2425 224.975 200.991 224.975 322.341 103.653L1201.74 -775.541C1323.09 -896.863 1323.09 -1093.56 1201.74 -1214.89Z" fill="url(#paint1_linear_0_1)"/>
<g opacity="0.1">
<ellipse cx="1333.64" cy="166.086" rx="4.08642" ry="4.09348" transform="rotate(90 1333.64 166.086)" fill="#FF1D31"/>
<ellipse cx="1315" cy="166.086" rx="4.08642" ry="4.09348" transform="rotate(90 1315 166.086)" fill="#FF1D31"/>
<ellipse cx="1296.37" cy="166.086" rx="4.08642" ry="4.09348" transform="rotate(90 1296.37 166.086)" fill="#FF1D31"/>
<ellipse cx="1277.73" cy="166.086" rx="4.08642" ry="4.09348" transform="rotate(90 1277.73 166.086)" fill="#FF1D31"/>
<ellipse cx="1259.1" cy="166.086" rx="4.08642" ry="4.09348" transform="rotate(90 1259.1 166.086)" fill="#FF1D31"/>
<ellipse cx="1240.46" cy="166.086" rx="4.08642" ry="4.09348" transform="rotate(90 1240.46 166.086)" fill="#FF1D31"/>
<ellipse cx="1221.83" cy="166.086" rx="4.08642" ry="4.09348" transform="rotate(90 1221.83 166.086)" fill="#FF1D31"/>
<ellipse cx="1333.64" cy="184.69" rx="4.08642" ry="4.09348" transform="rotate(90 1333.64 184.69)" fill="#FF1D31"/>
<ellipse cx="1315" cy="184.69" rx="4.08642" ry="4.09348" transform="rotate(90 1315 184.69)" fill="#FF1D31"/>
<ellipse cx="1296.37" cy="184.69" rx="4.08642" ry="4.09348" transform="rotate(90 1296.37 184.69)" fill="#FF1D31"/>
<ellipse cx="1277.73" cy="184.69" rx="4.08642" ry="4.09348" transform="rotate(90 1277.73 184.69)" fill="#FF1D31"/>
<ellipse cx="1259.1" cy="184.69" rx="4.08642" ry="4.09348" transform="rotate(90 1259.1 184.69)" fill="#FF1D31"/>
<ellipse cx="1240.46" cy="184.69" rx="4.08642" ry="4.09348" transform="rotate(90 1240.46 184.69)" fill="#FF1D31"/>
<ellipse cx="1221.83" cy="184.69" rx="4.08642" ry="4.09348" transform="rotate(90 1221.83 184.69)" fill="#FF1D31"/>
<ellipse cx="1333.64" cy="203.293" rx="4.08642" ry="4.09348" transform="rotate(90 1333.64 203.293)" fill="#FF1D31"/>
<ellipse cx="1315" cy="203.293" rx="4.08642" ry="4.09348" transform="rotate(90 1315 203.293)" fill="#FF1D31"/>
<ellipse cx="1296.37" cy="203.293" rx="4.08642" ry="4.09348" transform="rotate(90 1296.37 203.293)" fill="#FF1D31"/>
<ellipse cx="1277.73" cy="203.293" rx="4.08642" ry="4.09348" transform="rotate(90 1277.73 203.293)" fill="#FF1D31"/>
<ellipse cx="1259.1" cy="203.293" rx="4.08642" ry="4.09348" transform="rotate(90 1259.1 203.293)" fill="#FF1D31"/>
<ellipse cx="1240.46" cy="203.293" rx="4.08642" ry="4.09348" transform="rotate(90 1240.46 203.293)" fill="#FF1D31"/>
<ellipse cx="1221.83" cy="203.293" rx="4.08642" ry="4.09348" transform="rotate(90 1221.83 203.293)" fill="#FF1D31"/>
<ellipse cx="1333.64" cy="221.897" rx="4.08642" ry="4.09348" transform="rotate(90 1333.64 221.897)" fill="#FF1D31"/>
<ellipse cx="1315" cy="221.897" rx="4.08642" ry="4.09348" transform="rotate(90 1315 221.897)" fill="#FF1D31"/>
<ellipse cx="1296.37" cy="221.897" rx="4.08642" ry="4.09348" transform="rotate(90 1296.37 221.897)" fill="#FF1D31"/>
<ellipse cx="1277.73" cy="221.897" rx="4.08642" ry="4.09348" transform="rotate(90 1277.73 221.897)" fill="#FF1D31"/>
<ellipse cx="1259.1" cy="221.897" rx="4.08642" ry="4.09348" transform="rotate(90 1259.1 221.897)" fill="#FF1D31"/>
<ellipse cx="1240.46" cy="221.897" rx="4.08642" ry="4.09348" transform="rotate(90 1240.46 221.897)" fill="#FF1D31"/>
<ellipse cx="1221.83" cy="221.897" rx="4.08642" ry="4.09348" transform="rotate(90 1221.83 221.897)" fill="#FF1D31"/>
<ellipse cx="1333.64" cy="240.5" rx="4.08642" ry="4.09348" transform="rotate(90 1333.64 240.5)" fill="#FF1D31"/>
<ellipse cx="1315" cy="240.5" rx="4.08642" ry="4.09348" transform="rotate(90 1315 240.5)" fill="#FF1D31"/>
<ellipse cx="1296.37" cy="240.5" rx="4.08642" ry="4.09348" transform="rotate(90 1296.37 240.5)" fill="#FF1D31"/>
<ellipse cx="1277.73" cy="240.5" rx="4.08642" ry="4.09348" transform="rotate(90 1277.73 240.5)" fill="#FF1D31"/>
<ellipse cx="1259.1" cy="240.5" rx="4.08642" ry="4.09348" transform="rotate(90 1259.1 240.5)" fill="#FF1D31"/>
<ellipse cx="1240.46" cy="240.5" rx="4.08642" ry="4.09348" transform="rotate(90 1240.46 240.5)" fill="#FF1D31"/>
<ellipse cx="1221.83" cy="240.5" rx="4.08642" ry="4.09348" transform="rotate(90 1221.83 240.5)" fill="#FF1D31"/>
<ellipse cx="1333.64" cy="259.103" rx="4.08642" ry="4.09348" transform="rotate(90 1333.64 259.103)" fill="#FF1D31"/>
<ellipse cx="1315" cy="259.103" rx="4.08642" ry="4.09348" transform="rotate(90 1315 259.103)" fill="#FF1D31"/>
<ellipse cx="1296.37" cy="259.103" rx="4.08642" ry="4.09348" transform="rotate(90 1296.37 259.103)" fill="#FF1D31"/>
<ellipse cx="1277.73" cy="259.103" rx="4.08642" ry="4.09348" transform="rotate(90 1277.73 259.103)" fill="#FF1D31"/>
<ellipse cx="1259.1" cy="259.103" rx="4.08642" ry="4.09348" transform="rotate(90 1259.1 259.103)" fill="#FF1D31"/>
<ellipse cx="1240.46" cy="259.103" rx="4.08642" ry="4.09348" transform="rotate(90 1240.46 259.103)" fill="#FF1D31"/>
<ellipse cx="1221.83" cy="259.103" rx="4.08642" ry="4.09348" transform="rotate(90 1221.83 259.103)" fill="#FF1D31"/>
<ellipse cx="1333.64" cy="277.707" rx="4.08642" ry="4.09348" transform="rotate(90 1333.64 277.707)" fill="#FF1D31"/>
<ellipse cx="1315" cy="277.707" rx="4.08642" ry="4.09348" transform="rotate(90 1315 277.707)" fill="#FF1D31"/>
<ellipse cx="1296.37" cy="277.707" rx="4.08642" ry="4.09348" transform="rotate(90 1296.37 277.707)" fill="#FF1D31"/>
<ellipse cx="1277.73" cy="277.707" rx="4.08642" ry="4.09348" transform="rotate(90 1277.73 277.707)" fill="#FF1D31"/>
<ellipse cx="1259.1" cy="277.707" rx="4.08642" ry="4.09348" transform="rotate(90 1259.1 277.707)" fill="#FF1D31"/>
<ellipse cx="1240.46" cy="277.707" rx="4.08642" ry="4.09348" transform="rotate(90 1240.46 277.707)" fill="#FF1D31"/>
<ellipse cx="1221.83" cy="277.707" rx="4.08642" ry="4.09348" transform="rotate(90 1221.83 277.707)" fill="#FF1D31"/>
<ellipse cx="1333.64" cy="296.31" rx="4.08642" ry="4.09348" transform="rotate(90 1333.64 296.31)" fill="#FF1D31"/>
<ellipse cx="1315" cy="296.31" rx="4.08642" ry="4.09348" transform="rotate(90 1315 296.31)" fill="#FF1D31"/>
<ellipse cx="1296.37" cy="296.31" rx="4.08642" ry="4.09348" transform="rotate(90 1296.37 296.31)" fill="#FF1D31"/>
<ellipse cx="1277.73" cy="296.31" rx="4.08642" ry="4.09348" transform="rotate(90 1277.73 296.31)" fill="#FF1D31"/>
<ellipse cx="1259.1" cy="296.31" rx="4.08642" ry="4.09348" transform="rotate(90 1259.1 296.31)" fill="#FF1D31"/>
<ellipse cx="1240.46" cy="296.31" rx="4.08642" ry="4.09348" transform="rotate(90 1240.46 296.31)" fill="#FF1D31"/>
<ellipse cx="1221.83" cy="296.31" rx="4.08642" ry="4.09348" transform="rotate(90 1221.83 296.31)" fill="#FF1D31"/>
<ellipse cx="1333.64" cy="314.914" rx="4.08642" ry="4.09348" transform="rotate(90 1333.64 314.914)" fill="#FF1D31"/>
<ellipse cx="1315" cy="314.914" rx="4.08642" ry="4.09348" transform="rotate(90 1315 314.914)" fill="#FF1D31"/>
<ellipse cx="1296.37" cy="314.914" rx="4.08642" ry="4.09348" transform="rotate(90 1296.37 314.914)" fill="#FF1D31"/>
<ellipse cx="1277.73" cy="314.914" rx="4.08642" ry="4.09348" transform="rotate(90 1277.73 314.914)" fill="#FF1D31"/>
<ellipse cx="1259.1" cy="314.914" rx="4.08642" ry="4.09348" transform="rotate(90 1259.1 314.914)" fill="#FF1D31"/>
<ellipse cx="1240.46" cy="314.914" rx="4.08642" ry="4.09348" transform="rotate(90 1240.46 314.914)" fill="#FF1D31"/>
<ellipse cx="1221.83" cy="314.914" rx="4.08642" ry="4.09348" transform="rotate(90 1221.83 314.914)" fill="#FF1D31"/>
<ellipse cx="1426.64" cy="166.086" rx="4.08642" ry="4.09348" transform="rotate(90 1426.64 166.086)" fill="#FF1D31"/>
<ellipse cx="1408" cy="166.086" rx="4.08642" ry="4.09348" transform="rotate(90 1408 166.086)" fill="#FF1D31"/>
<ellipse cx="1389.36" cy="166.086" rx="4.08642" ry="4.09348" transform="rotate(90 1389.36 166.086)" fill="#FF1D31"/>
<ellipse cx="1370.73" cy="166.086" rx="4.08642" ry="4.09348" transform="rotate(90 1370.73 166.086)" fill="#FF1D31"/>
<ellipse cx="1352.09" cy="166.086" rx="4.08642" ry="4.09348" transform="rotate(90 1352.09 166.086)" fill="#FF1D31"/>
<ellipse cx="1426.64" cy="184.69" rx="4.08642" ry="4.09348" transform="rotate(90 1426.64 184.69)" fill="#FF1D31"/>
<ellipse cx="1408" cy="184.69" rx="4.08642" ry="4.09348" transform="rotate(90 1408 184.69)" fill="#FF1D31"/>
<ellipse cx="1389.36" cy="184.69" rx="4.08642" ry="4.09348" transform="rotate(90 1389.36 184.69)" fill="#FF1D31"/>
<ellipse cx="1370.73" cy="184.69" rx="4.08642" ry="4.09348" transform="rotate(90 1370.73 184.69)" fill="#FF1D31"/>
<ellipse cx="1352.09" cy="184.69" rx="4.08642" ry="4.09348" transform="rotate(90 1352.09 184.69)" fill="#FF1D31"/>
<ellipse cx="1426.64" cy="203.293" rx="4.08642" ry="4.09348" transform="rotate(90 1426.64 203.293)" fill="#FF1D31"/>
<ellipse cx="1408" cy="203.293" rx="4.08642" ry="4.09348" transform="rotate(90 1408 203.293)" fill="#FF1D31"/>
<ellipse cx="1389.36" cy="203.293" rx="4.08642" ry="4.09348" transform="rotate(90 1389.36 203.293)" fill="#FF1D31"/>
<ellipse cx="1370.73" cy="203.293" rx="4.08642" ry="4.09348" transform="rotate(90 1370.73 203.293)" fill="#FF1D31"/>
<ellipse cx="1352.09" cy="203.293" rx="4.08642" ry="4.09348" transform="rotate(90 1352.09 203.293)" fill="#FF1D31"/>
<ellipse cx="1426.64" cy="221.897" rx="4.08642" ry="4.09348" transform="rotate(90 1426.64 221.897)" fill="#FF1D31"/>
<ellipse cx="1408" cy="221.897" rx="4.08642" ry="4.09348" transform="rotate(90 1408 221.897)" fill="#FF1D31"/>
<ellipse cx="1389.36" cy="221.897" rx="4.08642" ry="4.09348" transform="rotate(90 1389.36 221.897)" fill="#FF1D31"/>
<ellipse cx="1370.73" cy="221.897" rx="4.08642" ry="4.09348" transform="rotate(90 1370.73 221.897)" fill="#FF1D31"/>
<ellipse cx="1352.09" cy="221.897" rx="4.08642" ry="4.09348" transform="rotate(90 1352.09 221.897)" fill="#FF1D31"/>
<ellipse cx="1426.64" cy="240.5" rx="4.08642" ry="4.09348" transform="rotate(90 1426.64 240.5)" fill="#FF1D31"/>
<ellipse cx="1408" cy="240.5" rx="4.08642" ry="4.09348" transform="rotate(90 1408 240.5)" fill="#FF1D31"/>
<ellipse cx="1389.36" cy="240.5" rx="4.08642" ry="4.09348" transform="rotate(90 1389.36 240.5)" fill="#FF1D31"/>
<ellipse cx="1370.73" cy="240.5" rx="4.08642" ry="4.09348" transform="rotate(90 1370.73 240.5)" fill="#FF1D31"/>
<ellipse cx="1352.09" cy="240.5" rx="4.08642" ry="4.09348" transform="rotate(90 1352.09 240.5)" fill="#FF1D31"/>
<ellipse cx="1426.64" cy="259.103" rx="4.08642" ry="4.09348" transform="rotate(90 1426.64 259.103)" fill="#FF1D31"/>
<ellipse cx="1408" cy="259.103" rx="4.08642" ry="4.09348" transform="rotate(90 1408 259.103)" fill="#FF1D31"/>
<ellipse cx="1389.36" cy="259.103" rx="4.08642" ry="4.09348" transform="rotate(90 1389.36 259.103)" fill="#FF1D31"/>
<ellipse cx="1370.73" cy="259.103" rx="4.08642" ry="4.09348" transform="rotate(90 1370.73 259.103)" fill="#FF1D31"/>
<ellipse cx="1352.09" cy="259.103" rx="4.08642" ry="4.09348" transform="rotate(90 1352.09 259.103)" fill="#FF1D31"/>
<ellipse cx="1426.64" cy="277.707" rx="4.08642" ry="4.09348" transform="rotate(90 1426.64 277.707)" fill="#FF1D31"/>
<ellipse cx="1408" cy="277.707" rx="4.08642" ry="4.09348" transform="rotate(90 1408 277.707)" fill="#FF1D31"/>
<ellipse cx="1389.36" cy="277.707" rx="4.08642" ry="4.09348" transform="rotate(90 1389.36 277.707)" fill="#FF1D31"/>
<ellipse cx="1370.73" cy="277.707" rx="4.08642" ry="4.09348" transform="rotate(90 1370.73 277.707)" fill="#FF1D31"/>
<ellipse cx="1352.09" cy="277.707" rx="4.08642" ry="4.09348" transform="rotate(90 1352.09 277.707)" fill="#FF1D31"/>
<ellipse cx="1426.64" cy="296.31" rx="4.08642" ry="4.09348" transform="rotate(90 1426.64 296.31)" fill="#FF1D31"/>
<ellipse cx="1408" cy="296.31" rx="4.08642" ry="4.09348" transform="rotate(90 1408 296.31)" fill="#FF1D31"/>
<ellipse cx="1389.36" cy="296.31" rx="4.08642" ry="4.09348" transform="rotate(90 1389.36 296.31)" fill="#FF1D31"/>
<ellipse cx="1370.73" cy="296.31" rx="4.08642" ry="4.09348" transform="rotate(90 1370.73 296.31)" fill="#FF1D31"/>
<ellipse cx="1352.09" cy="296.31" rx="4.08642" ry="4.09348" transform="rotate(90 1352.09 296.31)" fill="#FF1D31"/>
<ellipse cx="1426.64" cy="314.914" rx="4.08642" ry="4.09348" transform="rotate(90 1426.64 314.914)" fill="#FF1D31"/>
<ellipse cx="1408" cy="314.914" rx="4.08642" ry="4.09348" transform="rotate(90 1408 314.914)" fill="#FF1D31"/>
<ellipse cx="1389.36" cy="314.914" rx="4.08642" ry="4.09348" transform="rotate(90 1389.36 314.914)" fill="#FF1D31"/>
<ellipse cx="1370.73" cy="314.914" rx="4.08642" ry="4.09348" transform="rotate(90 1370.73 314.914)" fill="#FF1D31"/>
<ellipse cx="1352.09" cy="314.914" rx="4.08642" ry="4.09348" transform="rotate(90 1352.09 314.914)" fill="#FF1D31"/>
</g>
<g opacity="0.1">
<ellipse cx="105.907" cy="637.086" rx="4.08642" ry="4.09348" transform="rotate(90 105.907 637.086)" fill="#FF1D31"/>
<ellipse cx="87.271" cy="637.086" rx="4.08642" ry="4.09348" transform="rotate(90 87.271 637.086)" fill="#FF1D31"/>
<ellipse cx="68.6355" cy="637.086" rx="4.08642" ry="4.09348" transform="rotate(90 68.6355 637.086)" fill="#FF1D31"/>
<ellipse cx="50" cy="637.086" rx="4.08642" ry="4.09348" transform="rotate(90 50 637.086)" fill="#FF1D31"/>
<ellipse cx="31.3645" cy="637.086" rx="4.08642" ry="4.09348" transform="rotate(90 31.3645 637.086)" fill="#FF1D31"/>
<ellipse cx="12.729" cy="637.086" rx="4.08642" ry="4.09348" transform="rotate(90 12.729 637.086)" fill="#FF1D31"/>
<ellipse cx="105.907" cy="655.69" rx="4.08642" ry="4.09348" transform="rotate(90 105.907 655.69)" fill="#FF1D31"/>
<ellipse cx="87.271" cy="655.69" rx="4.08642" ry="4.09348" transform="rotate(90 87.271 655.69)" fill="#FF1D31"/>
<ellipse cx="68.6355" cy="655.69" rx="4.08642" ry="4.09348" transform="rotate(90 68.6355 655.69)" fill="#FF1D31"/>
<ellipse cx="50" cy="655.69" rx="4.08642" ry="4.09348" transform="rotate(90 50 655.69)" fill="#FF1D31"/>
<ellipse cx="31.3645" cy="655.69" rx="4.08642" ry="4.09348" transform="rotate(90 31.3645 655.69)" fill="#FF1D31"/>
<ellipse cx="12.729" cy="655.69" rx="4.08642" ry="4.09348" transform="rotate(90 12.729 655.69)" fill="#FF1D31"/>
<ellipse cx="105.907" cy="674.293" rx="4.08642" ry="4.09348" transform="rotate(90 105.907 674.293)" fill="#FF1D31"/>
<ellipse cx="87.271" cy="674.293" rx="4.08642" ry="4.09348" transform="rotate(90 87.271 674.293)" fill="#FF1D31"/>
<ellipse cx="68.6355" cy="674.293" rx="4.08642" ry="4.09348" transform="rotate(90 68.6355 674.293)" fill="#FF1D31"/>
<ellipse cx="50" cy="674.293" rx="4.08642" ry="4.09348" transform="rotate(90 50 674.293)" fill="#FF1D31"/>
<ellipse cx="31.3645" cy="674.293" rx="4.08642" ry="4.09348" transform="rotate(90 31.3645 674.293)" fill="#FF1D31"/>
<ellipse cx="12.729" cy="674.293" rx="4.08642" ry="4.09348" transform="rotate(90 12.729 674.293)" fill="#FF1D31"/>
<ellipse cx="105.907" cy="692.897" rx="4.08642" ry="4.09348" transform="rotate(90 105.907 692.897)" fill="#FF1D31"/>
<ellipse cx="87.271" cy="692.897" rx="4.08642" ry="4.09348" transform="rotate(90 87.271 692.897)" fill="#FF1D31"/>
<ellipse cx="68.6355" cy="692.897" rx="4.08642" ry="4.09348" transform="rotate(90 68.6355 692.897)" fill="#FF1D31"/>
<ellipse cx="50" cy="692.897" rx="4.08642" ry="4.09348" transform="rotate(90 50 692.897)" fill="#FF1D31"/>
<ellipse cx="31.3645" cy="692.897" rx="4.08642" ry="4.09348" transform="rotate(90 31.3645 692.897)" fill="#FF1D31"/>
<ellipse cx="12.729" cy="692.897" rx="4.08642" ry="4.09348" transform="rotate(90 12.729 692.897)" fill="#FF1D31"/>
<ellipse cx="105.907" cy="711.5" rx="4.08642" ry="4.09348" transform="rotate(90 105.907 711.5)" fill="#FF1D31"/>
<ellipse cx="87.271" cy="711.5" rx="4.08642" ry="4.09348" transform="rotate(90 87.271 711.5)" fill="#FF1D31"/>
<ellipse cx="68.6355" cy="711.5" rx="4.08642" ry="4.09348" transform="rotate(90 68.6355 711.5)" fill="#FF1D31"/>
<ellipse cx="50" cy="711.5" rx="4.08642" ry="4.09348" transform="rotate(90 50 711.5)" fill="#FF1D31"/>
<ellipse cx="31.3645" cy="711.5" rx="4.08642" ry="4.09348" transform="rotate(90 31.3645 711.5)" fill="#FF1D31"/>
<ellipse cx="12.729" cy="711.5" rx="4.08642" ry="4.09348" transform="rotate(90 12.729 711.5)" fill="#FF1D31"/>
<ellipse cx="105.907" cy="730.103" rx="4.08642" ry="4.09348" transform="rotate(90 105.907 730.103)" fill="#FF1D31"/>
<ellipse cx="87.271" cy="730.103" rx="4.08642" ry="4.09348" transform="rotate(90 87.271 730.103)" fill="#FF1D31"/>
<ellipse cx="68.6355" cy="730.103" rx="4.08642" ry="4.09348" transform="rotate(90 68.6355 730.103)" fill="#FF1D31"/>
<ellipse cx="50" cy="730.103" rx="4.08642" ry="4.09348" transform="rotate(90 50 730.103)" fill="#FF1D31"/>
<ellipse cx="31.3645" cy="730.103" rx="4.08642" ry="4.09348" transform="rotate(90 31.3645 730.103)" fill="#FF1D31"/>
<ellipse cx="12.729" cy="730.103" rx="4.08642" ry="4.09348" transform="rotate(90 12.729 730.103)" fill="#FF1D31"/>
<ellipse cx="105.907" cy="748.707" rx="4.08642" ry="4.09348" transform="rotate(90 105.907 748.707)" fill="#FF1D31"/>
<ellipse cx="87.271" cy="748.707" rx="4.08642" ry="4.09348" transform="rotate(90 87.271 748.707)" fill="#FF1D31"/>
<ellipse cx="68.6355" cy="748.707" rx="4.08642" ry="4.09348" transform="rotate(90 68.6355 748.707)" fill="#FF1D31"/>
<ellipse cx="50" cy="748.707" rx="4.08642" ry="4.09348" transform="rotate(90 50 748.707)" fill="#FF1D31"/>
<ellipse cx="31.3645" cy="748.707" rx="4.08642" ry="4.09348" transform="rotate(90 31.3645 748.707)" fill="#FF1D31"/>
<ellipse cx="12.729" cy="748.707" rx="4.08642" ry="4.09348" transform="rotate(90 12.729 748.707)" fill="#FF1D31"/>
<ellipse cx="105.907" cy="767.31" rx="4.08642" ry="4.09348" transform="rotate(90 105.907 767.31)" fill="#FF1D31"/>
<ellipse cx="87.271" cy="767.31" rx="4.08642" ry="4.09348" transform="rotate(90 87.271 767.31)" fill="#FF1D31"/>
<ellipse cx="68.6355" cy="767.31" rx="4.08642" ry="4.09348" transform="rotate(90 68.6355 767.31)" fill="#FF1D31"/>
<ellipse cx="50" cy="767.31" rx="4.08642" ry="4.09348" transform="rotate(90 50 767.31)" fill="#FF1D31"/>
<ellipse cx="31.3645" cy="767.31" rx="4.08642" ry="4.09348" transform="rotate(90 31.3645 767.31)" fill="#FF1D31"/>
<ellipse cx="12.729" cy="767.31" rx="4.08642" ry="4.09348" transform="rotate(90 12.729 767.31)" fill="#FF1D31"/>
<ellipse cx="105.907" cy="785.914" rx="4.08642" ry="4.09348" transform="rotate(90 105.907 785.914)" fill="#FF1D31"/>
<ellipse cx="87.271" cy="785.914" rx="4.08642" ry="4.09348" transform="rotate(90 87.271 785.914)" fill="#FF1D31"/>
<ellipse cx="68.6355" cy="785.914" rx="4.08642" ry="4.09348" transform="rotate(90 68.6355 785.914)" fill="#FF1D31"/>
<ellipse cx="50" cy="785.914" rx="4.08642" ry="4.09348" transform="rotate(90 50 785.914)" fill="#FF1D31"/>
<ellipse cx="31.3645" cy="785.914" rx="4.08642" ry="4.09348" transform="rotate(90 31.3645 785.914)" fill="#FF1D31"/>
<ellipse cx="12.729" cy="785.914" rx="4.08642" ry="4.09348" transform="rotate(90 12.729 785.914)" fill="#FF1D31"/>
</g>
<defs>
<linearGradient id="paint0_linear_0_1" x1="204336" y1="903549" x2="196349" y2="1.11074e+06" gradientUnits="userSpaceOnUse">
<stop stop-color="#FF1C30"/>
<stop offset="1" stop-color="#E5173D"/>
</linearGradient>
<linearGradient id="paint1_linear_0_1" x1="203289" y1="902946" x2="195302" y2="1.11014e+06" gradientUnits="userSpaceOnUse">
<stop stop-color="#FF1C30"/>
<stop offset="1" stop-color="#E5173D"/>
</linearGradient>
</defs>
</svg>
