<svg width="360" height="800" viewBox="0 0 360 800" fill="none" xmlns="http://www.w3.org/2000/svg">
<rect width="360" height="800" fill="white"/>
<mask id="mask0_602_3695" style="mask-type:alpha" maskUnits="userSpaceOnUse" x="0" y="0" width="360" height="800">
<rect width="360" height="800" fill="#F4F5F7"/>
</mask>
<g mask="url(#mask0_602_3695)">
<path opacity="0.1" d="M532.919 551.827L532.863 551.771C492.037 510.955 425.845 510.955 385.02 551.771L89.1639 847.557C48.338 888.373 48.3381 954.549 89.164 995.366L89.2201 995.422C130.046 1036.24 196.238 1036.24 237.064 995.422L532.919 699.636C573.745 658.82 573.745 592.643 532.919 551.827Z" fill="url(#paint0_linear_602_3695)"/>
<path opacity="0.1" d="M180.678 348.961L180.622 348.904C139.796 308.088 73.6042 308.088 32.7783 348.904L-263.077 644.69C-303.903 685.507 -303.903 751.683 -263.077 792.499L-263.021 792.555C-222.195 833.372 -156.003 833.372 -115.178 792.555L180.678 496.769C221.504 455.953 221.504 389.777 180.678 348.961Z" fill="url(#paint1_linear_602_3695)"/>
<g opacity="0.1">
<ellipse cx="318.907" cy="82.0864" rx="4.08642" ry="4.09348" transform="rotate(90 318.907 82.0864)" fill="#FF1D31"/>
<ellipse cx="300.271" cy="82.0864" rx="4.08642" ry="4.09348" transform="rotate(90 300.271 82.0864)" fill="#FF1D31"/>
<ellipse cx="281.635" cy="82.0864" rx="4.08642" ry="4.09348" transform="rotate(90 281.635 82.0864)" fill="#FF1D31"/>
<ellipse cx="263" cy="82.0864" rx="4.08642" ry="4.09348" transform="rotate(90 263 82.0864)" fill="#FF1D31"/>
<ellipse cx="244.365" cy="82.0864" rx="4.08642" ry="4.09348" transform="rotate(90 244.365 82.0864)" fill="#FF1D31"/>
<ellipse cx="225.729" cy="82.0864" rx="4.08642" ry="4.09348" transform="rotate(90 225.729 82.0864)" fill="#FF1D31"/>
<ellipse cx="207.093" cy="82.0864" rx="4.08642" ry="4.09348" transform="rotate(90 207.093 82.0864)" fill="#FF1D31"/>
<ellipse cx="318.907" cy="100.69" rx="4.08642" ry="4.09348" transform="rotate(90 318.907 100.69)" fill="#FF1D31"/>
<ellipse cx="300.271" cy="100.69" rx="4.08642" ry="4.09348" transform="rotate(90 300.271 100.69)" fill="#FF1D31"/>
<ellipse cx="281.635" cy="100.69" rx="4.08642" ry="4.09348" transform="rotate(90 281.635 100.69)" fill="#FF1D31"/>
<ellipse cx="263" cy="100.69" rx="4.08642" ry="4.09348" transform="rotate(90 263 100.69)" fill="#FF1D31"/>
<ellipse cx="244.365" cy="100.69" rx="4.08642" ry="4.09348" transform="rotate(90 244.365 100.69)" fill="#FF1D31"/>
<ellipse cx="225.729" cy="100.69" rx="4.08642" ry="4.09348" transform="rotate(90 225.729 100.69)" fill="#FF1D31"/>
<ellipse cx="207.093" cy="100.69" rx="4.08642" ry="4.09348" transform="rotate(90 207.093 100.69)" fill="#FF1D31"/>
<ellipse cx="318.907" cy="119.293" rx="4.08642" ry="4.09348" transform="rotate(90 318.907 119.293)" fill="#FF1D31"/>
<ellipse cx="300.271" cy="119.293" rx="4.08642" ry="4.09348" transform="rotate(90 300.271 119.293)" fill="#FF1D31"/>
<ellipse cx="281.635" cy="119.293" rx="4.08642" ry="4.09348" transform="rotate(90 281.635 119.293)" fill="#FF1D31"/>
<ellipse cx="263" cy="119.293" rx="4.08642" ry="4.09348" transform="rotate(90 263 119.293)" fill="#FF1D31"/>
<ellipse cx="244.365" cy="119.293" rx="4.08642" ry="4.09348" transform="rotate(90 244.365 119.293)" fill="#FF1D31"/>
<ellipse cx="225.729" cy="119.293" rx="4.08642" ry="4.09348" transform="rotate(90 225.729 119.293)" fill="#FF1D31"/>
<ellipse cx="207.093" cy="119.293" rx="4.08642" ry="4.09348" transform="rotate(90 207.093 119.293)" fill="#FF1D31"/>
<ellipse cx="318.907" cy="137.897" rx="4.08642" ry="4.09348" transform="rotate(90 318.907 137.897)" fill="#FF1D31"/>
<ellipse cx="300.271" cy="137.897" rx="4.08642" ry="4.09348" transform="rotate(90 300.271 137.897)" fill="#FF1D31"/>
<ellipse cx="281.636" cy="137.897" rx="4.08642" ry="4.09348" transform="rotate(90 281.636 137.897)" fill="#FF1D31"/>
<ellipse cx="263" cy="137.897" rx="4.08642" ry="4.09348" transform="rotate(90 263 137.897)" fill="#FF1D31"/>
<ellipse cx="244.365" cy="137.897" rx="4.08642" ry="4.09348" transform="rotate(90 244.365 137.897)" fill="#FF1D31"/>
<ellipse cx="225.729" cy="137.897" rx="4.08642" ry="4.09348" transform="rotate(90 225.729 137.897)" fill="#FF1D31"/>
<ellipse cx="207.093" cy="137.897" rx="4.08642" ry="4.09348" transform="rotate(90 207.093 137.897)" fill="#FF1D31"/>
<ellipse cx="318.907" cy="156.5" rx="4.08642" ry="4.09348" transform="rotate(90 318.907 156.5)" fill="#FF1D31"/>
<ellipse cx="300.271" cy="156.5" rx="4.08642" ry="4.09348" transform="rotate(90 300.271 156.5)" fill="#FF1D31"/>
<ellipse cx="281.636" cy="156.5" rx="4.08642" ry="4.09348" transform="rotate(90 281.636 156.5)" fill="#FF1D31"/>
<ellipse cx="263" cy="156.5" rx="4.08642" ry="4.09348" transform="rotate(90 263 156.5)" fill="#FF1D31"/>
<ellipse cx="244.365" cy="156.5" rx="4.08642" ry="4.09348" transform="rotate(90 244.365 156.5)" fill="#FF1D31"/>
<ellipse cx="225.729" cy="156.5" rx="4.08642" ry="4.09348" transform="rotate(90 225.729 156.5)" fill="#FF1D31"/>
<ellipse cx="207.093" cy="156.5" rx="4.08642" ry="4.09348" transform="rotate(90 207.093 156.5)" fill="#FF1D31"/>
<ellipse cx="318.907" cy="175.103" rx="4.08642" ry="4.09348" transform="rotate(90 318.907 175.103)" fill="#FF1D31"/>
<ellipse cx="300.271" cy="175.103" rx="4.08642" ry="4.09348" transform="rotate(90 300.271 175.103)" fill="#FF1D31"/>
<ellipse cx="281.635" cy="175.103" rx="4.08642" ry="4.09348" transform="rotate(90 281.635 175.103)" fill="#FF1D31"/>
<ellipse cx="263" cy="175.103" rx="4.08642" ry="4.09348" transform="rotate(90 263 175.103)" fill="#FF1D31"/>
<ellipse cx="244.365" cy="175.103" rx="4.08642" ry="4.09348" transform="rotate(90 244.365 175.103)" fill="#FF1D31"/>
<ellipse cx="225.729" cy="175.103" rx="4.08642" ry="4.09348" transform="rotate(90 225.729 175.103)" fill="#FF1D31"/>
<ellipse cx="207.093" cy="175.103" rx="4.08642" ry="4.09348" transform="rotate(90 207.093 175.103)" fill="#FF1D31"/>
<ellipse cx="318.907" cy="193.707" rx="4.08642" ry="4.09348" transform="rotate(90 318.907 193.707)" fill="#FF1D31"/>
<ellipse cx="300.271" cy="193.707" rx="4.08642" ry="4.09348" transform="rotate(90 300.271 193.707)" fill="#FF1D31"/>
<ellipse cx="281.635" cy="193.707" rx="4.08642" ry="4.09348" transform="rotate(90 281.635 193.707)" fill="#FF1D31"/>
<ellipse cx="263" cy="193.707" rx="4.08642" ry="4.09348" transform="rotate(90 263 193.707)" fill="#FF1D31"/>
<ellipse cx="244.365" cy="193.707" rx="4.08642" ry="4.09348" transform="rotate(90 244.365 193.707)" fill="#FF1D31"/>
<ellipse cx="225.729" cy="193.707" rx="4.08642" ry="4.09348" transform="rotate(90 225.729 193.707)" fill="#FF1D31"/>
<ellipse cx="207.093" cy="193.707" rx="4.08642" ry="4.09348" transform="rotate(90 207.093 193.707)" fill="#FF1D31"/>
<ellipse cx="318.907" cy="212.31" rx="4.08642" ry="4.09348" transform="rotate(90 318.907 212.31)" fill="#FF1D31"/>
<ellipse cx="300.271" cy="212.31" rx="4.08642" ry="4.09348" transform="rotate(90 300.271 212.31)" fill="#FF1D31"/>
<ellipse cx="281.635" cy="212.31" rx="4.08642" ry="4.09348" transform="rotate(90 281.635 212.31)" fill="#FF1D31"/>
<ellipse cx="263" cy="212.31" rx="4.08642" ry="4.09348" transform="rotate(90 263 212.31)" fill="#FF1D31"/>
<ellipse cx="244.365" cy="212.31" rx="4.08642" ry="4.09348" transform="rotate(90 244.365 212.31)" fill="#FF1D31"/>
<ellipse cx="225.729" cy="212.31" rx="4.08642" ry="4.09348" transform="rotate(90 225.729 212.31)" fill="#FF1D31"/>
<ellipse cx="207.093" cy="212.31" rx="4.08642" ry="4.09348" transform="rotate(90 207.093 212.31)" fill="#FF1D31"/>
<ellipse cx="318.907" cy="230.914" rx="4.08642" ry="4.09348" transform="rotate(90 318.907 230.914)" fill="#FF1D31"/>
<ellipse cx="300.271" cy="230.914" rx="4.08642" ry="4.09348" transform="rotate(90 300.271 230.914)" fill="#FF1D31"/>
<ellipse cx="281.636" cy="230.914" rx="4.08642" ry="4.09348" transform="rotate(90 281.636 230.914)" fill="#FF1D31"/>
<ellipse cx="263" cy="230.914" rx="4.08642" ry="4.09348" transform="rotate(90 263 230.914)" fill="#FF1D31"/>
<ellipse cx="244.365" cy="230.914" rx="4.08642" ry="4.09348" transform="rotate(90 244.365 230.914)" fill="#FF1D31"/>
<ellipse cx="225.729" cy="230.914" rx="4.08642" ry="4.09348" transform="rotate(90 225.729 230.914)" fill="#FF1D31"/>
<ellipse cx="207.093" cy="230.914" rx="4.08642" ry="4.09348" transform="rotate(90 207.093 230.914)" fill="#FF1D31"/>
<ellipse cx="355.997" cy="82.0864" rx="4.08642" ry="4.09348" transform="rotate(90 355.997 82.0864)" fill="#FF1D31"/>
<ellipse cx="337.362" cy="82.0864" rx="4.08642" ry="4.09348" transform="rotate(90 337.362 82.0864)" fill="#FF1D31"/>
<ellipse cx="355.997" cy="100.69" rx="4.08642" ry="4.09348" transform="rotate(90 355.997 100.69)" fill="#FF1D31"/>
<ellipse cx="337.362" cy="100.69" rx="4.08642" ry="4.09348" transform="rotate(90 337.362 100.69)" fill="#FF1D31"/>
<ellipse cx="355.997" cy="119.293" rx="4.08642" ry="4.09348" transform="rotate(90 355.997 119.293)" fill="#FF1D31"/>
<ellipse cx="337.362" cy="119.293" rx="4.08642" ry="4.09348" transform="rotate(90 337.362 119.293)" fill="#FF1D31"/>
<ellipse cx="355.997" cy="137.897" rx="4.08642" ry="4.09348" transform="rotate(90 355.997 137.897)" fill="#FF1D31"/>
<ellipse cx="337.362" cy="137.897" rx="4.08642" ry="4.09348" transform="rotate(90 337.362 137.897)" fill="#FF1D31"/>
<ellipse cx="355.997" cy="156.5" rx="4.08642" ry="4.09348" transform="rotate(90 355.997 156.5)" fill="#FF1D31"/>
<ellipse cx="337.362" cy="156.5" rx="4.08642" ry="4.09348" transform="rotate(90 337.362 156.5)" fill="#FF1D31"/>
<ellipse cx="355.997" cy="175.103" rx="4.08642" ry="4.09348" transform="rotate(90 355.997 175.103)" fill="#FF1D31"/>
<ellipse cx="337.362" cy="175.103" rx="4.08642" ry="4.09348" transform="rotate(90 337.362 175.103)" fill="#FF1D31"/>
<ellipse cx="355.997" cy="193.707" rx="4.08642" ry="4.09348" transform="rotate(90 355.997 193.707)" fill="#FF1D31"/>
<ellipse cx="337.362" cy="193.707" rx="4.08642" ry="4.09348" transform="rotate(90 337.362 193.707)" fill="#FF1D31"/>
<ellipse cx="355.997" cy="212.31" rx="4.08642" ry="4.09348" transform="rotate(90 355.997 212.31)" fill="#FF1D31"/>
<ellipse cx="337.362" cy="212.31" rx="4.08642" ry="4.09348" transform="rotate(90 337.362 212.31)" fill="#FF1D31"/>
<ellipse cx="355.997" cy="230.914" rx="4.08642" ry="4.09348" transform="rotate(90 355.997 230.914)" fill="#FF1D31"/>
<ellipse cx="337.362" cy="230.914" rx="4.08642" ry="4.09348" transform="rotate(90 337.362 230.914)" fill="#FF1D31"/>
</g>
<g opacity="0.1">
<ellipse cx="105.907" cy="578.086" rx="4.08642" ry="4.09348" transform="rotate(90 105.907 578.086)" fill="#FF1D31"/>
<ellipse cx="87.2708" cy="578.086" rx="4.08642" ry="4.09348" transform="rotate(90 87.2708 578.086)" fill="#FF1D31"/>
<ellipse cx="68.635" cy="578.086" rx="4.08642" ry="4.09348" transform="rotate(90 68.635 578.086)" fill="#FF1D31"/>
<ellipse cx="50.0003" cy="578.086" rx="4.08642" ry="4.09348" transform="rotate(90 50.0003 578.086)" fill="#FF1D31"/>
<ellipse cx="31.3645" cy="578.086" rx="4.08642" ry="4.09348" transform="rotate(90 31.3645 578.086)" fill="#FF1D31"/>
<ellipse cx="12.7288" cy="578.086" rx="4.08642" ry="4.09348" transform="rotate(90 12.7288 578.086)" fill="#FF1D31"/>
<ellipse cx="105.907" cy="596.69" rx="4.08642" ry="4.09348" transform="rotate(90 105.907 596.69)" fill="#FF1D31"/>
<ellipse cx="87.2708" cy="596.69" rx="4.08642" ry="4.09348" transform="rotate(90 87.2708 596.69)" fill="#FF1D31"/>
<ellipse cx="68.635" cy="596.69" rx="4.08642" ry="4.09348" transform="rotate(90 68.635 596.69)" fill="#FF1D31"/>
<ellipse cx="50.0003" cy="596.69" rx="4.08642" ry="4.09348" transform="rotate(90 50.0003 596.69)" fill="#FF1D31"/>
<ellipse cx="31.3645" cy="596.69" rx="4.08642" ry="4.09348" transform="rotate(90 31.3645 596.69)" fill="#FF1D31"/>
<ellipse cx="12.7288" cy="596.69" rx="4.08642" ry="4.09348" transform="rotate(90 12.7288 596.69)" fill="#FF1D31"/>
<ellipse cx="105.907" cy="615.293" rx="4.08642" ry="4.09348" transform="rotate(90 105.907 615.293)" fill="#FF1D31"/>
<ellipse cx="87.2708" cy="615.293" rx="4.08642" ry="4.09348" transform="rotate(90 87.2708 615.293)" fill="#FF1D31"/>
<ellipse cx="68.635" cy="615.293" rx="4.08642" ry="4.09348" transform="rotate(90 68.635 615.293)" fill="#FF1D31"/>
<ellipse cx="50.0003" cy="615.293" rx="4.08642" ry="4.09348" transform="rotate(90 50.0003 615.293)" fill="#FF1D31"/>
<ellipse cx="31.3645" cy="615.293" rx="4.08642" ry="4.09348" transform="rotate(90 31.3645 615.293)" fill="#FF1D31"/>
<ellipse cx="12.7288" cy="615.293" rx="4.08642" ry="4.09348" transform="rotate(90 12.7288 615.293)" fill="#FF1D31"/>
<ellipse cx="105.907" cy="633.897" rx="4.08642" ry="4.09348" transform="rotate(90 105.907 633.897)" fill="#FF1D31"/>
<ellipse cx="87.2708" cy="633.897" rx="4.08642" ry="4.09348" transform="rotate(90 87.2708 633.897)" fill="#FF1D31"/>
<ellipse cx="68.636" cy="633.897" rx="4.08642" ry="4.09348" transform="rotate(90 68.636 633.897)" fill="#FF1D31"/>
<ellipse cx="50.0003" cy="633.897" rx="4.08642" ry="4.09348" transform="rotate(90 50.0003 633.897)" fill="#FF1D31"/>
<ellipse cx="31.3645" cy="633.897" rx="4.08642" ry="4.09348" transform="rotate(90 31.3645 633.897)" fill="#FF1D31"/>
<ellipse cx="12.7288" cy="633.897" rx="4.08642" ry="4.09348" transform="rotate(90 12.7288 633.897)" fill="#FF1D31"/>
<ellipse cx="105.907" cy="652.5" rx="4.08642" ry="4.09348" transform="rotate(90 105.907 652.5)" fill="#FF1D31"/>
<ellipse cx="87.2708" cy="652.5" rx="4.08642" ry="4.09348" transform="rotate(90 87.2708 652.5)" fill="#FF1D31"/>
<ellipse cx="68.636" cy="652.5" rx="4.08642" ry="4.09348" transform="rotate(90 68.636 652.5)" fill="#FF1D31"/>
<ellipse cx="50.0003" cy="652.5" rx="4.08642" ry="4.09348" transform="rotate(90 50.0003 652.5)" fill="#FF1D31"/>
<ellipse cx="31.3645" cy="652.5" rx="4.08642" ry="4.09348" transform="rotate(90 31.3645 652.5)" fill="#FF1D31"/>
<ellipse cx="12.7288" cy="652.5" rx="4.08642" ry="4.09348" transform="rotate(90 12.7288 652.5)" fill="#FF1D31"/>
<ellipse cx="105.907" cy="671.103" rx="4.08642" ry="4.09348" transform="rotate(90 105.907 671.103)" fill="#FF1D31"/>
<ellipse cx="87.2708" cy="671.103" rx="4.08642" ry="4.09348" transform="rotate(90 87.2708 671.103)" fill="#FF1D31"/>
<ellipse cx="68.635" cy="671.103" rx="4.08642" ry="4.09348" transform="rotate(90 68.635 671.103)" fill="#FF1D31"/>
<ellipse cx="50.0003" cy="671.103" rx="4.08642" ry="4.09348" transform="rotate(90 50.0003 671.103)" fill="#FF1D31"/>
<ellipse cx="31.3645" cy="671.103" rx="4.08642" ry="4.09348" transform="rotate(90 31.3645 671.103)" fill="#FF1D31"/>
<ellipse cx="12.7288" cy="671.103" rx="4.08642" ry="4.09348" transform="rotate(90 12.7288 671.103)" fill="#FF1D31"/>
<ellipse cx="105.907" cy="689.707" rx="4.08642" ry="4.09348" transform="rotate(90 105.907 689.707)" fill="#FF1D31"/>
<ellipse cx="87.2708" cy="689.707" rx="4.08642" ry="4.09348" transform="rotate(90 87.2708 689.707)" fill="#FF1D31"/>
<ellipse cx="68.635" cy="689.707" rx="4.08642" ry="4.09348" transform="rotate(90 68.635 689.707)" fill="#FF1D31"/>
<ellipse cx="50.0003" cy="689.707" rx="4.08642" ry="4.09348" transform="rotate(90 50.0003 689.707)" fill="#FF1D31"/>
<ellipse cx="31.3645" cy="689.707" rx="4.08642" ry="4.09348" transform="rotate(90 31.3645 689.707)" fill="#FF1D31"/>
<ellipse cx="12.7288" cy="689.707" rx="4.08642" ry="4.09348" transform="rotate(90 12.7288 689.707)" fill="#FF1D31"/>
<ellipse cx="105.907" cy="708.31" rx="4.08642" ry="4.09348" transform="rotate(90 105.907 708.31)" fill="#FF1D31"/>
<ellipse cx="87.2708" cy="708.31" rx="4.08642" ry="4.09348" transform="rotate(90 87.2708 708.31)" fill="#FF1D31"/>
<ellipse cx="68.635" cy="708.31" rx="4.08642" ry="4.09348" transform="rotate(90 68.635 708.31)" fill="#FF1D31"/>
<ellipse cx="50.0003" cy="708.31" rx="4.08642" ry="4.09348" transform="rotate(90 50.0003 708.31)" fill="#FF1D31"/>
<ellipse cx="31.3645" cy="708.31" rx="4.08642" ry="4.09348" transform="rotate(90 31.3645 708.31)" fill="#FF1D31"/>
<ellipse cx="12.7288" cy="708.31" rx="4.08642" ry="4.09348" transform="rotate(90 12.7288 708.31)" fill="#FF1D31"/>
<ellipse cx="105.907" cy="726.914" rx="4.08642" ry="4.09348" transform="rotate(90 105.907 726.914)" fill="#FF1D31"/>
<ellipse cx="87.2708" cy="726.914" rx="4.08642" ry="4.09348" transform="rotate(90 87.2708 726.914)" fill="#FF1D31"/>
<ellipse cx="68.636" cy="726.914" rx="4.08642" ry="4.09348" transform="rotate(90 68.636 726.914)" fill="#FF1D31"/>
<ellipse cx="50.0003" cy="726.914" rx="4.08642" ry="4.09348" transform="rotate(90 50.0003 726.914)" fill="#FF1D31"/>
<ellipse cx="31.3645" cy="726.914" rx="4.08642" ry="4.09348" transform="rotate(90 31.3645 726.914)" fill="#FF1D31"/>
<ellipse cx="12.7288" cy="726.914" rx="4.08642" ry="4.09348" transform="rotate(90 12.7288 726.914)" fill="#FF1D31"/>
</g>
</g>
<defs>
<linearGradient id="paint0_linear_602_3695" x1="68520.7" y1="304738" x2="65833.6" y2="374443" gradientUnits="userSpaceOnUse">
<stop stop-color="#FF1C30"/>
<stop offset="1" stop-color="#E5173D"/>
</linearGradient>
<linearGradient id="paint1_linear_602_3695" x1="68168.5" y1="304535" x2="65481.4" y2="374240" gradientUnits="userSpaceOnUse">
<stop stop-color="#FF1C30"/>
<stop offset="1" stop-color="#E5173D"/>
</linearGradient>
</defs>
</svg>
