<svg width="360" height="722" viewBox="0 0 360 722" fill="none" xmlns="http://www.w3.org/2000/svg">
<path opacity="0.1" d="M532.919 473.827L532.863 473.771C492.037 432.955 425.845 432.955 385.02 473.771L89.1639 769.557C48.338 810.373 48.3381 876.549 89.164 917.366L89.2201 917.422C130.046 958.238 196.238 958.238 237.064 917.422L532.919 621.636C573.745 580.82 573.745 514.643 532.919 473.827Z" fill="url(#paint0_linear_0_1)"/>
<path opacity="0.1" d="M180.678 270.961L180.622 270.904C139.796 230.088 73.6042 230.088 32.7783 270.904L-263.077 566.69C-303.903 607.507 -303.903 673.683 -263.077 714.499L-263.021 714.555C-222.195 755.372 -156.003 755.372 -115.178 714.555L180.678 418.769C221.504 377.953 221.504 311.777 180.678 270.961Z" fill="url(#paint1_linear_0_1)"/>
<g opacity="0.1">
<ellipse cx="318.907" cy="4.08642" rx="4.08642" ry="4.09348" transform="rotate(90 318.907 4.08642)" fill="#FF1D31"/>
<ellipse cx="300.271" cy="4.08642" rx="4.08642" ry="4.09348" transform="rotate(90 300.271 4.08642)" fill="#FF1D31"/>
<ellipse cx="281.635" cy="4.08642" rx="4.08642" ry="4.09348" transform="rotate(90 281.635 4.08642)" fill="#FF1D31"/>
<ellipse cx="263" cy="4.08642" rx="4.08642" ry="4.09348" transform="rotate(90 263 4.08642)" fill="#FF1D31"/>
<ellipse cx="244.365" cy="4.08642" rx="4.08642" ry="4.09348" transform="rotate(90 244.365 4.08642)" fill="#FF1D31"/>
<ellipse cx="225.729" cy="4.08642" rx="4.08642" ry="4.09348" transform="rotate(90 225.729 4.08642)" fill="#FF1D31"/>
<ellipse cx="207.093" cy="4.08642" rx="4.08642" ry="4.09348" transform="rotate(90 207.093 4.08642)" fill="#FF1D31"/>
<ellipse cx="318.907" cy="22.6898" rx="4.08642" ry="4.09348" transform="rotate(90 318.907 22.6898)" fill="#FF1D31"/>
<ellipse cx="300.271" cy="22.6898" rx="4.08642" ry="4.09348" transform="rotate(90 300.271 22.6898)" fill="#FF1D31"/>
<ellipse cx="281.635" cy="22.6898" rx="4.08642" ry="4.09348" transform="rotate(90 281.635 22.6898)" fill="#FF1D31"/>
<ellipse cx="263" cy="22.6898" rx="4.08642" ry="4.09348" transform="rotate(90 263 22.6898)" fill="#FF1D31"/>
<ellipse cx="244.365" cy="22.6898" rx="4.08642" ry="4.09348" transform="rotate(90 244.365 22.6898)" fill="#FF1D31"/>
<ellipse cx="225.729" cy="22.6898" rx="4.08642" ry="4.09348" transform="rotate(90 225.729 22.6898)" fill="#FF1D31"/>
<ellipse cx="207.093" cy="22.6898" rx="4.08642" ry="4.09348" transform="rotate(90 207.093 22.6898)" fill="#FF1D31"/>
<ellipse cx="318.907" cy="41.2932" rx="4.08642" ry="4.09348" transform="rotate(90 318.907 41.2932)" fill="#FF1D31"/>
<ellipse cx="300.271" cy="41.2932" rx="4.08642" ry="4.09348" transform="rotate(90 300.271 41.2932)" fill="#FF1D31"/>
<ellipse cx="281.635" cy="41.2932" rx="4.08642" ry="4.09348" transform="rotate(90 281.635 41.2932)" fill="#FF1D31"/>
<ellipse cx="263" cy="41.2932" rx="4.08642" ry="4.09348" transform="rotate(90 263 41.2932)" fill="#FF1D31"/>
<ellipse cx="244.365" cy="41.2932" rx="4.08642" ry="4.09348" transform="rotate(90 244.365 41.2932)" fill="#FF1D31"/>
<ellipse cx="225.729" cy="41.2932" rx="4.08642" ry="4.09348" transform="rotate(90 225.729 41.2932)" fill="#FF1D31"/>
<ellipse cx="207.093" cy="41.2932" rx="4.08642" ry="4.09348" transform="rotate(90 207.093 41.2932)" fill="#FF1D31"/>
<ellipse cx="318.907" cy="59.8966" rx="4.08642" ry="4.09348" transform="rotate(90 318.907 59.8966)" fill="#FF1D31"/>
<ellipse cx="300.271" cy="59.8966" rx="4.08642" ry="4.09348" transform="rotate(90 300.271 59.8966)" fill="#FF1D31"/>
<ellipse cx="281.636" cy="59.8966" rx="4.08642" ry="4.09348" transform="rotate(90 281.636 59.8966)" fill="#FF1D31"/>
<ellipse cx="263" cy="59.8966" rx="4.08642" ry="4.09348" transform="rotate(90 263 59.8966)" fill="#FF1D31"/>
<ellipse cx="244.365" cy="59.8966" rx="4.08642" ry="4.09348" transform="rotate(90 244.365 59.8966)" fill="#FF1D31"/>
<ellipse cx="225.729" cy="59.8966" rx="4.08642" ry="4.09348" transform="rotate(90 225.729 59.8966)" fill="#FF1D31"/>
<ellipse cx="207.093" cy="59.8966" rx="4.08642" ry="4.09348" transform="rotate(90 207.093 59.8966)" fill="#FF1D31"/>
<ellipse cx="318.907" cy="78.5" rx="4.08642" ry="4.09348" transform="rotate(90 318.907 78.5)" fill="#FF1D31"/>
<ellipse cx="300.271" cy="78.5" rx="4.08642" ry="4.09348" transform="rotate(90 300.271 78.5)" fill="#FF1D31"/>
<ellipse cx="281.636" cy="78.5" rx="4.08642" ry="4.09348" transform="rotate(90 281.636 78.5)" fill="#FF1D31"/>
<ellipse cx="263" cy="78.5" rx="4.08642" ry="4.09348" transform="rotate(90 263 78.5)" fill="#FF1D31"/>
<ellipse cx="244.365" cy="78.5" rx="4.08642" ry="4.09348" transform="rotate(90 244.365 78.5)" fill="#FF1D31"/>
<ellipse cx="225.729" cy="78.5" rx="4.08642" ry="4.09348" transform="rotate(90 225.729 78.5)" fill="#FF1D31"/>
<ellipse cx="207.093" cy="78.5" rx="4.08642" ry="4.09348" transform="rotate(90 207.093 78.5)" fill="#FF1D31"/>
<ellipse cx="318.907" cy="97.1034" rx="4.08642" ry="4.09348" transform="rotate(90 318.907 97.1034)" fill="#FF1D31"/>
<ellipse cx="300.271" cy="97.1034" rx="4.08642" ry="4.09348" transform="rotate(90 300.271 97.1034)" fill="#FF1D31"/>
<ellipse cx="281.635" cy="97.1034" rx="4.08642" ry="4.09348" transform="rotate(90 281.635 97.1034)" fill="#FF1D31"/>
<ellipse cx="263" cy="97.1034" rx="4.08642" ry="4.09348" transform="rotate(90 263 97.1034)" fill="#FF1D31"/>
<ellipse cx="244.365" cy="97.1034" rx="4.08642" ry="4.09348" transform="rotate(90 244.365 97.1034)" fill="#FF1D31"/>
<ellipse cx="225.729" cy="97.1034" rx="4.08642" ry="4.09348" transform="rotate(90 225.729 97.1034)" fill="#FF1D31"/>
<ellipse cx="207.093" cy="97.1034" rx="4.08642" ry="4.09348" transform="rotate(90 207.093 97.1034)" fill="#FF1D31"/>
<ellipse cx="318.907" cy="115.707" rx="4.08642" ry="4.09348" transform="rotate(90 318.907 115.707)" fill="#FF1D31"/>
<ellipse cx="300.271" cy="115.707" rx="4.08642" ry="4.09348" transform="rotate(90 300.271 115.707)" fill="#FF1D31"/>
<ellipse cx="281.635" cy="115.707" rx="4.08642" ry="4.09348" transform="rotate(90 281.635 115.707)" fill="#FF1D31"/>
<ellipse cx="263" cy="115.707" rx="4.08642" ry="4.09348" transform="rotate(90 263 115.707)" fill="#FF1D31"/>
<ellipse cx="244.365" cy="115.707" rx="4.08642" ry="4.09348" transform="rotate(90 244.365 115.707)" fill="#FF1D31"/>
<ellipse cx="225.729" cy="115.707" rx="4.08642" ry="4.09348" transform="rotate(90 225.729 115.707)" fill="#FF1D31"/>
<ellipse cx="207.093" cy="115.707" rx="4.08642" ry="4.09348" transform="rotate(90 207.093 115.707)" fill="#FF1D31"/>
<ellipse cx="318.907" cy="134.31" rx="4.08642" ry="4.09348" transform="rotate(90 318.907 134.31)" fill="#FF1D31"/>
<ellipse cx="300.271" cy="134.31" rx="4.08642" ry="4.09348" transform="rotate(90 300.271 134.31)" fill="#FF1D31"/>
<ellipse cx="281.635" cy="134.31" rx="4.08642" ry="4.09348" transform="rotate(90 281.635 134.31)" fill="#FF1D31"/>
<ellipse cx="263" cy="134.31" rx="4.08642" ry="4.09348" transform="rotate(90 263 134.31)" fill="#FF1D31"/>
<ellipse cx="244.365" cy="134.31" rx="4.08642" ry="4.09348" transform="rotate(90 244.365 134.31)" fill="#FF1D31"/>
<ellipse cx="225.729" cy="134.31" rx="4.08642" ry="4.09348" transform="rotate(90 225.729 134.31)" fill="#FF1D31"/>
<ellipse cx="207.093" cy="134.31" rx="4.08642" ry="4.09348" transform="rotate(90 207.093 134.31)" fill="#FF1D31"/>
<ellipse cx="318.907" cy="152.914" rx="4.08642" ry="4.09348" transform="rotate(90 318.907 152.914)" fill="#FF1D31"/>
<ellipse cx="300.271" cy="152.914" rx="4.08642" ry="4.09348" transform="rotate(90 300.271 152.914)" fill="#FF1D31"/>
<ellipse cx="281.636" cy="152.914" rx="4.08642" ry="4.09348" transform="rotate(90 281.636 152.914)" fill="#FF1D31"/>
<ellipse cx="263" cy="152.914" rx="4.08642" ry="4.09348" transform="rotate(90 263 152.914)" fill="#FF1D31"/>
<ellipse cx="244.365" cy="152.914" rx="4.08642" ry="4.09348" transform="rotate(90 244.365 152.914)" fill="#FF1D31"/>
<ellipse cx="225.729" cy="152.914" rx="4.08642" ry="4.09348" transform="rotate(90 225.729 152.914)" fill="#FF1D31"/>
<ellipse cx="207.093" cy="152.914" rx="4.08642" ry="4.09348" transform="rotate(90 207.093 152.914)" fill="#FF1D31"/>
<ellipse cx="355.997" cy="4.08642" rx="4.08642" ry="4.09348" transform="rotate(90 355.997 4.08642)" fill="#FF1D31"/>
<ellipse cx="337.362" cy="4.08642" rx="4.08642" ry="4.09348" transform="rotate(90 337.362 4.08642)" fill="#FF1D31"/>
<ellipse cx="355.997" cy="22.6898" rx="4.08642" ry="4.09348" transform="rotate(90 355.997 22.6898)" fill="#FF1D31"/>
<ellipse cx="337.362" cy="22.6898" rx="4.08642" ry="4.09348" transform="rotate(90 337.362 22.6898)" fill="#FF1D31"/>
<ellipse cx="355.997" cy="41.2932" rx="4.08642" ry="4.09348" transform="rotate(90 355.997 41.2932)" fill="#FF1D31"/>
<ellipse cx="337.362" cy="41.2932" rx="4.08642" ry="4.09348" transform="rotate(90 337.362 41.2932)" fill="#FF1D31"/>
<ellipse cx="355.997" cy="59.8966" rx="4.08642" ry="4.09348" transform="rotate(90 355.997 59.8966)" fill="#FF1D31"/>
<ellipse cx="337.362" cy="59.8966" rx="4.08642" ry="4.09348" transform="rotate(90 337.362 59.8966)" fill="#FF1D31"/>
<ellipse cx="355.997" cy="78.5" rx="4.08642" ry="4.09348" transform="rotate(90 355.997 78.5)" fill="#FF1D31"/>
<ellipse cx="337.362" cy="78.5" rx="4.08642" ry="4.09348" transform="rotate(90 337.362 78.5)" fill="#FF1D31"/>
<ellipse cx="355.997" cy="97.1034" rx="4.08642" ry="4.09348" transform="rotate(90 355.997 97.1034)" fill="#FF1D31"/>
<ellipse cx="337.362" cy="97.1034" rx="4.08642" ry="4.09348" transform="rotate(90 337.362 97.1034)" fill="#FF1D31"/>
<ellipse cx="355.997" cy="115.707" rx="4.08642" ry="4.09348" transform="rotate(90 355.997 115.707)" fill="#FF1D31"/>
<ellipse cx="337.362" cy="115.707" rx="4.08642" ry="4.09348" transform="rotate(90 337.362 115.707)" fill="#FF1D31"/>
<ellipse cx="355.997" cy="134.31" rx="4.08642" ry="4.09348" transform="rotate(90 355.997 134.31)" fill="#FF1D31"/>
<ellipse cx="337.362" cy="134.31" rx="4.08642" ry="4.09348" transform="rotate(90 337.362 134.31)" fill="#FF1D31"/>
<ellipse cx="355.997" cy="152.914" rx="4.08642" ry="4.09348" transform="rotate(90 355.997 152.914)" fill="#FF1D31"/>
<ellipse cx="337.362" cy="152.914" rx="4.08642" ry="4.09348" transform="rotate(90 337.362 152.914)" fill="#FF1D31"/>
</g>
<g opacity="0.1">
<ellipse cx="105.907" cy="500.086" rx="4.08642" ry="4.09348" transform="rotate(90 105.907 500.086)" fill="#FF1D31"/>
<ellipse cx="87.2708" cy="500.086" rx="4.08642" ry="4.09348" transform="rotate(90 87.2708 500.086)" fill="#FF1D31"/>
<ellipse cx="68.635" cy="500.086" rx="4.08642" ry="4.09348" transform="rotate(90 68.635 500.086)" fill="#FF1D31"/>
<ellipse cx="50.0003" cy="500.086" rx="4.08642" ry="4.09348" transform="rotate(90 50.0003 500.086)" fill="#FF1D31"/>
<ellipse cx="31.3645" cy="500.086" rx="4.08642" ry="4.09348" transform="rotate(90 31.3645 500.086)" fill="#FF1D31"/>
<ellipse cx="12.7288" cy="500.086" rx="4.08642" ry="4.09348" transform="rotate(90 12.7288 500.086)" fill="#FF1D31"/>
<ellipse cx="105.907" cy="518.69" rx="4.08642" ry="4.09348" transform="rotate(90 105.907 518.69)" fill="#FF1D31"/>
<ellipse cx="87.2708" cy="518.69" rx="4.08642" ry="4.09348" transform="rotate(90 87.2708 518.69)" fill="#FF1D31"/>
<ellipse cx="68.635" cy="518.69" rx="4.08642" ry="4.09348" transform="rotate(90 68.635 518.69)" fill="#FF1D31"/>
<ellipse cx="50.0003" cy="518.69" rx="4.08642" ry="4.09348" transform="rotate(90 50.0003 518.69)" fill="#FF1D31"/>
<ellipse cx="31.3645" cy="518.69" rx="4.08642" ry="4.09348" transform="rotate(90 31.3645 518.69)" fill="#FF1D31"/>
<ellipse cx="12.7288" cy="518.69" rx="4.08642" ry="4.09348" transform="rotate(90 12.7288 518.69)" fill="#FF1D31"/>
<ellipse cx="105.907" cy="537.293" rx="4.08642" ry="4.09348" transform="rotate(90 105.907 537.293)" fill="#FF1D31"/>
<ellipse cx="87.2708" cy="537.293" rx="4.08642" ry="4.09348" transform="rotate(90 87.2708 537.293)" fill="#FF1D31"/>
<ellipse cx="68.635" cy="537.293" rx="4.08642" ry="4.09348" transform="rotate(90 68.635 537.293)" fill="#FF1D31"/>
<ellipse cx="50.0003" cy="537.293" rx="4.08642" ry="4.09348" transform="rotate(90 50.0003 537.293)" fill="#FF1D31"/>
<ellipse cx="31.3645" cy="537.293" rx="4.08642" ry="4.09348" transform="rotate(90 31.3645 537.293)" fill="#FF1D31"/>
<ellipse cx="12.7288" cy="537.293" rx="4.08642" ry="4.09348" transform="rotate(90 12.7288 537.293)" fill="#FF1D31"/>
<ellipse cx="105.907" cy="555.897" rx="4.08642" ry="4.09348" transform="rotate(90 105.907 555.897)" fill="#FF1D31"/>
<ellipse cx="87.2708" cy="555.897" rx="4.08642" ry="4.09348" transform="rotate(90 87.2708 555.897)" fill="#FF1D31"/>
<ellipse cx="68.636" cy="555.897" rx="4.08642" ry="4.09348" transform="rotate(90 68.636 555.897)" fill="#FF1D31"/>
<ellipse cx="50.0003" cy="555.897" rx="4.08642" ry="4.09348" transform="rotate(90 50.0003 555.897)" fill="#FF1D31"/>
<ellipse cx="31.3645" cy="555.897" rx="4.08642" ry="4.09348" transform="rotate(90 31.3645 555.897)" fill="#FF1D31"/>
<ellipse cx="12.7288" cy="555.897" rx="4.08642" ry="4.09348" transform="rotate(90 12.7288 555.897)" fill="#FF1D31"/>
<ellipse cx="105.907" cy="574.5" rx="4.08642" ry="4.09348" transform="rotate(90 105.907 574.5)" fill="#FF1D31"/>
<ellipse cx="87.2708" cy="574.5" rx="4.08642" ry="4.09348" transform="rotate(90 87.2708 574.5)" fill="#FF1D31"/>
<ellipse cx="68.636" cy="574.5" rx="4.08642" ry="4.09348" transform="rotate(90 68.636 574.5)" fill="#FF1D31"/>
<ellipse cx="50.0003" cy="574.5" rx="4.08642" ry="4.09348" transform="rotate(90 50.0003 574.5)" fill="#FF1D31"/>
<ellipse cx="31.3645" cy="574.5" rx="4.08642" ry="4.09348" transform="rotate(90 31.3645 574.5)" fill="#FF1D31"/>
<ellipse cx="12.7288" cy="574.5" rx="4.08642" ry="4.09348" transform="rotate(90 12.7288 574.5)" fill="#FF1D31"/>
<ellipse cx="105.907" cy="593.103" rx="4.08642" ry="4.09348" transform="rotate(90 105.907 593.103)" fill="#FF1D31"/>
<ellipse cx="87.2708" cy="593.103" rx="4.08642" ry="4.09348" transform="rotate(90 87.2708 593.103)" fill="#FF1D31"/>
<ellipse cx="68.635" cy="593.103" rx="4.08642" ry="4.09348" transform="rotate(90 68.635 593.103)" fill="#FF1D31"/>
<ellipse cx="50.0003" cy="593.103" rx="4.08642" ry="4.09348" transform="rotate(90 50.0003 593.103)" fill="#FF1D31"/>
<ellipse cx="31.3645" cy="593.103" rx="4.08642" ry="4.09348" transform="rotate(90 31.3645 593.103)" fill="#FF1D31"/>
<ellipse cx="12.7288" cy="593.103" rx="4.08642" ry="4.09348" transform="rotate(90 12.7288 593.103)" fill="#FF1D31"/>
<ellipse cx="105.907" cy="611.707" rx="4.08642" ry="4.09348" transform="rotate(90 105.907 611.707)" fill="#FF1D31"/>
<ellipse cx="87.2708" cy="611.707" rx="4.08642" ry="4.09348" transform="rotate(90 87.2708 611.707)" fill="#FF1D31"/>
<ellipse cx="68.635" cy="611.707" rx="4.08642" ry="4.09348" transform="rotate(90 68.635 611.707)" fill="#FF1D31"/>
<ellipse cx="50.0003" cy="611.707" rx="4.08642" ry="4.09348" transform="rotate(90 50.0003 611.707)" fill="#FF1D31"/>
<ellipse cx="31.3645" cy="611.707" rx="4.08642" ry="4.09348" transform="rotate(90 31.3645 611.707)" fill="#FF1D31"/>
<ellipse cx="12.7288" cy="611.707" rx="4.08642" ry="4.09348" transform="rotate(90 12.7288 611.707)" fill="#FF1D31"/>
<ellipse cx="105.907" cy="630.31" rx="4.08642" ry="4.09348" transform="rotate(90 105.907 630.31)" fill="#FF1D31"/>
<ellipse cx="87.2708" cy="630.31" rx="4.08642" ry="4.09348" transform="rotate(90 87.2708 630.31)" fill="#FF1D31"/>
<ellipse cx="68.635" cy="630.31" rx="4.08642" ry="4.09348" transform="rotate(90 68.635 630.31)" fill="#FF1D31"/>
<ellipse cx="50.0003" cy="630.31" rx="4.08642" ry="4.09348" transform="rotate(90 50.0003 630.31)" fill="#FF1D31"/>
<ellipse cx="31.3645" cy="630.31" rx="4.08642" ry="4.09348" transform="rotate(90 31.3645 630.31)" fill="#FF1D31"/>
<ellipse cx="12.7288" cy="630.31" rx="4.08642" ry="4.09348" transform="rotate(90 12.7288 630.31)" fill="#FF1D31"/>
<ellipse cx="105.907" cy="648.914" rx="4.08642" ry="4.09348" transform="rotate(90 105.907 648.914)" fill="#FF1D31"/>
<ellipse cx="87.2708" cy="648.914" rx="4.08642" ry="4.09348" transform="rotate(90 87.2708 648.914)" fill="#FF1D31"/>
<ellipse cx="68.636" cy="648.914" rx="4.08642" ry="4.09348" transform="rotate(90 68.636 648.914)" fill="#FF1D31"/>
<ellipse cx="50.0003" cy="648.914" rx="4.08642" ry="4.09348" transform="rotate(90 50.0003 648.914)" fill="#FF1D31"/>
<ellipse cx="31.3645" cy="648.914" rx="4.08642" ry="4.09348" transform="rotate(90 31.3645 648.914)" fill="#FF1D31"/>
<ellipse cx="12.7288" cy="648.914" rx="4.08642" ry="4.09348" transform="rotate(90 12.7288 648.914)" fill="#FF1D31"/>
</g>
<defs>
<linearGradient id="paint0_linear_0_1" x1="68520.7" y1="304660" x2="65833.6" y2="374365" gradientUnits="userSpaceOnUse">
<stop stop-color="#FF1C30"/>
<stop offset="1" stop-color="#E5173D"/>
</linearGradient>
<linearGradient id="paint1_linear_0_1" x1="68168.5" y1="304457" x2="65481.4" y2="374162" gradientUnits="userSpaceOnUse">
<stop stop-color="#FF1C30"/>
<stop offset="1" stop-color="#E5173D"/>
</linearGradient>
</defs>
</svg>
