<svg width="14" height="14" viewBox="0 0 14 14" fill="none" xmlns="http://www.w3.org/2000/svg">
<path d="M11.7512 11.7543H9.7525V8.6215C9.7525 7.8745 9.7375 6.913 8.71 6.913C7.66825 6.913 7.50925 7.726 7.50925 8.56675V11.7543H5.50975V5.3125H7.42975V6.19H7.456C7.7245 5.6845 8.377 5.14975 9.352 5.14975C11.377 5.14975 11.752 6.48325 11.752 8.218V11.7543H11.7512ZM3.25225 4.43125C3.09967 4.43145 2.94854 4.40153 2.80755 4.3432C2.66655 4.28488 2.53845 4.1993 2.43059 4.09138C2.32273 3.98345 2.23724 3.85529 2.17901 3.71426C2.12078 3.57322 2.09095 3.42208 2.09125 3.2695C2.0914 3.03988 2.15963 2.81545 2.28733 2.62461C2.41503 2.43377 2.59645 2.28508 2.80865 2.19734C3.02085 2.1096 3.2543 2.08676 3.47949 2.13171C3.70467 2.17665 3.91147 2.28736 4.07373 2.44983C4.23599 2.6123 4.34644 2.81925 4.39109 3.04449C4.43574 3.26973 4.4126 3.50315 4.32459 3.71524C4.23658 3.92733 4.08765 4.10855 3.89664 4.236C3.70564 4.36345 3.48112 4.4314 3.2515 4.43125H3.25225ZM4.25425 11.7543H2.2495V5.3125H4.255V11.7543H4.25425ZM12.7525 0.25H1.24675C0.69475 0.25 0.25 0.685 0.25 1.22275V12.7772C0.25 13.315 0.6955 13.75 1.246 13.75H12.7495C13.3 13.75 13.75 13.315 13.75 12.7772V1.22275C13.75 0.685 13.3 0.25 12.7495 0.25H12.7518H12.7525Z" fill="#393951"/>
</svg>
