<svg width="270" height="48" viewBox="0 0 270 48" fill="none" xmlns="http://www.w3.org/2000/svg">
<path d="M111.162 34.6961V35.1025H103.703L97.5789 25.0873H93.5994V35.1025H87.2368V6.72351H100.216C106.258 6.72351 109.913 10.9406 109.913 15.7618C109.913 19.8634 107.764 22.9395 104.318 24.3192L111.162 34.6961ZM93.5994 19.4085H99.8875C102.442 19.4085 103.375 17.5852 103.375 15.7991C103.375 14.0988 102.36 12.3948 99.8875 12.3948H93.5994V19.4085Z" fill="#393951"/>
<path d="M113.392 24.5204C113.392 18.1556 117.163 13.5357 123.977 13.5357C130.791 13.5357 134.558 18.1556 134.558 24.5204C134.558 30.8853 130.869 35.4678 123.977 35.4678C117.085 35.4678 113.392 30.8853 113.392 24.5204ZM128.191 24.5204C128.191 20.6687 126.569 19.0057 123.977 19.0057C121.385 19.0057 119.759 20.7134 119.759 24.5204C119.759 28.3274 121.422 29.9941 123.977 29.9941C126.532 29.9941 128.188 28.3721 128.188 24.5204H128.191Z" fill="#393951"/>
<path d="M137.399 24.5204C137.399 18.1556 141.17 13.5357 147.98 13.5357C154.79 13.5357 158.565 18.1556 158.565 24.5204C158.565 30.8853 154.876 35.4678 147.98 35.4678C141.084 35.4678 137.399 30.8853 137.399 24.5204ZM152.198 24.5204C152.198 20.6687 150.576 19.0057 147.98 19.0057C145.384 19.0057 143.766 20.7097 143.766 24.5204C143.766 28.3311 145.429 29.9941 147.98 29.9941C150.531 29.9941 152.198 28.3721 152.198 24.5204Z" fill="#393951"/>
<path d="M164.648 28.6966V19.2221H161.201V13.8975H164.931V9.47902L170.484 8.36041H170.891V13.9124H175.963V19.2221H170.895V27.2089C170.895 29.1926 171.745 30.0464 173.61 30.0464C174.303 30.0442 174.99 29.9179 175.639 29.6736H176.045V34.8639C174.652 35.2879 173.201 35.4929 171.745 35.4717C166.841 35.468 164.648 32.5484 164.648 28.6966Z" fill="#393951"/>
<path d="M180.651 4.98694H186.92V35.1035H180.651V4.98694Z" fill="#393951"/>
<path d="M190.885 24.5204C190.885 18.1556 194.656 13.5357 201.47 13.5357C208.283 13.5357 212.054 18.1556 212.054 24.5204C212.054 30.8853 208.362 35.4678 201.47 35.4678C194.577 35.4678 190.885 30.8853 190.885 24.5204ZM205.688 24.5204C205.688 20.6687 204.065 19.0057 201.47 19.0057C198.874 19.0057 197.251 20.7097 197.251 24.5204C197.251 28.3311 198.915 29.9941 201.47 29.9941C204.024 29.9941 205.688 28.3721 205.688 24.5204Z" fill="#393951"/>
<path d="M215.5 38.2792H221.624C221.784 39.6961 223.205 40.7514 225.152 40.7514C227.908 40.7514 229.288 39.2934 229.288 37.3955V33.074H229.124C228.11 34.2933 226.491 35.4678 223.489 35.4678C218.137 35.4678 214.911 30.8443 214.911 24.5204C214.911 18.1966 218.156 13.5357 223.489 13.5357C226.491 13.5357 228.11 14.7102 229.124 15.9258H229.288L229.937 13.8974H235.532V37.4664C235.532 42.776 231.056 46.102 225.152 46.102C219.435 46.102 215.623 43.0631 215.5 38.2792ZM229.572 24.5204C229.572 21.5598 228.475 19.0057 225.395 19.0057C222.314 19.0057 221.218 21.5598 221.218 24.5204C221.218 27.481 222.232 29.9941 225.395 29.9941C228.557 29.9941 229.572 27.481 229.572 24.5204Z" fill="#393951"/>
<path d="M239.384 8.10408C239.384 5.86687 240.682 4.49472 243.155 4.49472C245.549 4.49472 246.929 5.87433 246.929 8.10408C246.929 10.3338 245.549 11.7507 243.155 11.7507C240.682 11.7656 239.384 10.3749 239.384 8.10408ZM239.992 13.8984H246.239V35.1035H239.992V13.8984Z" fill="#393951"/>
<path d="M249.685 24.4794C249.685 18.0735 253.415 13.5357 260.188 13.5357C266.476 13.5357 269.717 17.3464 270 22.2496H263.716C263.515 20.3853 262.224 19.0057 260.188 19.0057C257.551 19.0057 256.052 20.6687 256.052 24.4794C256.052 28.2901 257.543 29.9941 260.188 29.9941C262.217 29.9941 263.515 28.6145 263.716 26.7502H270C269.717 31.6571 266.513 35.4678 260.352 35.4678C253.579 35.4678 249.685 30.9263 249.685 24.4794Z" fill="#393951"/>
<path d="M45.457 13.5814L45.4544 13.5787C43.5362 11.661 40.4262 11.661 38.508 13.5787L24.6073 27.4761C22.6892 29.3939 22.6891 32.5031 24.6073 34.4209L24.61 34.4235C26.5282 36.3412 29.6382 36.3412 31.5564 34.4235L45.457 20.5261C47.3752 18.6084 47.3752 15.4991 45.457 13.5814Z" fill="url(#paint0_linear_989_7644)"/>
<path d="M24.3228 12.6627L24.3201 12.6601C22.4019 10.7423 19.2919 10.7423 17.3737 12.6601L3.47306 26.5575C1.55487 28.4752 1.55487 31.5845 3.47306 33.5022L3.4757 33.5048C5.39389 35.4226 8.50389 35.4226 10.4221 33.5048L24.3227 19.6074C26.2409 17.6897 26.2409 14.5804 24.3228 12.6627Z" fill="url(#paint1_linear_989_7644)"/>
<path d="M66.584 14.4978L66.5813 14.4952C64.6632 12.5774 61.5532 12.5774 59.635 14.4952L45.7343 28.3926C43.8161 30.3103 43.8161 33.4196 45.7343 35.3373L45.7369 35.3399C47.6551 37.2577 50.7651 37.2577 52.6833 35.3399L66.584 21.4425C68.5022 19.5248 68.5022 16.4155 66.584 14.4978Z" fill="url(#paint2_linear_989_7644)"/>
<path d="M55.561 3.47583L55.5584 3.47319C53.6402 1.555 50.5302 1.555 48.612 3.47318L48.6094 3.47582C46.6912 5.39401 46.6912 8.50402 48.6094 10.4222L48.612 10.4248C50.5302 12.343 53.6402 12.343 55.5584 10.4248L55.561 10.4222C57.4792 8.50401 57.4792 5.39402 55.561 3.47583Z" fill="url(#paint3_linear_989_7644)"/>
<path d="M21.4521 37.5806L21.4494 37.578C19.531 35.66 16.4207 35.66 14.5022 37.578L14.4996 37.5806C12.5812 39.4986 12.5812 42.6082 14.4996 44.5262L14.5022 44.5288C16.4207 46.4468 19.531 46.4468 21.4494 44.5288L21.4521 44.5262C23.3705 42.6082 23.3705 39.4986 21.4521 37.5806Z" fill="url(#paint4_linear_989_7644)"/>
<defs>
<linearGradient id="paint0_linear_989_7644" x1="3239.84" y1="14305.6" x2="3113.59" y2="17580.7" gradientUnits="userSpaceOnUse">
<stop stop-color="#FF1C30"/>
<stop offset="1" stop-color="#E5173D"/>
</linearGradient>
<linearGradient id="paint1_linear_989_7644" x1="3218.71" y1="14304.7" x2="3092.46" y2="17579.8" gradientUnits="userSpaceOnUse">
<stop stop-color="#FF1C30"/>
<stop offset="1" stop-color="#E5173D"/>
</linearGradient>
<linearGradient id="paint2_linear_989_7644" x1="3260.97" y1="14306.5" x2="3134.71" y2="17581.6" gradientUnits="userSpaceOnUse">
<stop stop-color="#FF1C30"/>
<stop offset="1" stop-color="#E5173D"/>
</linearGradient>
<linearGradient id="paint3_linear_989_7644" x1="6950.3" y1="10598.6" x2="6285.55" y2="11856.7" gradientUnits="userSpaceOnUse">
<stop stop-color="#FF1C30"/>
<stop offset="1" stop-color="#E5173D"/>
</linearGradient>
<linearGradient id="paint4_linear_989_7644" x1="6916.99" y1="10631.4" x2="6252.41" y2="11889.5" gradientUnits="userSpaceOnUse">
<stop stop-color="#FF1C30"/>
<stop offset="1" stop-color="#E5173D"/>
</linearGradient>
</defs>
</svg>
