<svg width="172" height="30" viewBox="0 0 172 30" fill="none" xmlns="http://www.w3.org/2000/svg">
<path d="M70.8139 21.3455V21.5955H66.0622L62.161 15.434H59.626V21.5955H55.5728V4.13638H63.8408C67.6897 4.13638 70.018 6.73082 70.018 9.69688C70.018 12.2202 68.6495 14.1127 66.4542 14.9615L70.8139 21.3455ZM59.626 11.9404H63.6317C65.2592 11.9404 65.8531 10.8186 65.8531 9.71982C65.8531 8.67379 65.2069 7.62546 63.6317 7.62546H59.626V11.9404Z" fill="#393951"/>
<path d="M72.2349 15.0853C72.2349 11.1695 74.6369 8.32733 78.9776 8.32733C83.3183 8.32733 85.7179 11.1695 85.7179 15.0853C85.7179 19.001 83.3682 21.8203 78.9776 21.8203C74.587 21.8203 72.2349 19.001 72.2349 15.0853ZM81.6623 15.0853C81.6623 12.7156 80.6288 11.6925 78.9776 11.6925C77.3263 11.6925 76.2905 12.7432 76.2905 15.0853C76.2905 17.4274 77.3501 18.4528 78.9776 18.4528C80.605 18.4528 81.6599 17.4549 81.6599 15.0853H81.6623Z" fill="#393951"/>
<path d="M87.5283 15.0853C87.5283 11.1695 89.9303 8.32733 94.2686 8.32733C98.607 8.32733 101.011 11.1695 101.011 15.0853C101.011 19.001 98.6616 21.8203 94.2686 21.8203C89.8757 21.8203 87.5283 19.001 87.5283 15.0853ZM96.9557 15.0853C96.9557 12.7156 95.9222 11.6925 94.2686 11.6925C92.615 11.6925 91.5839 12.7409 91.5839 15.0853C91.5839 17.4297 92.6436 18.4528 94.2686 18.4528C95.8937 18.4528 96.9557 17.4549 96.9557 15.0853Z" fill="#393951"/>
<path d="M104.887 17.6546V11.8257H102.691V8.54992H105.067V5.83161L108.605 5.14343H108.864V8.55911H112.095V11.8257H108.866V16.7393C108.866 17.9597 109.408 18.485 110.596 18.485C111.037 18.4836 111.475 18.4059 111.888 18.2556H112.147V21.4487C111.26 21.7096 110.336 21.8357 109.408 21.8227C106.284 21.8204 104.887 20.0242 104.887 17.6546Z" fill="#393951"/>
<path d="M115.082 3.06802H119.075V21.5962H115.082V3.06802Z" fill="#393951"/>
<path d="M121.601 15.0853C121.601 11.1695 124.003 8.32733 128.344 8.32733C132.685 8.32733 135.087 11.1695 135.087 15.0853C135.087 19.001 132.734 21.8203 128.344 21.8203C123.953 21.8203 121.601 19.001 121.601 15.0853ZM131.031 15.0853C131.031 12.7156 129.997 11.6925 128.344 11.6925C126.69 11.6925 125.657 12.7409 125.657 15.0853C125.657 17.4297 126.716 18.4528 128.344 18.4528C129.971 18.4528 131.031 17.4549 131.031 15.0853Z" fill="#393951"/>
<path d="M137.282 23.5499H141.183C141.285 24.4216 142.19 25.0708 143.43 25.0708C145.186 25.0708 146.065 24.1738 146.065 23.0062V20.3476H145.961C145.314 21.0977 144.283 21.8203 142.371 21.8203C138.961 21.8203 136.906 18.9758 136.906 15.0853C136.906 11.1948 138.973 8.32733 142.371 8.32733C144.283 8.32733 145.314 9.04992 145.961 9.79774H146.065L146.479 8.54984H150.042V23.0498C150.042 26.3164 147.191 28.3626 143.43 28.3626C139.788 28.3626 137.36 26.493 137.282 23.5499ZM146.246 15.0853C146.246 13.2639 145.547 11.6925 143.585 11.6925C141.622 11.6925 140.924 13.2639 140.924 15.0853C140.924 16.9067 141.57 18.4528 143.585 18.4528C145.6 18.4528 146.246 16.9067 146.246 15.0853Z" fill="#393951"/>
<path d="M152.497 4.98573C152.497 3.60937 153.323 2.7652 154.899 2.7652C156.424 2.7652 157.303 3.61395 157.303 4.98573C157.303 6.3575 156.424 7.2292 154.899 7.2292C153.323 7.23837 152.497 6.38274 152.497 4.98573ZM152.884 8.5505H156.863V21.5961H152.884V8.5505Z" fill="#393951"/>
<path d="M159.059 15.06C159.059 11.119 161.434 8.32733 165.749 8.32733C169.755 8.32733 171.819 10.6717 172 13.6883H167.997C167.868 12.5413 167.046 11.6925 165.749 11.6925C164.069 11.6925 163.114 12.7156 163.114 15.06C163.114 17.4044 164.065 18.4528 165.749 18.4528C167.042 18.4528 167.868 17.604 167.997 16.457H172C171.819 19.4759 169.779 21.8203 165.854 21.8203C161.539 21.8203 159.059 19.0263 159.059 15.06Z" fill="#393951"/>
<path d="M28.9579 8.35547L28.9562 8.35384C27.7342 7.17402 25.7531 7.17402 24.5311 8.35384L15.6759 16.9037C14.4539 18.0835 14.4539 19.9964 15.6759 21.1762L15.6775 21.1778C16.8995 22.3577 18.8807 22.3577 20.1026 21.1778L28.9579 12.628C30.1798 11.4481 30.1798 9.53529 28.9579 8.35547Z" fill="url(#paint0_linear_1003_5959)"/>
<path d="M15.4945 7.79025L15.4928 7.78862C14.2709 6.60881 12.2897 6.60881 11.0677 7.78863L2.21249 16.3385C0.990529 17.5183 0.990532 19.4312 2.21249 20.611L2.21417 20.6126C3.43613 21.7924 5.41731 21.7924 6.63926 20.6126L15.4945 12.0628C16.7165 10.8829 16.7165 8.97007 15.4945 7.79025Z" fill="url(#paint1_linear_1003_5959)"/>
<path d="M42.4164 8.91925L42.4147 8.91762C41.1927 7.7378 39.2116 7.7378 37.9896 8.91762L29.1344 17.4675C27.9124 18.6473 27.9124 20.5602 29.1344 21.74L29.136 21.7416C30.358 22.9214 32.3392 22.9214 33.5611 21.7416L42.4164 13.1917C43.6383 12.0119 43.6383 10.0991 42.4164 8.91925Z" fill="url(#paint2_linear_1003_5959)"/>
<path d="M35.3944 2.13838L35.3927 2.13676C34.1708 0.95666 32.1896 0.956655 30.9676 2.13675L30.9659 2.13838C29.744 3.31847 29.744 5.23179 30.9659 6.41189L30.9676 6.41351C32.1896 7.59361 34.1708 7.5936 35.3927 6.41351L35.3944 6.41188C36.6164 5.23179 36.6164 3.31848 35.3944 2.13838Z" fill="url(#paint3_linear_1003_5959)"/>
<path d="M13.6657 23.1201L13.664 23.1185C12.4419 21.9385 10.4605 21.9385 9.23836 23.1185L9.23668 23.1201C8.01458 24.3001 8.01458 26.2132 9.23669 27.3931L9.23836 27.3947C10.4605 28.5747 12.4419 28.5747 13.664 27.3947L13.6657 27.3931C14.8878 26.2132 14.8878 24.3001 13.6657 23.1201Z" fill="url(#paint4_linear_1003_5959)"/>
<defs>
<linearGradient id="paint0_linear_1003_5959" x1="2063.9" y1="8801.03" x2="1988.88" y2="10816.1" gradientUnits="userSpaceOnUse">
<stop stop-color="#FF1C30"/>
<stop offset="1" stop-color="#E5173D"/>
</linearGradient>
<linearGradient id="paint1_linear_1003_5959" x1="2050.43" y1="8800.46" x2="1975.42" y2="10815.5" gradientUnits="userSpaceOnUse">
<stop stop-color="#FF1C30"/>
<stop offset="1" stop-color="#E5173D"/>
</linearGradient>
<linearGradient id="paint2_linear_1003_5959" x1="2077.36" y1="8801.59" x2="2002.34" y2="10816.7" gradientUnits="userSpaceOnUse">
<stop stop-color="#FF1C30"/>
<stop offset="1" stop-color="#E5173D"/>
</linearGradient>
<linearGradient id="paint3_linear_1003_5959" x1="4427.59" y1="6520.38" x2="4026.75" y2="7305.93" gradientUnits="userSpaceOnUse">
<stop stop-color="#FF1C30"/>
<stop offset="1" stop-color="#E5173D"/>
</linearGradient>
<linearGradient id="paint4_linear_1003_5959" x1="4406.38" y1="6540.59" x2="4005.64" y2="7326.12" gradientUnits="userSpaceOnUse">
<stop stop-color="#FF1C30"/>
<stop offset="1" stop-color="#E5173D"/>
</linearGradient>
</defs>
</svg>
