<svg width="1440" height="800" viewBox="0 0 1440 800" fill="none" xmlns="http://www.w3.org/2000/svg">
<mask id="mask0_989_7682" style="mask-type:alpha" maskUnits="userSpaceOnUse" x="0" y="0" width="1440" height="800">
<rect width="1440" height="800" fill="#F7E2ED"/>
</mask>
<g mask="url(#mask0_989_7682)">
<path d="M849.769 676.976C854.233 677.887 851.802 690.049 850.491 695.537C847.962 706.121 825.707 697.976 829.178 688.472C832.797 678.566 845.543 676.114 849.769 676.976Z" fill="#393951"/>
<path fill-rule="evenodd" clip-rule="evenodd" d="M1184.64 515.123C1182.81 512.138 1182.58 508.987 1185.57 505.797C1193.68 497.147 1217.93 502.593 1246.77 509.068C1257.05 511.376 1267.92 513.815 1278.84 515.793C1535.6 541.766 1736 758.573 1736 1022.19C1736 1303.3 1508.11 1531.19 1227 1531.19C945.887 1531.19 718 1303.3 718 1022.19C718 922.535 718.092 865.543 767.585 787.049C812.202 706.57 879.027 639.675 956.749 592.148C966.888 583.53 986.176 566.816 995.013 557.979C1005.18 547.817 1015.47 550.182 1020.91 558.426C1073.28 535.121 1128.82 520.198 1184.64 515.123Z" fill="url(#paint0_linear_989_7682)"/>
<path fill-rule="evenodd" clip-rule="evenodd" d="M1289.06 150.556C1272.46 143.035 1260.29 134.084 1261.89 130.562C1262.94 128.24 1269.72 128.859 1278.97 131.708C1277.37 133.367 1276.09 135.331 1275.23 137.504C1279.95 139.73 1282 140.607 1291 144.646C1300 148.686 1302.69 149.723 1308.15 152.028C1309.09 150.091 1309.69 147.96 1309.88 145.712C1318.13 150.79 1323.06 155.474 1322.01 157.796C1320.41 161.318 1305.66 158.076 1289.06 150.556Z" fill="#FF8A01"/>
<path d="M1273.95 144.179C1273.95 154.121 1282.01 162.179 1291.95 162.179C1301.89 162.179 1309.95 154.121 1309.95 144.179C1309.95 134.238 1301.89 126.179 1291.95 126.179C1282.01 126.179 1273.95 134.238 1273.95 144.179Z" fill="#393951"/>
<path fill-rule="evenodd" clip-rule="evenodd" d="M1289.06 150.556C1272.46 143.035 1260.29 134.084 1261.89 130.562C1262.94 128.24 1269.72 128.859 1278.97 131.708C1277.37 133.367 1276.09 135.331 1275.23 137.504C1279.95 139.73 1282 140.607 1291 144.646C1300 148.686 1302.69 149.723 1308.15 152.028C1309.09 150.091 1309.69 147.96 1309.88 145.712C1318.13 150.79 1323.06 155.474 1322.01 157.796C1320.41 161.318 1305.66 158.076 1289.06 150.556Z" fill="#393951"/>
<path fill-rule="evenodd" clip-rule="evenodd" d="M683.986 685.858C688.848 677.856 695.673 673.687 698.478 672.603C699.691 675.354 701.56 683.131 699.328 692.224C696.539 703.591 686.669 725.83 685.894 726.15C685.85 726.168 685.816 726.237 685.789 726.351L689.417 749.248L676.008 744.101C671.982 752.927 663.739 766.628 661.961 760.859C660.759 756.956 662.315 747.818 664.255 739.591L651.959 734.872L660.757 727.747C662.288 726.238 664.018 724.667 665.529 723.295L665.529 723.295C667.798 721.234 669.575 719.62 669.455 719.33C669.135 718.554 677.908 695.861 683.986 685.858Z" fill="url(#paint1_linear_989_7682)"/>
<path d="M849.5 518.686C845.5 521.086 845.5 523.186 845 524.686C844.5 523.686 844 521.586 840 519.186C843 516.186 843.5 515.186 844.5 513.186C845 514.186 845.5 516.286 849.5 518.686Z" fill="#393951"/>
<path d="M845 524.686L844.553 524.91L845.093 525.989L845.474 524.844L845 524.686ZM849.5 518.686L849.757 519.115L850.472 518.686L849.757 518.257L849.5 518.686ZM844.5 513.186L844.947 512.963L844.5 512.068L844.053 512.963L844.5 513.186ZM840 519.186L839.646 518.833L839.194 519.285L839.743 519.615L840 519.186ZM845.474 524.844C845.759 523.992 845.84 523.228 846.375 522.266C846.886 521.347 847.815 520.28 849.757 519.115L849.243 518.257C847.185 519.492 846.114 520.676 845.5 521.781C844.91 522.844 844.741 523.881 844.526 524.528L845.474 524.844ZM844.053 513.41C844.268 513.84 844.564 514.711 845.282 515.704C846.015 516.717 847.194 517.885 849.243 519.115L849.757 518.257C847.806 517.087 846.735 516.006 846.093 515.118C845.436 514.211 845.232 513.532 844.947 512.963L844.053 513.41ZM845.447 524.463C845.232 524.032 844.936 523.161 844.218 522.168C843.485 521.156 842.306 519.987 840.257 518.757L839.743 519.615C841.694 520.785 842.765 521.867 843.407 522.754C844.064 523.661 844.268 524.34 844.553 524.91L845.447 524.463ZM844.053 512.963C843.552 513.965 843.192 514.682 842.593 515.521C841.992 516.363 841.139 517.34 839.646 518.833L840.354 519.54C841.861 518.032 842.758 517.01 843.407 516.102C844.058 515.191 844.448 514.408 844.947 513.41L844.053 512.963Z" fill="#393951"/>
<path d="M874.5 197.686C870.5 200.086 870.5 202.186 870 203.686C869.5 202.686 869 200.586 865 198.186C868 195.186 868.5 194.186 869.5 192.186C870 193.186 870.5 195.286 874.5 197.686Z" fill="#393951"/>
<path d="M870 203.686L869.553 203.91L870.093 204.989L870.474 203.844L870 203.686ZM874.5 197.686L874.757 198.115L875.472 197.686L874.757 197.257L874.5 197.686ZM869.5 192.186L869.947 191.963L869.5 191.068L869.053 191.963L869.5 192.186ZM865 198.186L864.646 197.833L864.194 198.285L864.743 198.615L865 198.186ZM870.474 203.844C870.759 202.992 870.84 202.228 871.375 201.266C871.886 200.347 872.815 199.28 874.757 198.115L874.243 197.257C872.185 198.492 871.114 199.676 870.5 200.781C869.91 201.844 869.741 202.881 869.526 203.528L870.474 203.844ZM869.053 192.41C869.268 192.84 869.564 193.711 870.282 194.704C871.015 195.717 872.194 196.885 874.243 198.115L874.757 197.257C872.806 196.087 871.735 195.006 871.093 194.118C870.436 193.211 870.232 192.532 869.947 191.963L869.053 192.41ZM870.447 203.463C870.232 203.032 869.936 202.161 869.218 201.168C868.485 200.156 867.306 198.987 865.257 197.757L864.743 198.615C866.694 199.785 867.765 200.867 868.407 201.754C869.064 202.661 869.268 203.34 869.553 203.91L870.447 203.463ZM869.053 191.963C868.552 192.965 868.192 193.682 867.593 194.521C866.992 195.363 866.139 196.34 864.646 197.833L865.354 198.54C866.861 197.032 867.758 196.01 868.407 195.102C869.058 194.191 869.448 193.408 869.947 192.41L869.053 191.963Z" fill="#393951"/>
<path d="M1366.5 271.686C1362.5 274.086 1362.5 276.186 1362 277.686C1361.5 276.686 1361 274.586 1357 272.186C1360 269.186 1360.5 268.186 1361.5 266.186C1362 267.186 1362.5 269.286 1366.5 271.686Z" fill="#393951"/>
<path d="M1362 277.686L1361.55 277.91L1362.09 278.989L1362.47 277.844L1362 277.686ZM1366.5 271.686L1366.76 272.115L1367.47 271.686L1366.76 271.257L1366.5 271.686ZM1361.5 266.186L1361.95 265.963L1361.5 265.068L1361.05 265.963L1361.5 266.186ZM1357 272.186L1356.65 271.833L1356.19 272.285L1356.74 272.615L1357 272.186ZM1362.47 277.844C1362.76 276.992 1362.84 276.228 1363.37 275.266C1363.89 274.347 1364.82 273.28 1366.76 272.115L1366.24 271.257C1364.18 272.492 1363.11 273.676 1362.5 274.781C1361.91 275.844 1361.74 276.881 1361.53 277.528L1362.47 277.844ZM1361.05 266.41C1361.27 266.84 1361.56 267.711 1362.28 268.704C1363.02 269.717 1364.19 270.885 1366.24 272.115L1366.76 271.257C1364.81 270.087 1363.73 269.006 1363.09 268.118C1362.44 267.211 1362.23 266.532 1361.95 265.963L1361.05 266.41ZM1362.45 277.463C1362.23 277.032 1361.94 276.161 1361.22 275.168C1360.48 274.156 1359.31 272.987 1357.26 271.757L1356.74 272.615C1358.69 273.785 1359.77 274.867 1360.41 275.754C1361.06 276.661 1361.27 277.34 1361.55 277.91L1362.45 277.463ZM1361.05 265.963C1360.55 266.965 1360.19 267.682 1359.59 268.521C1358.99 269.363 1358.14 270.34 1356.65 271.833L1357.35 272.54C1358.86 271.032 1359.76 270.01 1360.41 269.102C1361.06 268.191 1361.45 267.408 1361.95 266.41L1361.05 265.963Z" fill="#393951"/>
<path d="M1078.5 148.686C1074.5 151.086 1074.5 153.186 1074 154.686C1073.5 153.686 1073 151.586 1069 149.186C1072 146.186 1072.5 145.186 1073.5 143.186C1074 144.186 1074.5 146.286 1078.5 148.686Z" fill="#393951"/>
<path d="M1074 154.686L1073.55 154.91L1074.09 155.989L1074.47 154.844L1074 154.686ZM1078.5 148.686L1078.76 149.115L1079.47 148.686L1078.76 148.257L1078.5 148.686ZM1073.5 143.186L1073.95 142.963L1073.5 142.068L1073.05 142.963L1073.5 143.186ZM1069 149.186L1068.65 148.833L1068.19 149.285L1068.74 149.615L1069 149.186ZM1074.47 154.844C1074.76 153.992 1074.84 153.228 1075.37 152.266C1075.89 151.347 1076.82 150.28 1078.76 149.115L1078.24 148.257C1076.18 149.492 1075.11 150.676 1074.5 151.781C1073.91 152.844 1073.74 153.881 1073.53 154.528L1074.47 154.844ZM1073.05 143.41C1073.27 143.84 1073.56 144.711 1074.28 145.704C1075.02 146.717 1076.19 147.885 1078.24 149.115L1078.76 148.257C1076.81 147.087 1075.73 146.006 1075.09 145.118C1074.44 144.211 1074.23 143.532 1073.95 142.963L1073.05 143.41ZM1074.45 154.463C1074.23 154.032 1073.94 153.161 1073.22 152.168C1072.48 151.156 1071.31 149.987 1069.26 148.757L1068.74 149.615C1070.69 150.785 1071.77 151.867 1072.41 152.754C1073.06 153.661 1073.27 154.34 1073.55 154.91L1074.45 154.463ZM1073.05 142.963C1072.55 143.965 1072.19 144.682 1071.59 145.521C1070.99 146.363 1070.14 147.34 1068.65 148.833L1069.35 149.54C1070.86 148.032 1071.76 147.01 1072.41 146.102C1073.06 145.191 1073.45 144.408 1073.95 143.41L1073.05 142.963Z" fill="#393951"/>
<path d="M293.5 166.686C289.5 169.086 289.5 171.186 289 172.686C288.5 171.686 288 169.586 284 167.186C287 164.186 287.5 163.186 288.5 161.186C289 162.186 289.5 164.286 293.5 166.686Z" fill="#393951"/>
<path d="M289 172.686L288.553 172.91L289.093 173.989L289.474 172.844L289 172.686ZM293.5 166.686L293.757 167.115L294.472 166.686L293.757 166.257L293.5 166.686ZM288.5 161.186L288.947 160.963L288.5 160.068L288.053 160.963L288.5 161.186ZM284 167.186L283.646 166.833L283.194 167.285L283.743 167.615L284 167.186ZM289.474 172.844C289.759 171.992 289.84 171.228 290.375 170.266C290.886 169.347 291.815 168.28 293.757 167.115L293.243 166.257C291.185 167.492 290.114 168.676 289.5 169.781C288.91 170.844 288.741 171.881 288.526 172.528L289.474 172.844ZM288.053 161.41C288.268 161.84 288.564 162.711 289.282 163.704C290.015 164.717 291.194 165.885 293.243 167.115L293.757 166.257C291.806 165.087 290.735 164.006 290.093 163.118C289.436 162.211 289.232 161.532 288.947 160.963L288.053 161.41ZM289.447 172.463C289.232 172.032 288.936 171.161 288.218 170.168C287.485 169.156 286.306 167.987 284.257 166.757L283.743 167.615C285.694 168.785 286.765 169.867 287.407 170.754C288.064 171.661 288.268 172.34 288.553 172.91L289.447 172.463ZM288.053 160.963C287.552 161.965 287.192 162.682 286.593 163.521C285.992 164.363 285.139 165.34 283.646 166.833L284.354 167.54C285.861 166.032 286.758 165.01 287.407 164.102C288.058 163.191 288.448 162.408 288.947 161.41L288.053 160.963Z" fill="#393951"/>
<path d="M536.5 403.686C532.5 406.086 532.5 408.186 532 409.686C531.5 408.686 531 406.586 527 404.186C530 401.186 530.5 400.186 531.5 398.186C532 399.186 532.5 401.286 536.5 403.686Z" fill="#393951"/>
<path d="M532 409.686L531.553 409.91L532.093 410.989L532.474 409.844L532 409.686ZM536.5 403.686L536.757 404.115L537.472 403.686L536.757 403.257L536.5 403.686ZM531.5 398.186L531.947 397.963L531.5 397.068L531.053 397.963L531.5 398.186ZM527 404.186L526.646 403.833L526.194 404.285L526.743 404.615L527 404.186ZM532.474 409.844C532.759 408.992 532.84 408.228 533.375 407.266C533.886 406.347 534.815 405.28 536.757 404.115L536.243 403.257C534.185 404.492 533.114 405.676 532.5 406.781C531.91 407.844 531.741 408.881 531.526 409.528L532.474 409.844ZM531.053 398.41C531.268 398.84 531.564 399.711 532.282 400.704C533.015 401.717 534.194 402.885 536.243 404.115L536.757 403.257C534.806 402.087 533.735 401.006 533.093 400.118C532.436 399.211 532.232 398.532 531.947 397.963L531.053 398.41ZM532.447 409.463C532.232 409.032 531.936 408.161 531.218 407.168C530.485 406.156 529.306 404.987 527.257 403.757L526.743 404.615C528.694 405.785 529.765 406.867 530.407 407.754C531.064 408.661 531.268 409.34 531.553 409.91L532.447 409.463ZM531.053 397.963C530.552 398.965 530.192 399.682 529.593 400.521C528.992 401.363 528.139 402.34 526.646 403.833L527.354 404.54C528.861 403.032 529.758 402.01 530.407 401.102C531.058 400.191 531.448 399.408 531.947 398.41L531.053 397.963Z" fill="#393951"/>
<path d="M464.5 3.68616C460.5 6.08616 460.5 8.18616 460 9.68616C459.5 8.68616 459 6.58616 455 4.18616C458 1.18616 458.5 0.186157 459.5 -1.81384C460 -0.813843 460.5 1.28616 464.5 3.68616Z" fill="#393951"/>
<path d="M460 9.68616L459.553 9.90976L460.093 10.9894L460.474 9.84427L460 9.68616ZM464.5 3.68616L464.757 4.1149L465.472 3.68616L464.757 3.25741L464.5 3.68616ZM459.5 -1.81384L459.947 -2.03745L459.5 -2.93188L459.053 -2.03745L459.5 -1.81384ZM455 4.18616L454.646 3.8326L454.194 4.28543L454.743 4.6149L455 4.18616ZM460.474 9.84427C460.759 8.99171 460.84 8.22803 461.375 7.26648C461.886 6.34652 462.815 5.28013 464.757 4.1149L464.243 3.25741C462.185 4.49218 461.114 5.67579 460.5 6.78084C459.91 7.84428 459.741 8.8806 459.526 9.52804L460.474 9.84427ZM459.053 -1.59024C459.268 -1.15995 459.564 -0.288826 460.282 0.704292C461.015 1.71672 462.194 2.8854 464.243 4.1149L464.757 3.25741C462.806 2.08691 461.735 1.00559 461.093 0.118023C460.436 -0.788859 460.232 -1.46774 459.947 -2.03745L459.053 -1.59024ZM460.447 9.46255C460.232 9.03226 459.936 8.16114 459.218 7.16802C458.485 6.15559 457.306 4.98691 455.257 3.75741L454.743 4.6149C456.694 5.7854 457.765 6.86672 458.407 7.75429C459.064 8.66117 459.268 9.34005 459.553 9.90976L460.447 9.46255ZM459.053 -2.03745C458.552 -1.03534 458.192 -0.318463 457.593 0.520538C456.992 1.36273 456.139 2.34026 454.646 3.8326L455.354 4.53971C456.861 3.03205 457.758 2.00959 458.407 1.10178C459.058 0.190778 459.448 -0.592348 459.947 -1.59024L459.053 -2.03745Z" fill="#393951"/>
<path d="M87.5 301.686C83.5 304.086 83.5 306.186 83 307.686C82.5 306.686 82 304.586 78 302.186C81 299.186 81.5 298.186 82.5 296.186C83 297.186 83.5 299.286 87.5 301.686Z" fill="#393951"/>
<path d="M83 307.686L82.5528 307.91L83.0926 308.989L83.4743 307.844L83 307.686ZM87.5 301.686L87.7572 302.115L88.4718 301.686L87.7572 301.257L87.5 301.686ZM82.5 296.186L82.9472 295.963L82.5 295.068L82.0528 295.963L82.5 296.186ZM78 302.186L77.6464 301.833L77.1936 302.285L77.7428 302.615L78 302.186ZM83.4743 307.844C83.7585 306.992 83.8404 306.228 84.3746 305.266C84.8857 304.347 85.8152 303.28 87.7572 302.115L87.2428 301.257C85.1848 302.492 84.1143 303.676 83.5004 304.781C82.9096 305.844 82.7415 306.881 82.5257 307.528L83.4743 307.844ZM82.0528 296.41C82.2679 296.84 82.5637 297.711 83.2824 298.704C84.0151 299.717 85.1936 300.885 87.2428 302.115L87.7572 301.257C85.8064 300.087 84.7349 299.006 84.0926 298.118C83.4363 297.211 83.2321 296.532 82.9472 295.963L82.0528 296.41ZM83.4472 307.463C83.2321 307.032 82.9363 306.161 82.2176 305.168C81.4849 304.156 80.3064 302.987 78.2572 301.757L77.7428 302.615C79.6936 303.785 80.7651 304.867 81.4074 305.754C82.0637 306.661 82.2679 307.34 82.5528 307.91L83.4472 307.463ZM82.0528 295.963C81.5517 296.965 81.1924 297.682 80.5931 298.521C79.9916 299.363 79.1388 300.34 77.6464 301.833L78.3536 302.54C79.8612 301.032 80.7584 300.01 81.4069 299.102C82.0576 298.191 82.4483 297.408 82.9472 296.41L82.0528 295.963Z" fill="#393951"/>
<path d="M121.5 562.686C117.5 565.086 117.5 567.186 117 568.686C116.5 567.686 116 565.586 112 563.186C115 560.186 115.5 559.186 116.5 557.186C117 558.186 117.5 560.286 121.5 562.686Z" fill="#393951"/>
<path d="M117 568.686L116.553 568.91L117.093 569.989L117.474 568.844L117 568.686ZM121.5 562.686L121.757 563.115L122.472 562.686L121.757 562.257L121.5 562.686ZM116.5 557.186L116.947 556.963L116.5 556.068L116.053 556.963L116.5 557.186ZM112 563.186L111.646 562.833L111.194 563.285L111.743 563.615L112 563.186ZM117.474 568.844C117.759 567.992 117.84 567.228 118.375 566.266C118.886 565.347 119.815 564.28 121.757 563.115L121.243 562.257C119.185 563.492 118.114 564.676 117.5 565.781C116.91 566.844 116.741 567.881 116.526 568.528L117.474 568.844ZM116.053 557.41C116.268 557.84 116.564 558.711 117.282 559.704C118.015 560.717 119.194 561.885 121.243 563.115L121.757 562.257C119.806 561.087 118.735 560.006 118.093 559.118C117.436 558.211 117.232 557.532 116.947 556.963L116.053 557.41ZM117.447 568.463C117.232 568.032 116.936 567.161 116.218 566.168C115.485 565.156 114.306 563.987 112.257 562.757L111.743 563.615C113.694 564.785 114.765 565.867 115.407 566.754C116.064 567.661 116.268 568.34 116.553 568.91L117.447 568.463ZM116.053 556.963C115.552 557.965 115.192 558.682 114.593 559.521C113.992 560.363 113.139 561.34 111.646 562.833L112.354 563.54C113.861 562.032 114.758 561.01 115.407 560.102C116.058 559.191 116.448 558.408 116.947 557.41L116.053 556.963Z" fill="#393951"/>
<path d="M423.5 785.686C419.5 788.086 419.5 790.186 419 791.686C418.5 790.686 418 788.586 414 786.186C417 783.186 417.5 782.186 418.5 780.186C419 781.186 419.5 783.286 423.5 785.686Z" fill="#393951"/>
<path d="M419 791.686L418.553 791.91L419.093 792.989L419.474 791.844L419 791.686ZM423.5 785.686L423.757 786.115L424.472 785.686L423.757 785.257L423.5 785.686ZM418.5 780.186L418.947 779.963L418.5 779.068L418.053 779.963L418.5 780.186ZM414 786.186L413.646 785.833L413.194 786.285L413.743 786.615L414 786.186ZM419.474 791.844C419.759 790.992 419.84 790.228 420.375 789.266C420.886 788.347 421.815 787.28 423.757 786.115L423.243 785.257C421.185 786.492 420.114 787.676 419.5 788.781C418.91 789.844 418.741 790.881 418.526 791.528L419.474 791.844ZM418.053 780.41C418.268 780.84 418.564 781.711 419.282 782.704C420.015 783.717 421.194 784.885 423.243 786.115L423.757 785.257C421.806 784.087 420.735 783.006 420.093 782.118C419.436 781.211 419.232 780.532 418.947 779.963L418.053 780.41ZM419.447 791.463C419.232 791.032 418.936 790.161 418.218 789.168C417.485 788.156 416.306 786.987 414.257 785.757L413.743 786.615C415.694 787.785 416.765 788.867 417.407 789.754C418.064 790.661 418.268 791.34 418.553 791.91L419.447 791.463ZM418.053 779.963C417.552 780.965 417.192 781.682 416.593 782.521C415.992 783.363 415.139 784.34 413.646 785.833L414.354 786.54C415.861 785.032 416.758 784.01 417.407 783.102C418.058 782.191 418.448 781.408 418.947 780.41L418.053 779.963Z" fill="#393951"/>
<path d="M263.5 649.686C259.5 652.086 259.5 654.186 259 655.686C258.5 654.686 258 652.586 254 650.186C257 647.186 257.5 646.186 258.5 644.186C259 645.186 259.5 647.286 263.5 649.686Z" fill="#393951"/>
<path d="M259 655.686L258.553 655.91L259.093 656.989L259.474 655.844L259 655.686ZM263.5 649.686L263.757 650.115L264.472 649.686L263.757 649.257L263.5 649.686ZM258.5 644.186L258.947 643.963L258.5 643.068L258.053 643.963L258.5 644.186ZM254 650.186L253.646 649.833L253.194 650.285L253.743 650.615L254 650.186ZM259.474 655.844C259.759 654.992 259.84 654.228 260.375 653.266C260.886 652.347 261.815 651.28 263.757 650.115L263.243 649.257C261.185 650.492 260.114 651.676 259.5 652.781C258.91 653.844 258.741 654.881 258.526 655.528L259.474 655.844ZM258.053 644.41C258.268 644.84 258.564 645.711 259.282 646.704C260.015 647.717 261.194 648.885 263.243 650.115L263.757 649.257C261.806 648.087 260.735 647.006 260.093 646.118C259.436 645.211 259.232 644.532 258.947 643.963L258.053 644.41ZM259.447 655.463C259.232 655.032 258.936 654.161 258.218 653.168C257.485 652.156 256.306 650.987 254.257 649.757L253.743 650.615C255.694 651.785 256.765 652.867 257.407 653.754C258.064 654.661 258.268 655.34 258.553 655.91L259.447 655.463ZM258.053 643.963C257.552 644.965 257.192 645.682 256.593 646.521C255.992 647.363 255.139 648.34 253.646 649.833L254.354 650.54C255.861 649.032 256.758 648.01 257.407 647.102C258.058 646.191 258.448 645.408 258.947 644.41L258.053 643.963Z" fill="#393951"/>
<path d="M1412.5 500.686C1408.5 503.086 1408.5 505.186 1408 506.686C1407.5 505.686 1407 503.586 1403 501.186C1406 498.186 1406.5 497.186 1407.5 495.186C1408 496.186 1408.5 498.286 1412.5 500.686Z" fill="#393951"/>
<path d="M1408 506.686L1407.55 506.91L1408.09 507.989L1408.47 506.844L1408 506.686ZM1412.5 500.686L1412.76 501.115L1413.47 500.686L1412.76 500.257L1412.5 500.686ZM1407.5 495.186L1407.95 494.963L1407.5 494.068L1407.05 494.963L1407.5 495.186ZM1403 501.186L1402.65 500.833L1402.19 501.285L1402.74 501.615L1403 501.186ZM1408.47 506.844C1408.76 505.992 1408.84 505.228 1409.37 504.266C1409.89 503.347 1410.82 502.28 1412.76 501.115L1412.24 500.257C1410.18 501.492 1409.11 502.676 1408.5 503.781C1407.91 504.844 1407.74 505.881 1407.53 506.528L1408.47 506.844ZM1407.05 495.41C1407.27 495.84 1407.56 496.711 1408.28 497.704C1409.02 498.717 1410.19 499.885 1412.24 501.115L1412.76 500.257C1410.81 499.087 1409.73 498.006 1409.09 497.118C1408.44 496.211 1408.23 495.532 1407.95 494.963L1407.05 495.41ZM1408.45 506.463C1408.23 506.032 1407.94 505.161 1407.22 504.168C1406.48 503.156 1405.31 501.987 1403.26 500.757L1402.74 501.615C1404.69 502.785 1405.77 503.867 1406.41 504.754C1407.06 505.661 1407.27 506.34 1407.55 506.91L1408.45 506.463ZM1407.05 494.963C1406.55 495.965 1406.19 496.682 1405.59 497.521C1404.99 498.363 1404.14 499.34 1402.65 500.833L1403.35 501.54C1404.86 500.032 1405.76 499.01 1406.41 498.102C1407.06 497.191 1407.45 496.408 1407.95 495.41L1407.05 494.963Z" fill="#393951"/>
<path d="M1179.5 2.68616C1175.5 5.08616 1175.5 7.18616 1175 8.68616C1174.5 7.68616 1174 5.58616 1170 3.18616C1173 0.186157 1173.5 -0.813843 1174.5 -2.81384C1175 -1.81384 1175.5 0.286158 1179.5 2.68616Z" fill="#393951"/>
<path d="M1175 8.68616L1174.55 8.90976L1175.09 9.98943L1175.47 8.84427L1175 8.68616ZM1179.5 2.68616L1179.76 3.1149L1180.47 2.68616L1179.76 2.25741L1179.5 2.68616ZM1174.5 -2.81384L1174.95 -3.03745L1174.5 -3.93188L1174.05 -3.03745L1174.5 -2.81384ZM1170 3.18616L1169.65 2.8326L1169.19 3.28543L1169.74 3.6149L1170 3.18616ZM1175.47 8.84427C1175.76 7.99171 1175.84 7.22803 1176.37 6.26648C1176.89 5.34652 1177.82 4.28013 1179.76 3.1149L1179.24 2.25741C1177.18 3.49218 1176.11 4.67579 1175.5 5.78084C1174.91 6.84428 1174.74 7.8806 1174.53 8.52804L1175.47 8.84427ZM1174.05 -2.59024C1174.27 -2.15995 1174.56 -1.28883 1175.28 -0.295708C1176.02 0.71672 1177.19 1.8854 1179.24 3.1149L1179.76 2.25741C1177.81 1.08691 1176.73 0.00559473 1176.09 -0.881977C1175.44 -1.78886 1175.23 -2.46774 1174.95 -3.03745L1174.05 -2.59024ZM1175.45 8.46255C1175.23 8.03226 1174.94 7.16114 1174.22 6.16802C1173.48 5.15559 1172.31 3.98691 1170.26 2.75741L1169.74 3.6149C1171.69 4.7854 1172.77 5.86672 1173.41 6.75429C1174.06 7.66117 1174.27 8.34005 1174.55 8.90976L1175.45 8.46255ZM1174.05 -3.03745C1173.55 -2.03534 1173.19 -1.31846 1172.59 -0.479462C1171.99 0.362728 1171.14 1.34026 1169.65 2.8326L1170.35 3.53971C1171.86 2.03205 1172.76 1.00959 1173.41 0.101776C1174.06 -0.809222 1174.45 -1.59235 1174.95 -2.59024L1174.05 -3.03745Z" fill="#393951"/>
<path d="M996.026 287.321C997.873 282.889 1005.63 281.555 1009.62 280.667C1014.02 279.689 1020.86 277.71 1022.34 280.049C1023.81 282.388 1036.16 348.997 1035.17 350.105C1034.19 351.213 1010.68 354.045 1007.72 352.198C1004.77 350.351 994.18 291.753 996.026 287.321Z" fill="#F4F5F7"/>
<path fill-rule="evenodd" clip-rule="evenodd" d="M1016.11 265.939C1012 265.36 1008.06 263.67 1005.41 260.218C997.766 250.271 1012.63 240.774 1019.35 243.252C1026.08 245.73 1036.41 257.986 1033.88 261.736C1032.87 263.231 1029.35 264.875 1025.01 265.679L1037.94 276.684L1027.44 285.995L1016.11 265.939Z" fill="#FFB287"/>
<path fill-rule="evenodd" clip-rule="evenodd" d="M1010.64 241.782C1008.82 242.617 1006.6 244.316 1005.82 245.193C1005.26 243.557 1004.27 242.051 1002.96 240.898C1001.69 239.778 1000.18 239.205 998.663 238.543C997.964 238.238 997.235 237.964 996.479 237.927C995.709 237.89 994.95 238.087 994.29 238.445C993.614 238.812 993.037 239.343 992.58 239.959C992.378 240.231 992.256 240.542 992.068 240.822C991.876 241.108 991.617 241.059 991.296 241.062C990.525 241.071 989.719 241.452 989.108 241.874C988.422 242.349 987.862 243.012 987.452 243.739C987.053 244.447 986.786 245.259 986.786 246.096C986.786 246.469 986.829 246.856 986.952 247.215C987.003 247.362 987.052 247.433 986.979 247.567C986.912 247.692 986.797 247.796 986.725 247.922C986.032 249.136 985.863 250.654 986.274 252.047C986.513 252.859 987.281 253.983 988.32 255.084C989.359 256.185 993.001 258.234 994.913 258.463C996.619 258.669 998.437 258.191 999.894 257.395C999.905 259.027 1000.39 260.649 1001.03 262.167C1001.72 263.816 1002.62 265.37 1003.72 266.8C1004.75 268.158 1005.94 269.515 1007.35 270.498C1008.66 271.417 1010.11 271.845 1011.65 271.567C1012.35 271.44 1013.03 271.212 1013.69 270.964C1014.35 270.72 1015 270.469 1015.6 270.122C1016.75 269.464 1017.83 268.442 1017.9 267.011C1017.92 266.496 1017.9 265.885 1017.8 265.372C1017.76 265.188 1017.73 265.07 1017.54 265.027C1017.31 264.975 1017.05 265.013 1016.82 265.018C1015.5 265.047 1014.29 264.609 1013.27 263.703C1012.25 262.784 1011.35 261.217 1011.95 259.886C1012.69 258.243 1014.6 257.676 1016.22 257.298C1015.23 255.246 1014.88 252.923 1015.71 250.845C1016.62 248.546 1018.44 246.765 1019.5 244.543C1019.78 243.964 1020.05 243.353 1020.04 242.684C1020.03 242.405 1020.01 242.058 1019.88 241.8C1019.71 241.461 1019.32 241.388 1019 241.295C1017.26 240.802 1012.46 240.948 1010.64 241.782Z" fill="#393951"/>
<path fill-rule="evenodd" clip-rule="evenodd" d="M1047.88 332.515L1121.83 373.701L1180.75 410.599L1186.83 407.091L1072.53 318.284L1047.88 332.515Z" fill="white"/>
<path fill-rule="evenodd" clip-rule="evenodd" d="M1175.62 410.289C1175.92 412.129 1176.29 413.424 1176.73 414.175C1177.25 415.088 1178.18 416.333 1179.49 417.909C1180.55 417.298 1190.07 411.8 1208.06 401.418C1207.38 398.536 1206.19 397.458 1204.48 398.186C1202.76 398.914 1201.33 399.504 1200.18 399.957L1183.49 401.703C1183.17 401.737 1182.94 402.025 1182.97 402.346C1182.97 402.351 1182.97 402.357 1182.97 402.362L1183.31 404.925C1182.23 406.47 1181.23 407.51 1180.3 408.045C1179.55 408.479 1178.34 408.775 1176.66 408.932L1176.66 408.932C1176.02 408.993 1175.55 409.563 1175.61 410.206C1175.61 410.234 1175.61 410.262 1175.62 410.289Z" fill="#FFCA00"/>
<path d="M1207.94 400.82C1207.56 400.591 1188.45 411.523 1178.94 417.018C1178.84 417.525 1179.32 418.006 1179.72 418.376C1180.13 418.745 1208.23 402.702 1208.5 402.085C1208.77 401.468 1208.41 401.107 1207.94 400.82Z" fill="#CBA71E"/>
<path fill-rule="evenodd" clip-rule="evenodd" d="M1168 406.606L1177.67 396.295C1163.67 383.911 1147.63 370.653 1129.54 356.523C1111.44 342.392 1093.17 329.224 1074.72 317.019L1041.62 336.128C1063.65 352.323 1085.11 366.207 1105.99 377.779C1126.88 389.351 1147.55 398.96 1168 406.606Z" fill="url(#paint2_radial_989_7682)"/>
<path fill-rule="evenodd" clip-rule="evenodd" d="M1045.4 333.943C1054.62 358.101 1064.07 390.301 1063.93 391.546C1063.84 392.376 1051.32 406.533 1026.39 434.016L1030.8 438.617C1064.25 412.285 1081.12 397.099 1081.4 393.061C1081.83 387.003 1076.67 344.09 1070.16 319.65L1045.4 333.943Z" fill="#F4F5F7"/>
<path fill-rule="evenodd" clip-rule="evenodd" d="M1034.47 423.174L1041.77 430.47C1070.44 417.106 1086.17 405.722 1088.94 396.316C1091.71 386.911 1086.09 360.986 1072.08 318.54L1040.52 336.761C1053.45 370.677 1060 388.456 1060.16 390.099C1060.33 391.742 1051.76 402.767 1034.47 423.174Z" fill="url(#paint3_radial_989_7682)"/>
<path fill-rule="evenodd" clip-rule="evenodd" d="M1026.6 430.919C1024.84 431.54 1023.63 432.13 1022.97 432.687C1022.16 433.365 1021.09 434.489 1019.77 436.058C1020.55 436.995 1027.62 445.417 1040.97 461.324C1043.69 460.159 1044.54 458.797 1043.53 457.237C1042.52 455.677 1041.69 454.371 1041.04 453.318L1036.42 437.182C1036.33 436.872 1036.01 436.692 1035.7 436.781C1035.69 436.782 1035.69 436.784 1035.68 436.786L1033.22 437.567C1031.51 436.77 1030.31 435.963 1029.62 435.144C1029.07 434.479 1028.56 433.335 1028.12 431.712L1028.12 431.712C1027.95 431.089 1027.3 430.723 1026.68 430.894C1026.65 430.901 1026.63 430.91 1026.6 430.919Z" fill="#FFCA00"/>
<path fill-rule="evenodd" clip-rule="evenodd" d="M1086.67 281.679L1096.38 269.006C1095.16 261.379 1095.79 256.994 1098.27 255.85C1099.8 254.112 1100.26 264.222 1103.57 261.87C1106.88 259.518 1112.85 249.002 1114.97 249.669C1118.11 250.656 1118.77 257.637 1117.73 261.715C1115.78 269.337 1112.95 272.895 1104.97 279.438C1100.8 282.859 1096.83 287.782 1093.06 294.207L1086.67 281.679Z" fill="#F4F5F7"/>
<mask id="mask1_989_7682" style="mask-type:alpha" maskUnits="userSpaceOnUse" x="1086" y="249" width="33" height="46">
<path fill-rule="evenodd" clip-rule="evenodd" d="M1086.67 281.679L1096.38 269.006C1095.16 261.379 1095.79 256.994 1098.27 255.85C1099.8 254.112 1100.26 264.222 1103.57 261.87C1106.88 259.518 1112.85 249.002 1114.97 249.669C1118.11 250.656 1118.77 257.637 1117.73 261.715C1115.78 269.337 1112.95 272.895 1104.97 279.438C1100.8 282.859 1096.83 287.782 1093.06 294.207L1086.67 281.679Z" fill="url(#paint4_linear_989_7682)"/>
</mask>
<g mask="url(#mask1_989_7682)">
<path d="M1095.7 266.805C1095.29 267.066 1095.65 269.595 1095.88 270.827C1096.28 271.081 1100.91 279.559 1104.5 280.501C1108.09 281.443 1110.59 277.639 1110.91 276.878C1111.24 276.117 1101.35 267.566 1099.39 266.479C1097.43 265.392 1096.2 266.479 1095.7 266.805Z" fill="#F4F5F7"/>
</g>
<path d="M1065.78 269.821L1046.31 296.917L1055.76 299.326L1070.91 274.28C1077.33 267.762 1079.94 264.205 1078.72 263.606C1076.9 262.708 1075.57 265.119 1074.24 264.712C1072.91 264.305 1072.7 260.324 1072.66 256.537C1072.62 252.75 1071.04 253.992 1070.29 254.972C1068.33 259.013 1066.83 263.962 1065.78 269.821Z" fill="#F4F5F7"/>
<mask id="mask2_989_7682" style="mask-type:alpha" maskUnits="userSpaceOnUse" x="1046" y="253" width="34" height="47">
<path d="M1065.78 269.821L1046.31 296.917L1055.76 299.325L1070.91 274.28C1077.33 267.762 1079.94 264.205 1078.72 263.606C1076.9 262.708 1075.57 265.119 1074.24 264.712C1072.91 264.305 1072.7 260.324 1072.66 256.537C1072.62 252.75 1071.04 253.992 1070.29 254.972C1068.33 259.013 1066.83 263.962 1065.78 269.821Z" fill="#E1E1E1"/>
</mask>
<g mask="url(#mask2_989_7682)">
<path d="M1074.4 271.839C1074.45 271.449 1068.64 268.99 1065.72 267.81C1065.38 267.452 1064.12 270.556 1064 271.401C1063.89 272.245 1070.81 274.455 1072.29 274.748C1073.77 275.04 1074.34 272.327 1074.4 271.839Z" fill="#B9B9B9"/>
</g>
<path fill-rule="evenodd" clip-rule="evenodd" d="M1045.51 288.958C1051.63 285.338 1059.09 279.297 1064.64 268.679L1072.51 274.365C1069.93 283.85 1064.27 293.683 1056.72 297.764C1050.77 300.98 1043.69 295.625 1045.51 288.958Z" fill="#F4F5F7"/>
<path fill-rule="evenodd" clip-rule="evenodd" d="M1060.9 296.475C1068.38 294.331 1078.23 286.081 1090.46 271.723C1098.83 277.415 1103.84 282.025 1105.5 285.553C1096.28 300.068 1086.74 309.673 1077.54 315.257C1081.03 320.616 1083.39 326.267 1083.91 332.38C1084.97 344.949 1052.46 351.51 1044.35 358.596C1027.87 343.291 1034.58 329.329 1027.72 317.414C1020.2 304.365 1019.08 278.243 1020.62 277.354L1034.67 269.241C1041.2 278.754 1051.44 287.479 1060.9 296.475Z" fill="#F4F5F7"/>
<path d="M1019.95 349.756C1023.85 443.86 815.596 472.271 815.596 211.42C815.596 -96.7404 764.664 -25.8185 698 -16.3289" stroke="url(#paint5_linear_989_7682)" stroke-width="5"/>
<path d="M1100.5 465.686C1096.5 468.086 1096.5 470.186 1096 471.686C1095.5 470.686 1095 468.586 1091 466.186C1094 463.186 1094.5 462.186 1095.5 460.186C1096 461.186 1096.5 463.286 1100.5 465.686Z" fill="#393951"/>
<path d="M1096 471.686L1095.55 471.91L1096.09 472.989L1096.47 471.844L1096 471.686ZM1100.5 465.686L1100.76 466.115L1101.47 465.686L1100.76 465.257L1100.5 465.686ZM1095.5 460.186L1095.95 459.963L1095.5 459.068L1095.05 459.963L1095.5 460.186ZM1091 466.186L1090.65 465.833L1090.19 466.285L1090.74 466.615L1091 466.186ZM1096.47 471.844C1096.76 470.992 1096.84 470.228 1097.37 469.266C1097.89 468.347 1098.82 467.28 1100.76 466.115L1100.24 465.257C1098.18 466.492 1097.11 467.676 1096.5 468.781C1095.91 469.844 1095.74 470.881 1095.53 471.528L1096.47 471.844ZM1095.05 460.41C1095.27 460.84 1095.56 461.711 1096.28 462.704C1097.02 463.717 1098.19 464.885 1100.24 466.115L1100.76 465.257C1098.81 464.087 1097.73 463.006 1097.09 462.118C1096.44 461.211 1096.23 460.532 1095.95 459.963L1095.05 460.41ZM1096.45 471.463C1096.23 471.032 1095.94 470.161 1095.22 469.168C1094.48 468.156 1093.31 466.987 1091.26 465.757L1090.74 466.615C1092.69 467.785 1093.77 468.867 1094.41 469.754C1095.06 470.661 1095.27 471.34 1095.55 471.91L1096.45 471.463ZM1095.05 459.963C1094.55 460.965 1094.19 461.682 1093.59 462.521C1092.99 463.363 1092.14 464.34 1090.65 465.833L1091.35 466.54C1092.86 465.032 1093.76 464.01 1094.41 463.102C1095.06 462.191 1095.45 461.408 1095.95 460.41L1095.05 459.963Z" fill="#393951"/>
<path d="M1106 288.186C1106 286.986 1093.67 276.686 1087.5 271.686C1087.5 270.186 1089 264.686 1091 264.686C1093 264.686 1111.5 281.686 1112 282.186C1112.5 282.686 1106 289.686 1106 288.186Z" fill="#F4F5F7"/>
<path d="M1072.83 278.465C1072.72 277.868 1065.33 273.949 1061.65 272.064C1061.51 271.318 1061.78 268.435 1062.82 268.24C1063.87 268.045 1075.09 274.694 1075.4 274.894C1075.7 275.094 1072.97 279.211 1072.83 278.465Z" fill="#F4F5F7"/>
<rect x="1014.71" y="350.802" width="10.2806" height="4.27451" rx="2" transform="rotate(-5.51925 1014.71 350.802)" fill="#F4F5F7"/>
<path d="M1001.22 280.938C1003.03 280.268 1004.65 282.287 1003.6 283.903L997.322 293.567C996.974 294.104 996.39 294.441 995.751 294.475L994.496 294.542C993.393 294.602 992.451 293.755 992.392 292.652L992.028 285.853C991.981 284.979 992.508 284.176 993.329 283.871L1001.22 280.938Z" fill="#F4F5F7"/>
<path d="M1039.83 325.58C1045.31 331.063 1064.47 321.198 1068.8 318.872C1063.96 323.794 1041.19 335.07 1037.99 331.689C1034.5 328.011 1028.99 302.353 1029.57 304.869C1030.15 307.386 1033.78 319.531 1039.83 325.58Z" fill="#F4F5F7"/>
<path d="M1067.2 345.203C1067.64 344.85 1068.03 344.542 1068.37 344.291C1068.23 344.489 1067.82 344.803 1067.2 345.203C1064.85 347.114 1061.43 350.341 1060.51 352.89C1059.14 356.665 1050.44 362.328 1050.02 361.908C1049.6 361.489 1046.56 355.931 1047.82 355.407C1048.92 354.948 1062.93 347.993 1067.2 345.203Z" fill="#F4F5F7"/>
<path d="M1079.09 340.394C1078.87 341.609 1083.54 357.063 1085.92 365.906C1086.32 367.39 1093.6 370.283 1092.53 369.836C1091.46 369.39 1079.35 338.876 1079.09 340.394Z" fill="#F4F5F7"/>
<path d="M989.231 300.71C990.598 297.429 996.339 296.441 999.294 295.784C1002.55 295.06 1007.73 294.969 1008.82 296.7C1009.92 298.432 1018.94 346.369 1018.21 347.189C1017.48 348.009 1000.08 350.105 997.889 348.738C995.702 347.371 987.864 303.991 989.231 300.71Z" fill="#F4F5F7"/>
<path d="M995.575 285.315C997.421 280.883 1005.18 279.549 1009.17 278.661C1013.57 277.683 1020.41 275.704 1021.89 278.043C1023.36 280.382 1035.71 346.991 1034.72 348.099C1033.74 349.207 1010.22 352.039 1007.27 350.192C1004.32 348.345 993.728 289.747 995.575 285.315Z" fill="#F4F5F7"/>
<mask id="mask3_989_7682" style="mask-type:alpha" maskUnits="userSpaceOnUse" x="989" y="295" width="30" height="55">
<path d="M989.231 300.71C990.598 297.429 996.339 296.441 999.294 295.784C1002.55 295.06 1007.73 294.969 1008.82 296.7C1009.92 298.432 1018.94 346.369 1018.21 347.189C1017.48 348.009 1000.08 350.105 997.889 348.738C995.702 347.371 987.864 303.991 989.231 300.71Z" fill="white"/>
</mask>
<g mask="url(#mask3_989_7682)">
<path d="M995.152 315.356C995.105 315.126 992.017 297.612 991.326 297.105" stroke="#FFCA00" stroke-width="3"/>
</g>
<path d="M1011.55 343.419C1010.48 343.01 1006.11 319.178 1004.06 307.314C1003.68 295.727 1018.53 295.471 1020.52 303.921C1020.79 305.104 1028.71 340.987 1028.52 341.883C1028.33 342.779 1012.9 343.932 1011.55 343.419Z" fill="white"/>
<path d="M1009.54 340.589C1008.27 340.107 1003.13 312.032 1000.71 298.054C1000.26 284.404 1017.76 284.102 1020.1 294.057C1020.42 295.45 1029.75 337.724 1029.52 338.78C1029.3 339.835 1011.12 341.193 1009.54 340.589Z" fill="url(#paint6_linear_989_7682)"/>
<path d="M1009.88 342.256C1009.02 341.461 1009.08 340.545 1009.22 340.186C1010.71 338.116 1028.84 336.792 1029.58 337.454C1030.33 338.116 1029.75 339.275 1029.58 340.186C1029.42 341.097 1010.96 343.249 1009.88 342.256Z" fill="#F4F5F7"/>
<path d="M1062.1 309.746C1066.92 315.466 1070.08 316.893 1071.54 316.835C1067.6 321.005 1048.45 329.029 1045.49 325.318C1042.83 321.977 1035.71 304.307 1033.77 300.406C1033.48 300.224 1033.31 300.034 1033.29 299.834C1033.23 299.435 1033.41 299.685 1033.77 300.406C1037.14 302.553 1057.02 303.719 1062.1 309.746Z" fill="white"/>
<circle cx="1015.12" cy="244" r="34" fill="url(#paint7_linear_989_7682)"/>
<mask id="mask4_989_7682" style="mask-type:alpha" maskUnits="userSpaceOnUse" x="981" y="209" width="69" height="69">
<circle cx="1015.12" cy="244" r="34" fill="white"/>
</mask>
<g mask="url(#mask4_989_7682)">
<path d="M1043.34 262.162C1045.56 260.501 1036.09 273.525 1031.76 276.899C1031.76 277.598 1013.35 284.667 1010.55 283.794C1007.76 282.921 1009.85 283.008 1009.51 280.478C1009.16 277.947 1025.56 270.965 1027.4 270.005C1029.23 269.045 1037.19 266.765 1043.34 262.162Z" fill="#F4F5F7"/>
</g>
<path d="M991.774 229.727C1015.14 209.181 1035.71 226.341 1034.58 224.487C1029.47 216.145 1019.84 212.834 1013.11 213.592C1003.5 214.675 995.01 219.066 991.774 229.727Z" fill="#393951"/>
<path d="M1043.83 239.956C1043.42 238.113 1041.63 234.468 1040.78 233.159C1043.52 233.297 1044.07 235.097 1044.46 235.632C1044.84 236.167 1044.25 241.798 1043.83 239.956Z" fill="#393951"/>
<circle cx="1038.48" cy="290.703" r="7.33816" fill="#FFCA00"/>
<path d="M1042.98 351.716C1041.75 349.703 1033.14 336.954 1032.36 335.835C1032.94 344.319 1038.7 355.315 1042.23 356.274C1043.31 356.567 1044.21 353.729 1042.98 351.716Z" fill="#F4F5F7"/>
<mask id="mask5_989_7682" style="mask-type:alpha" maskUnits="userSpaceOnUse" x="718" y="501" width="1018" height="1031">
<path fill-rule="evenodd" clip-rule="evenodd" d="M1184.64 515.123C1182.81 512.138 1182.58 508.987 1185.57 505.797C1193.68 497.148 1217.93 502.593 1246.77 509.068C1257.05 511.376 1267.92 513.815 1278.84 515.794C1535.6 541.766 1736 758.574 1736 1022.19C1736 1303.3 1508.11 1531.19 1227 1531.19C945.887 1531.19 718 1303.3 718 1022.19C718 922.535 718.092 865.543 767.585 787.049C812.202 706.57 879.027 639.675 956.749 592.148C966.888 583.53 986.176 566.816 995.013 557.98C1005.18 547.817 1015.47 550.182 1020.91 558.426C1073.28 535.121 1128.82 520.198 1184.64 515.123Z" fill="url(#paint8_linear_989_7682)"/>
</mask>
<g mask="url(#mask5_989_7682)">
<path d="M1180.45 711.257C977.768 784.554 797.226 717.576 830.763 613.24C941.819 190.534 1354.78 456.154 1356.16 485.306C1357.55 514.458 1433.79 619.635 1180.45 711.257Z" fill="url(#paint9_radial_989_7682)"/>
<g filter="url(#filter0_f_989_7682)">
<path d="M1541.81 983.099C1394.59 1171.84 1214.4 1169.48 1181.9 1037.7C1062.02 551.639 1545.7 582.351 1582.79 688.515C1594.84 723.023 1725.82 747.179 1541.81 983.099Z" fill="url(#paint10_radial_989_7682)"/>
</g>
</g>
<mask id="mask6_989_7682" style="mask-type:alpha" maskUnits="userSpaceOnUse" x="718" y="513" width="1018" height="1019">
<path d="M1736 1022.19C1736 1303.3 1508.11 1531.19 1227 1531.19C945.887 1531.19 718 1303.3 718 1022.19C718 932.973 729.876 854.952 770.197 782.043C856.928 625.213 1035.1 513.186 1227 513.186C1508.11 513.186 1736 741.073 1736 1022.19Z" fill="url(#paint11_linear_989_7682)"/>
</mask>
<g mask="url(#mask6_989_7682)">
<ellipse cx="928.836" cy="879.269" rx="298.437" ry="288.041" transform="rotate(56.6945 928.836 879.269)" fill="url(#paint12_radial_989_7682)"/>
</g>
<path d="M1123.57 507.325C1193.15 497.527 1254.5 496.813 1246.78 527.351C1239.05 557.889 1193.15 598.335 1123.57 608.133C1053.99 617.931 975.326 608.123 983.05 577.585C990.775 547.047 1053.99 517.123 1123.57 507.325Z" fill="url(#paint13_radial_989_7682)"/>
<mask id="mask7_989_7682" style="mask-type:alpha" maskUnits="userSpaceOnUse" x="982" y="501" width="266" height="111">
<path d="M1123.57 507.325C1193.15 497.527 1254.5 496.813 1246.78 527.351C1239.05 557.889 1193.15 598.335 1123.57 608.133C1053.99 617.931 975.326 608.123 983.05 577.585C990.775 547.047 1053.99 517.123 1123.57 507.325Z" fill="url(#paint14_radial_989_7682)"/>
</mask>
<g mask="url(#mask7_989_7682)">
<g filter="url(#filter1_f_989_7682)">
<path d="M1230.01 554.592C1254 482.132 920.209 557.469 1055.9 604.585C1042.75 617.733 954.395 585.77 943.196 546.328C931.996 506.886 962.186 523.442 1009.42 490.33C1056.65 457.218 1193.97 462.088 1243.15 463.062C1292.33 464.035 1284.54 500.069 1288.92 517.112C1292.43 530.746 1238.29 540.471 1230.01 554.592Z" fill="url(#paint15_radial_989_7682)"/>
</g>
</g>
<ellipse rx="131.174" ry="161.838" transform="matrix(0.960901 0.276894 -0.234256 0.972175 845.245 910.054)" fill="#393951"/>
<ellipse rx="181.362" ry="198.028" transform="matrix(0.863252 0.504773 0.483855 -0.875148 1445.78 893.907)" fill="#393951"/>
<ellipse rx="121.363" ry="149.733" transform="matrix(0.960901 0.276894 -0.234256 0.972175 845.245 910.053)" fill="url(#paint16_radial_989_7682)"/>
<ellipse rx="170.29" ry="185.939" transform="matrix(0.862992 0.505218 0.483363 -0.87542 1444.73 889.999)" fill="url(#paint17_radial_989_7682)"/>
<path d="M1122.96 509.749C1157.7 504.857 1190.19 502.265 1212.98 504.649C1224.39 505.843 1233.17 508.266 1238.61 512.12C1244 515.934 1245.99 521.036 1244.3 527.7C1240.69 541.993 1228.01 558.995 1207.42 573.755C1186.87 588.489 1158.56 600.869 1124.18 605.709C1089.61 610.577 1052.8 610.568 1025.65 605.569C1012.07 603.068 1001.04 599.341 993.907 594.448C986.723 589.519 983.891 583.7 985.526 577.236C987.252 570.415 992.103 563.459 999.794 556.572C1007.51 549.664 1017.95 542.951 1030.49 536.789C1055.54 524.468 1088.39 514.616 1122.96 509.749Z" stroke="#393951" stroke-width="5"/>
<g filter="url(#filter2_f_989_7682)">
<path d="M1256.32 721.268C1166.08 803.44 1229.33 1043.07 1235.92 1046.97C1319.54 1252.63 1053.2 1132.36 1100.34 888.716C1147.48 645.074 1346.55 639.095 1256.32 721.268Z" fill="#393951"/>
</g>
<path d="M1390.84 547.725C1383.1 547.725 1372.6 543.95 1369.29 540.518C1362.91 533.898 1384.19 527.871 1391.64 533.096C1399.09 538.32 1394.87 547.725 1390.84 547.725Z" fill="#393951"/>
<path d="M1185.13 678.285C1197.24 674.744 1209.7 673.958 1215.04 682.236C1222.74 694.163 1211.83 696.997 1203.08 704.29C1194.71 711.275 1190.48 723.305 1180.47 713.627C1168.57 702.128 1178.84 680.125 1185.13 678.285Z" fill="#393951"/>
<path d="M1018.75 735.714C1021.14 737.867 1022.98 740.465 1021.9 742.731C1019.81 747.101 1009.56 743.549 1010.46 739.43C1011.36 735.311 1017.51 734.595 1018.75 735.714Z" fill="#393951"/>
<path d="M1366.9 625.071C1369.28 627.223 1371.12 629.821 1370.04 632.087C1367.96 636.458 1357.7 632.906 1358.61 628.787C1359.51 624.667 1365.66 623.952 1366.9 625.071Z" fill="#393951"/>
<path d="M917.769 674.725C913.719 673.43 915.503 669.357 917.769 665.162C922.14 657.071 937.68 656.018 932.621 663.129C927.346 670.542 921.604 675.951 917.769 674.725Z" fill="#393951"/>
<path d="M1261.82 519.108C1261.5 521.801 1260.68 524.402 1258.81 525.002C1255.21 526.16 1253.03 517.793 1255.97 516.041C1258.91 514.289 1261.98 517.708 1261.82 519.108Z" fill="#393951"/>
<path d="M977.051 587.656C979.104 589.426 980.794 591.568 980.244 593.449C979.184 597.078 971.034 594.189 971.232 590.774C971.431 587.359 975.984 586.736 977.051 587.656Z" fill="#393951"/>
</g>
<defs>
<filter id="filter0_f_989_7682" x="1142.85" y="603.691" width="516.355" height="547.703" filterUnits="userSpaceOnUse" color-interpolation-filters="sRGB">
<feFlood flood-opacity="0" result="BackgroundImageFix"/>
<feBlend mode="normal" in="SourceGraphic" in2="BackgroundImageFix" result="shape"/>
<feGaussianBlur stdDeviation="10" result="effect1_foregroundBlur_989_7682"/>
</filter>
<filter id="filter1_f_989_7682" x="930.859" y="452.245" width="368.227" height="165.343" filterUnits="userSpaceOnUse" color-interpolation-filters="sRGB">
<feFlood flood-opacity="0" result="BackgroundImageFix"/>
<feBlend mode="normal" in="SourceGraphic" in2="BackgroundImageFix" result="shape"/>
<feGaussianBlur stdDeviation="5" result="effect1_foregroundBlur_989_7682"/>
</filter>
<filter id="filter2_f_989_7682" x="1074.7" y="653.768" width="224.796" height="518.064" filterUnits="userSpaceOnUse" color-interpolation-filters="sRGB">
<feFlood flood-opacity="0" result="BackgroundImageFix"/>
<feBlend mode="normal" in="SourceGraphic" in2="BackgroundImageFix" result="shape"/>
<feGaussianBlur stdDeviation="10" result="effect1_foregroundBlur_989_7682"/>
</filter>
<linearGradient id="paint0_linear_989_7682" x1="1100.5" y1="523.074" x2="1450.07" y2="1261" gradientUnits="userSpaceOnUse">
<stop stop-color="#2C2F41"/>
<stop offset="0.283302" stop-color="#2C2F41"/>
<stop offset="0.51521" stop-color="#2C2F41"/>
<stop offset="1" stop-color="#2C2F41"/>
</linearGradient>
<linearGradient id="paint1_linear_989_7682" x1="676.164" y1="672.603" x2="658.357" y2="778.096" gradientUnits="userSpaceOnUse">
<stop stop-color="#383B51"/>
<stop offset="1" stop-color="#383B51"/>
</linearGradient>
<radialGradient id="paint2_radial_989_7682" cx="0" cy="0" r="1" gradientUnits="userSpaceOnUse" gradientTransform="translate(1154.58 323.697) rotate(129.581) scale(113.176 79.9347)">
<stop stop-color="#C3C3C3"/>
<stop offset="0.52403" stop-color="white"/>
<stop offset="1" stop-color="#C8C8C8"/>
</radialGradient>
<radialGradient id="paint3_radial_989_7682" cx="0" cy="0" r="1" gradientUnits="userSpaceOnUse" gradientTransform="translate(1040.12 387.544) rotate(11.7771) scale(48.001 49.107)">
<stop stop-color="#5A5A5A"/>
<stop offset="0.596197" stop-color="#EEEEEE"/>
<stop offset="1" stop-color="white"/>
</radialGradient>
<linearGradient id="paint4_linear_989_7682" x1="1097.25" y1="256.224" x2="1110.58" y2="286.49" gradientUnits="userSpaceOnUse">
<stop stop-color="white"/>
<stop offset="1" stop-color="#F9F9F9"/>
</linearGradient>
<linearGradient id="paint5_linear_989_7682" x1="782.925" y1="12.6543" x2="1129.6" y2="177.447" gradientUnits="userSpaceOnUse">
<stop stop-color="#242635"/>
<stop offset="1" stop-color="#494D69"/>
</linearGradient>
<linearGradient id="paint6_linear_989_7682" x1="1028.73" y1="308.425" x2="1002.81" y2="312.639" gradientUnits="userSpaceOnUse">
<stop stop-color="#EFEFEF"/>
<stop offset="0.534453" stop-color="white" stop-opacity="0.465547"/>
<stop offset="1" stop-color="#EFEFEF" stop-opacity="0"/>
</linearGradient>
<linearGradient id="paint7_linear_989_7682" x1="1030.71" y1="190.803" x2="1015.12" y2="278" gradientUnits="userSpaceOnUse">
<stop stop-color="#7177D1" stop-opacity="0.12"/>
<stop offset="1" stop-color="#242635" stop-opacity="0.22"/>
</linearGradient>
<linearGradient id="paint8_linear_989_7682" x1="1100.5" y1="523.074" x2="1450.07" y2="1261" gradientUnits="userSpaceOnUse">
<stop stop-color="#3C417C"/>
<stop offset="1" stop-color="#0C0D1C"/>
</linearGradient>
<radialGradient id="paint9_radial_989_7682" cx="0" cy="0" r="1" gradientUnits="userSpaceOnUse" gradientTransform="translate(1098.02 572.475) rotate(87.0275) scale(207.824 373.461)">
<stop stop-color="#2B2E41"/>
<stop offset="0.332336" stop-color="#2C2E41"/>
<stop offset="0.581437" stop-color="#2D3041"/>
</radialGradient>
<radialGradient id="paint10_radial_989_7682" cx="0" cy="0" r="1" gradientUnits="userSpaceOnUse" gradientTransform="translate(1604.03 988.977) rotate(-138.513) scale(446.825 699.472)">
<stop stop-color="#303361" stop-opacity="0.83"/>
<stop offset="0.983218" stop-color="#191B34" stop-opacity="0"/>
</radialGradient>
<linearGradient id="paint11_linear_989_7682" x1="1100.5" y1="534.686" x2="1443.5" y2="1267.19" gradientUnits="userSpaceOnUse">
<stop stop-color="#3C417C"/>
<stop offset="1" stop-color="#0C0D1C"/>
</linearGradient>
<radialGradient id="paint12_radial_989_7682" cx="0" cy="0" r="1" gradientUnits="userSpaceOnUse" gradientTransform="translate(898.014 893.641) rotate(-84.6361) scale(303.131 313.29)">
<stop offset="0.477659" stop-color="#292C3E"/>
<stop offset="1" stop-color="#2D3044" stop-opacity="0"/>
</radialGradient>
<radialGradient id="paint13_radial_989_7682" cx="0" cy="0" r="1" gradientUnits="userSpaceOnUse" gradientTransform="translate(1113.22 559.187) rotate(174.18) scale(126.371 47.9897)">
<stop stop-color="#2C2F42"/>
<stop offset="0.52458" stop-color="#2B2E40"/>
<stop offset="0.974002" stop-color="#262837"/>
</radialGradient>
<radialGradient id="paint14_radial_989_7682" cx="0" cy="0" r="1" gradientUnits="userSpaceOnUse" gradientTransform="translate(1113.22 559.187) rotate(173.891) scale(130.834 49.6844)">
<stop stop-color="#2C2F42"/>
<stop offset="0.791667" stop-color="#313567"/>
<stop offset="1" stop-color="#2E3263"/>
</radialGradient>
<radialGradient id="paint15_radial_989_7682" cx="0" cy="0" r="1" gradientUnits="userSpaceOnUse" gradientTransform="translate(1108.4 503.082) rotate(72.7185) scale(95.5486 205.205)">
<stop offset="0.140928" stop-color="#252737"/>
<stop offset="1" stop-color="#272A3B"/>
</radialGradient>
<radialGradient id="paint16_radial_989_7682" cx="0" cy="0" r="1" gradientUnits="userSpaceOnUse" gradientTransform="translate(128.558 181.983) rotate(-97.2568) scale(182.491 148.312)">
<stop stop-color="#2D3041"/>
<stop offset="0.596662" stop-color="#2B2E41"/>
<stop offset="1" stop-color="#242635"/>
</radialGradient>
<radialGradient id="paint17_radial_989_7682" cx="0" cy="0" r="1" gradientUnits="userSpaceOnUse" gradientTransform="translate(302.492 138.575) rotate(142.397) scale(318.966 300.84)">
<stop stop-color="#252737"/>
<stop offset="0.60513" stop-color="#2C2F42"/>
<stop offset="0.841688" stop-color="#262838"/>
<stop offset="1" stop-color="#252737"/>
</radialGradient>
</defs>
</svg>
