<svg width="360" height="640" viewBox="0 0 360 640" fill="none" xmlns="http://www.w3.org/2000/svg">
<mask id="mask0_1003_5984" style="mask-type:alpha" maskUnits="userSpaceOnUse" x="0" y="0" width="360" height="640">
<rect width="360" height="640" fill="#F7E2ED"/>
</mask>
<g mask="url(#mask0_1003_5984)">
<path fill-rule="evenodd" clip-rule="evenodd" d="M224.528 572.373C223.326 570.411 223.174 568.34 225.14 566.242C230.47 560.556 246.414 564.136 265.374 568.393C272.133 569.91 279.276 571.514 286.457 572.814C455.257 589.89 587 732.423 587 905.725C587 1090.53 437.183 1240.35 252.374 1240.35C67.5655 1240.35 -82.2515 1090.53 -82.2515 905.725C-82.2515 840.213 -82.1908 802.745 -49.6536 751.142C-20.3228 698.236 23.6073 654.259 74.7008 623.014C81.3654 617.35 94.0496 606.358 99.8601 600.548C106.541 593.867 113.312 595.422 116.884 600.842C151.316 585.521 187.826 575.709 224.528 572.373Z" fill="url(#paint0_linear_1003_5984)"/>
<path fill-rule="evenodd" clip-rule="evenodd" d="M313.172 502.7C302.257 497.756 294.26 491.872 295.309 489.557C296 488.03 300.454 488.437 306.538 490.309C305.489 491.4 304.648 492.691 304.077 494.12C307.183 495.583 308.53 496.16 314.447 498.816C320.364 501.471 322.135 502.153 325.723 503.668C326.341 502.395 326.737 500.994 326.862 499.516C332.281 502.854 335.524 505.934 334.832 507.461C333.783 509.776 324.086 507.644 313.172 502.7Z" fill="#FF8A01"/>
<path d="M303.237 498.509C303.237 505.044 308.535 510.342 315.07 510.342C321.606 510.342 326.904 505.044 326.904 498.509C326.904 491.973 321.606 486.675 315.07 486.675C308.535 486.675 303.237 491.973 303.237 498.509Z" fill="#393951"/>
<path fill-rule="evenodd" clip-rule="evenodd" d="M313.172 502.7C302.257 497.756 294.26 491.872 295.309 489.557C296 488.03 300.454 488.437 306.538 490.309C305.489 491.4 304.648 492.691 304.077 494.12C307.183 495.584 308.53 496.16 314.447 498.816C320.364 501.471 322.135 502.153 325.723 503.668C326.341 502.395 326.737 500.994 326.862 499.516C332.281 502.854 335.524 505.934 334.832 507.461C333.783 509.776 324.086 507.644 313.172 502.7Z" fill="#393951"/>
<path fill-rule="evenodd" clip-rule="evenodd" d="M25.3832 564.618C28.5795 559.357 33.0665 556.616 34.9105 555.903C35.7082 557.712 36.9368 562.824 35.4696 568.803C33.6357 576.276 27.1472 590.896 26.6375 591.106C26.6095 591.118 26.5873 591.162 26.5699 591.235L28.9554 606.291L20.1406 602.908C17.4939 608.71 12.0749 617.717 10.9061 613.924C10.1154 611.359 11.1387 605.351 12.414 599.943L4.33008 596.84L10.1054 592.163C11.1138 591.169 12.2536 590.133 13.2495 589.229C14.7409 587.874 15.9095 586.813 15.8307 586.622C15.6199 586.113 21.3879 571.194 25.3832 564.618Z" fill="url(#paint1_linear_1003_5984)"/>
<path d="M4.19639 574.716C1.56672 576.294 1.56672 577.674 1.23801 578.66C0.909306 578.003 0.580597 576.622 -2.04907 575.045C-0.0768204 573.072 0.251888 572.415 0.909306 571.1C1.23801 571.757 1.56672 573.138 4.19639 574.716Z" fill="#393951"/>
<path d="M1.23801 578.66L0.790801 578.884L1.33064 579.964L1.71236 578.818L1.23801 578.66ZM4.19639 574.716L4.45364 575.145L5.16822 574.716L4.45364 574.287L4.19639 574.716ZM0.909306 571.1L1.35652 570.876L0.909306 569.982L0.462092 570.876L0.909306 571.1ZM-2.04907 575.045L-2.40263 574.691L-2.85545 575.144L-2.30632 575.473L-2.04907 575.045ZM1.71236 578.818C1.9109 578.223 1.94993 577.767 2.29142 577.153C2.60981 576.58 3.19675 575.899 4.45364 575.145L3.93914 574.287C2.56636 575.111 1.83847 575.909 1.41726 576.667C1.01916 577.384 0.893839 578.112 0.763673 578.502L1.71236 578.818ZM0.462092 571.324C0.591591 571.583 0.801752 572.188 1.28493 572.856C1.78208 573.543 2.57514 574.326 3.93914 575.145L4.45364 574.287C3.18798 573.528 2.50184 572.832 2.09505 572.27C1.67428 571.688 1.55573 571.275 1.35652 570.876L0.462092 571.324ZM1.68523 578.437C1.55573 578.178 1.34557 577.572 0.86239 576.904C0.365237 576.217 -0.427817 575.434 -1.79182 574.616L-2.30632 575.473C-1.04066 576.233 -0.354523 576.929 0.0522728 577.491C0.473043 578.072 0.591591 578.486 0.790801 578.884L1.68523 578.437ZM0.462092 570.876C0.132327 571.536 -0.0985144 571.996 -0.483687 572.535C-0.871137 573.078 -1.42416 573.713 -2.40263 574.691L-1.69552 575.398C-0.701733 574.404 -0.104275 573.724 0.330046 573.116C0.766645 572.505 1.02887 571.979 1.35652 571.324L0.462092 570.876Z" fill="#393951"/>
<path d="M20.6332 363.685C18.0035 365.263 18.0035 366.643 17.6748 367.629C17.3461 366.972 17.0174 365.591 14.3877 364.014C16.3599 362.041 16.6887 361.384 17.3461 360.069C17.6748 360.726 18.0035 362.107 20.6332 363.685Z" fill="#393951"/>
<path d="M17.6748 367.629L17.2276 367.853L17.7674 368.933L18.1491 367.787L17.6748 367.629ZM20.6332 363.685L20.8904 364.114L21.605 363.685L20.8904 363.256L20.6332 363.685ZM17.3461 360.069L17.7933 359.845L17.3461 358.951L16.8989 359.845L17.3461 360.069ZM14.3877 364.014L14.0341 363.66L13.5813 364.113L14.1304 364.442L14.3877 364.014ZM18.1491 367.787C18.3477 367.192 18.3867 366.736 18.7282 366.122C19.0466 365.549 19.6335 364.868 20.8904 364.114L20.3759 363.256C19.0031 364.08 18.2752 364.878 17.854 365.636C17.4559 366.353 17.3306 367.081 17.2004 367.471L18.1491 367.787ZM16.8989 360.293C17.0284 360.552 17.2385 361.157 17.7217 361.825C18.2189 362.512 19.0119 363.295 20.3759 364.114L20.8904 363.256C19.6247 362.497 18.9386 361.801 18.5318 361.239C18.111 360.657 17.9925 360.244 17.7933 359.845L16.8989 360.293ZM18.122 367.406C17.9925 367.147 17.7823 366.541 17.2992 365.873C16.802 365.186 16.009 364.403 14.6449 363.585L14.1304 364.442C15.3961 365.202 16.0822 365.898 16.489 366.46C16.9098 367.041 17.0284 367.455 17.2276 367.853L18.122 367.406ZM16.8989 359.845C16.5691 360.505 16.3383 360.965 15.9531 361.504C15.5656 362.047 15.0126 362.682 14.0341 363.66L14.7412 364.367C15.735 363.373 16.3325 362.693 16.7668 362.085C17.2034 361.474 17.4656 360.948 17.7933 360.293L16.8989 359.845Z" fill="#393951"/>
<path d="M344.081 412.334C341.452 413.912 341.452 415.292 341.123 416.278C340.794 415.621 340.466 414.24 337.836 412.662C339.808 410.69 340.137 410.033 340.794 408.718C341.123 409.375 341.452 410.756 344.081 412.334Z" fill="#393951"/>
<path d="M341.123 416.278L340.676 416.502L341.216 417.582L341.597 416.436L341.123 416.278ZM344.081 412.334L344.339 412.762L345.053 412.334L344.339 411.905L344.081 412.334ZM340.794 408.718L341.242 408.494L340.794 407.6L340.347 408.494L340.794 408.718ZM337.836 412.662L337.482 412.309L337.03 412.762L337.579 413.091L337.836 412.662ZM341.597 416.436C341.796 415.841 341.835 415.385 342.176 414.771C342.495 414.198 343.082 413.517 344.339 412.762L343.824 411.905C342.451 412.729 341.723 413.527 341.302 414.285C340.904 415.002 340.779 415.73 340.649 416.12L341.597 416.436ZM340.347 408.942C340.477 409.201 340.687 409.806 341.17 410.474C341.667 411.161 342.46 411.944 343.824 412.762L344.339 411.905C343.073 411.146 342.387 410.45 341.98 409.888C341.559 409.306 341.441 408.893 341.242 408.494L340.347 408.942ZM341.57 416.055C341.441 415.796 341.231 415.19 340.747 414.522C340.25 413.835 339.457 413.052 338.093 412.234L337.579 413.091C338.844 413.851 339.53 414.546 339.937 415.109C340.358 415.69 340.477 416.103 340.676 416.502L341.57 416.055ZM340.347 408.494C340.017 409.154 339.786 409.614 339.401 410.153C339.014 410.695 338.461 411.33 337.482 412.309L338.189 413.016C339.183 412.022 339.781 411.342 340.215 410.734C340.652 410.123 340.914 409.597 341.242 408.942L340.347 408.494Z" fill="#393951"/>
<path d="M164.745 362.471C162.116 364.049 162.116 365.43 161.787 366.416C161.458 365.758 161.13 364.378 158.5 362.8C160.472 360.828 160.801 360.17 161.458 358.856C161.787 359.513 162.116 360.894 164.745 362.471Z" fill="#393951"/>
<path d="M161.787 366.416L161.34 366.639L161.88 367.719L162.261 366.574L161.787 366.416ZM164.745 362.471L165.003 362.9L165.717 362.471L165.003 362.043L164.745 362.471ZM161.458 358.856L161.906 358.632L161.458 357.738L161.011 358.632L161.458 358.856ZM158.5 362.8L158.146 362.447L157.694 362.899L158.243 363.229L158.5 362.8ZM162.261 366.574C162.46 365.978 162.499 365.523 162.84 364.908C163.159 364.335 163.746 363.654 165.003 362.9L164.488 362.043C163.115 362.866 162.388 363.665 161.966 364.423C161.568 365.139 161.443 365.867 161.313 366.258L162.261 366.574ZM161.011 359.079C161.141 359.338 161.351 359.944 161.834 360.611C162.331 361.298 163.124 362.082 164.488 362.9L165.003 362.043C163.737 361.283 163.051 360.587 162.644 360.025C162.223 359.444 162.105 359.03 161.906 358.632L161.011 359.079ZM162.234 366.192C162.105 365.933 161.895 365.328 161.411 364.66C160.914 363.973 160.121 363.19 158.757 362.371L158.243 363.229C159.508 363.988 160.195 364.684 160.601 365.246C161.022 365.828 161.141 366.241 161.34 366.639L162.234 366.192ZM161.011 358.632C160.681 359.291 160.451 359.751 160.065 360.291C159.678 360.833 159.125 361.468 158.146 362.447L158.854 363.154C159.847 362.16 160.445 361.48 160.879 360.872C161.316 360.261 161.578 359.734 161.906 359.079L161.011 358.632Z" fill="#393951"/>
<path d="M321.146 235.488C318.517 237.066 318.517 238.447 318.188 239.433C317.859 238.776 317.531 237.395 314.901 235.817C316.873 233.845 317.202 233.187 317.859 231.873C318.188 232.53 318.517 233.911 321.146 235.488Z" fill="#393951"/>
<path d="M318.188 239.433L317.741 239.657L318.281 240.736L318.662 239.591L318.188 239.433ZM321.146 235.488L321.404 235.917L322.118 235.488L321.404 235.06L321.146 235.488ZM317.859 231.873L318.306 231.649L317.859 230.755L317.412 231.649L317.859 231.873ZM314.901 235.817L314.547 235.464L314.095 235.916L314.644 236.246L314.901 235.817ZM318.662 239.591C318.861 238.995 318.9 238.54 319.241 237.925C319.56 237.352 320.147 236.671 321.404 235.917L320.889 235.06C319.516 235.883 318.788 236.682 318.367 237.44C317.969 238.156 317.844 238.884 317.714 239.275L318.662 239.591ZM317.412 232.096C317.542 232.355 317.752 232.961 318.235 233.629C318.732 234.315 319.525 235.099 320.889 235.917L321.404 235.06C320.138 234.3 319.452 233.604 319.045 233.042C318.624 232.461 318.506 232.047 318.306 231.649L317.412 232.096ZM318.635 239.209C318.506 238.95 318.296 238.345 317.812 237.677C317.315 236.99 316.522 236.207 315.158 235.388L314.644 236.246C315.909 237.005 316.595 237.701 317.002 238.263C317.423 238.845 317.542 239.258 317.741 239.657L318.635 239.209ZM317.412 231.649C317.082 232.309 316.851 232.768 316.466 233.308C316.079 233.85 315.526 234.485 314.547 235.464L315.254 236.171C316.248 235.177 316.846 234.497 317.28 233.889C317.717 233.278 317.979 232.752 318.306 232.096L317.412 231.649Z" fill="#393951"/>
<path d="M182.358 539.873C179.728 541.45 179.728 542.831 179.399 543.817C179.071 543.16 178.742 541.779 176.112 540.201C178.085 538.229 178.413 537.572 179.071 536.257C179.399 536.914 179.728 538.295 182.358 539.873Z" fill="#393951"/>
<path d="M179.399 543.817L178.952 544.041L179.492 545.12L179.874 543.975L179.399 543.817ZM182.358 539.873L182.615 540.301L183.33 539.873L182.615 539.444L182.358 539.873ZM179.071 536.257L179.518 536.033L179.071 535.139L178.623 536.033L179.071 536.257ZM176.112 540.201L175.759 539.848L175.306 540.301L175.855 540.63L176.112 540.201ZM179.874 543.975C180.072 543.38 180.111 542.924 180.453 542.31C180.771 541.737 181.358 541.056 182.615 540.301L182.101 539.444C180.728 540.268 180 541.066 179.579 541.824C179.181 542.541 179.055 543.269 178.925 543.659L179.874 543.975ZM178.623 536.48C178.753 536.739 178.963 537.345 179.446 538.013C179.943 538.7 180.737 539.483 182.101 540.301L182.615 539.444C181.349 538.685 180.663 537.989 180.256 537.426C179.836 536.845 179.717 536.432 179.518 536.033L178.623 536.48ZM179.847 543.594C179.717 543.335 179.507 542.729 179.024 542.061C178.527 541.374 177.734 540.591 176.37 539.773L175.855 540.63C177.121 541.389 177.807 542.085 178.214 542.648C178.634 543.229 178.753 543.642 178.952 544.041L179.847 543.594ZM178.623 536.033C178.294 536.693 178.063 537.153 177.678 537.692C177.29 538.234 176.737 538.869 175.759 539.848L176.466 540.555C177.46 539.561 178.057 538.881 178.491 538.273C178.928 537.662 179.19 537.136 179.518 536.48L178.623 536.033Z" fill="#393951"/>
<path d="M113.674 422.612C114.888 419.699 119.986 418.821 122.611 418.238C125.506 417.595 130 416.294 130.971 417.832C131.942 419.369 140.058 463.159 139.41 463.888C138.763 464.616 123.305 466.478 121.362 465.264C119.42 464.05 112.46 425.526 113.674 422.612Z" fill="#F4F5F7"/>
<path fill-rule="evenodd" clip-rule="evenodd" d="M126.881 408.556C124.176 408.175 121.588 407.064 119.844 404.794C114.818 398.255 124.588 392.012 129.009 393.641C133.431 395.27 140.22 403.327 138.558 405.792C137.896 406.775 135.584 407.856 132.726 408.384L141.229 415.62L134.325 421.741L126.881 408.556Z" fill="#FFB287"/>
<path fill-rule="evenodd" clip-rule="evenodd" d="M123.282 392.675C122.083 393.223 120.627 394.34 120.11 394.917C119.742 393.841 119.096 392.851 118.235 392.093C117.398 391.357 116.403 390.98 115.407 390.545C114.947 390.344 114.469 390.164 113.971 390.14C113.465 390.115 112.966 390.245 112.532 390.481C112.088 390.722 111.708 391.071 111.408 391.476C111.275 391.655 111.195 391.859 111.072 392.043C110.945 392.231 110.775 392.199 110.564 392.201C110.057 392.207 109.527 392.457 109.126 392.735C108.675 393.047 108.307 393.483 108.037 393.961C107.774 394.426 107.599 394.96 107.599 395.511C107.599 395.756 107.627 396.01 107.708 396.246C107.741 396.343 107.774 396.389 107.726 396.478C107.682 396.56 107.606 396.628 107.559 396.711C107.103 397.509 106.992 398.507 107.262 399.422C107.419 399.957 107.924 400.695 108.607 401.419C109.29 402.143 111.685 403.49 112.942 403.641C114.063 403.776 115.258 403.462 116.216 402.939C116.223 404.011 116.541 405.078 116.961 406.076C117.418 407.16 118.011 408.181 118.729 409.121C119.411 410.014 120.192 410.906 121.116 411.553C121.981 412.157 122.932 412.438 123.943 412.255C124.406 412.172 124.851 412.022 125.288 411.859C125.719 411.699 126.147 411.534 126.545 411.305C127.297 410.873 128.01 410.201 128.051 409.26C128.066 408.921 128.057 408.52 127.988 408.183C127.963 408.062 127.945 407.984 127.819 407.956C127.668 407.922 127.495 407.947 127.344 407.95C126.479 407.969 125.678 407.681 125.012 407.086C124.336 406.481 123.746 405.451 124.141 404.576C124.628 403.496 125.887 403.123 126.951 402.874C126.3 401.525 126.067 399.999 126.612 398.632C127.214 397.121 128.406 395.95 129.108 394.489C129.291 394.109 129.464 393.707 129.458 393.268C129.455 393.084 129.44 392.856 129.354 392.686C129.241 392.463 128.989 392.415 128.774 392.354C127.633 392.03 124.48 392.126 123.282 392.675Z" fill="#393951"/>
<path fill-rule="evenodd" clip-rule="evenodd" d="M147.76 452.324L196.378 479.4L235.113 503.658L239.108 501.351L163.965 442.968L147.76 452.324Z" fill="white"/>
<path fill-rule="evenodd" clip-rule="evenodd" d="M231.738 503.454C231.94 504.663 232.183 505.515 232.468 506.008C232.815 506.609 233.42 507.427 234.286 508.463C234.982 508.061 241.241 504.447 253.064 497.622C252.62 495.727 251.836 495.019 250.71 495.497C249.584 495.975 248.644 496.363 247.889 496.661L236.914 497.809C236.703 497.831 236.55 498.02 236.572 498.232C236.572 498.235 236.573 498.239 236.573 498.242L236.798 499.927C236.087 500.943 235.427 501.627 234.819 501.978C234.324 502.264 233.526 502.458 232.425 502.562L232.425 502.562C232.002 502.602 231.691 502.977 231.731 503.399C231.733 503.418 231.735 503.436 231.738 503.454Z" fill="#FFCA00"/>
<path d="M252.988 497.229C252.741 497.078 240.176 504.265 233.925 507.877C233.858 508.211 234.172 508.527 234.438 508.77C234.705 509.013 253.179 498.466 253.356 498.06C253.532 497.654 253.297 497.417 252.988 497.229Z" fill="#CBA71E"/>
<path fill-rule="evenodd" clip-rule="evenodd" d="M226.729 501.033L233.088 494.254C223.886 486.112 213.338 477.397 201.443 468.107C189.548 458.817 177.536 450.16 165.406 442.137L143.646 454.699C158.129 465.346 172.236 474.474 185.967 482.081C199.697 489.689 213.285 496.006 226.729 501.033Z" fill="url(#paint2_radial_1003_5984)"/>
<path fill-rule="evenodd" clip-rule="evenodd" d="M146.134 453.263C152.191 469.145 158.408 490.314 158.314 491.132C158.251 491.678 150.024 500.984 133.634 519.053L136.531 522.077C158.521 504.766 169.611 494.783 169.8 492.128C170.083 488.145 166.691 459.934 162.409 443.866L146.134 453.263Z" fill="#F4F5F7"/>
<path fill-rule="evenodd" clip-rule="evenodd" d="M138.948 511.925L143.744 516.721C162.595 507.936 172.932 500.451 174.755 494.268C176.579 488.085 172.885 471.041 163.675 443.136L142.926 455.115C151.427 477.412 155.731 489.1 155.839 490.18C155.946 491.261 150.315 498.509 138.948 511.925Z" fill="url(#paint3_radial_1003_5984)"/>
<path fill-rule="evenodd" clip-rule="evenodd" d="M133.772 517.016C132.616 517.425 131.82 517.812 131.383 518.179C130.852 518.624 130.151 519.363 129.281 520.395C129.798 521.011 134.444 526.548 143.219 537.005C145.008 536.239 145.569 535.344 144.903 534.318C144.236 533.293 143.69 532.434 143.266 531.742L140.23 521.134C140.171 520.93 139.958 520.812 139.754 520.87C139.751 520.871 139.747 520.872 139.744 520.873L138.124 521.387C137 520.863 136.212 520.332 135.76 519.794C135.393 519.357 135.063 518.604 134.77 517.537L134.77 517.537C134.657 517.128 134.234 516.887 133.825 517C133.807 517.005 133.789 517.01 133.772 517.016Z" fill="#FFCA00"/>
<path fill-rule="evenodd" clip-rule="evenodd" d="M173.267 418.904L179.648 410.572C178.849 405.558 179.265 402.675 180.895 401.923C181.898 400.78 182.202 407.427 184.377 405.881C186.553 404.334 190.478 397.421 191.873 397.859C193.935 398.508 194.372 403.098 193.686 405.778C192.404 410.789 190.545 413.128 185.3 417.43C182.557 419.679 179.946 422.915 177.467 427.139L173.267 418.904Z" fill="#F4F5F7"/>
<mask id="mask1_1003_5984" style="mask-type:alpha" maskUnits="userSpaceOnUse" x="173" y="397" width="21" height="31">
<path fill-rule="evenodd" clip-rule="evenodd" d="M173.268 418.903L179.648 410.572C178.85 405.558 179.266 402.675 180.896 401.923C181.899 400.78 182.203 407.427 184.378 405.881C186.553 404.334 190.479 397.421 191.873 397.859C193.936 398.508 194.373 403.098 193.687 405.778C192.405 410.789 190.546 413.128 185.3 417.43C182.557 419.679 179.946 422.915 177.467 427.139L173.268 418.903Z" fill="url(#paint4_linear_1003_5984)"/>
</mask>
<g mask="url(#mask1_1003_5984)">
<path d="M179.201 409.125C178.934 409.296 179.169 410.959 179.32 411.769C179.582 411.936 182.631 417.509 184.989 418.129C187.347 418.748 188.991 416.247 189.206 415.747C189.42 415.247 182.917 409.625 181.631 408.91C180.344 408.196 179.534 408.91 179.201 409.125Z" fill="#F4F5F7"/>
</g>
<path d="M159.534 411.107L146.733 428.921L152.942 430.504L162.905 414.039C167.129 409.754 168.841 407.415 168.042 407.022C166.844 406.432 165.966 408.016 165.093 407.749C164.219 407.481 164.08 404.864 164.054 402.374C164.027 399.885 162.99 400.701 162.499 401.345C161.209 404.002 160.221 407.256 159.534 411.107Z" fill="#F4F5F7"/>
<mask id="mask2_1003_5984" style="mask-type:alpha" maskUnits="userSpaceOnUse" x="146" y="400" width="23" height="31">
<path d="M159.534 411.107L146.733 428.921L152.942 430.504L162.905 414.039C167.129 409.754 168.841 407.415 168.042 407.022C166.844 406.432 165.966 408.016 165.093 407.749C164.219 407.481 164.08 404.864 164.054 402.374C164.027 399.884 162.99 400.701 162.499 401.345C161.209 404.002 160.221 407.256 159.534 411.107Z" fill="#E1E1E1"/>
</mask>
<g mask="url(#mask2_1003_5984)">
<path d="M165.2 412.434C165.234 412.178 161.411 410.561 159.496 409.785C159.271 409.55 158.438 411.591 158.363 412.146C158.288 412.701 162.839 414.154 163.811 414.346C164.783 414.539 165.157 412.755 165.2 412.434Z" fill="#B9B9B9"/>
</g>
<path fill-rule="evenodd" clip-rule="evenodd" d="M146.204 423.688C150.227 421.309 155.131 417.337 158.779 410.357L163.953 414.095C162.257 420.331 158.541 426.795 153.578 429.478C149.667 431.592 145.011 428.072 146.204 423.688Z" fill="#F4F5F7"/>
<path fill-rule="evenodd" clip-rule="evenodd" d="M156.324 428.63C161.24 427.221 167.716 421.797 175.753 412.358C181.259 416.1 184.555 419.131 185.642 421.45C179.582 430.992 173.311 437.307 167.261 440.978C169.555 444.501 171.11 448.216 171.448 452.235C172.144 460.498 150.774 464.811 145.441 469.47C134.608 459.408 139.023 450.229 134.508 442.396C129.564 433.818 128.829 416.644 129.842 416.06L139.08 410.726C143.37 416.98 150.102 422.716 156.324 428.63Z" fill="#F4F5F7"/>
<path d="M129.399 463.658C131.963 525.524 -4.94454 544.202 -4.94454 372.714C-4.94454 170.124 -38.4278 216.749 -82.2542 222.988" stroke="url(#paint5_linear_1003_5984)" stroke-width="5"/>
<path d="M185.974 423.181C185.974 422.392 177.866 415.621 173.812 412.334C173.812 411.348 174.798 407.732 176.113 407.732C177.428 407.732 189.59 418.908 189.919 419.237C190.247 419.565 185.974 424.167 185.974 423.181Z" fill="#F4F5F7"/>
<path d="M164.165 416.79C164.092 416.398 159.236 413.821 156.818 412.582C156.726 412.091 156.902 410.197 157.587 410.068C158.272 409.94 165.65 414.311 165.852 414.443C166.054 414.574 164.257 417.281 164.165 416.79Z" fill="#F4F5F7"/>
<rect x="125.954" y="464.346" width="6.75866" height="2.81014" rx="1.40507" transform="rotate(-5.51925 125.954 464.346)" fill="#F4F5F7"/>
<path d="M115.151 419.137C116.957 418.466 118.574 420.486 117.525 422.101L114.678 426.485C114.354 426.984 113.81 427.299 113.216 427.33C112.188 427.386 111.311 426.597 111.256 425.57L111.073 422.151C111.026 421.277 111.553 420.474 112.374 420.169L115.151 419.137Z" fill="#F4F5F7"/>
<path d="M142.472 447.765C146.077 451.369 158.674 444.884 161.52 443.355C158.335 446.59 143.368 454.004 141.261 451.78C138.971 449.363 135.346 432.495 135.728 434.149C136.11 435.803 138.496 443.788 142.472 447.765Z" fill="#F4F5F7"/>
<path d="M160.468 460.665C160.753 460.433 161.014 460.23 161.236 460.066C161.141 460.195 160.871 460.402 160.468 460.665C158.923 461.922 156.671 464.043 156.066 465.719C155.17 468.2 149.448 471.923 149.172 471.647C148.897 471.371 146.897 467.718 147.725 467.373C148.448 467.072 157.661 462.499 160.468 460.665Z" fill="#F4F5F7"/>
<path d="M168.28 457.504C168.139 458.302 171.209 468.462 172.775 474.276C173.037 475.251 177.825 477.153 177.12 476.859C176.416 476.566 168.456 456.505 168.28 457.504Z" fill="#F4F5F7"/>
<path d="M109.208 431.415C110.106 429.258 113.88 428.608 115.823 428.176C117.966 427.7 121.37 427.64 122.089 428.778C122.808 429.917 128.739 461.431 128.26 461.971C127.781 462.51 116.337 463.888 114.899 462.989C113.461 462.09 108.309 433.571 109.208 431.415Z" fill="#F4F5F7"/>
<path d="M113.377 421.294C114.591 418.38 119.689 417.503 122.314 416.919C125.209 416.276 129.703 414.975 130.674 416.513C131.645 418.051 139.761 461.841 139.113 462.569C138.466 463.297 123.008 465.159 121.066 463.945C119.123 462.731 112.163 424.207 113.377 421.294Z" fill="#F4F5F7"/>
<mask id="mask3_1003_5984" style="mask-type:alpha" maskUnits="userSpaceOnUse" x="109" y="427" width="20" height="37">
<path d="M109.208 431.415C110.106 429.258 113.88 428.608 115.823 428.176C117.966 427.7 121.37 427.64 122.089 428.778C122.808 429.917 128.739 461.431 128.26 461.971C127.781 462.51 116.337 463.888 114.899 462.989C113.461 462.09 108.309 433.571 109.208 431.415Z" fill="white"/>
</mask>
<g mask="url(#mask3_1003_5984)">
<path d="M113.1 441.043C113.07 440.892 111.04 429.378 110.585 429.044" stroke="#FFCA00" stroke-width="3"/>
</g>
<path d="M123.882 459.492C123.175 459.223 120.305 443.556 118.958 435.756C118.706 428.139 128.47 427.97 129.774 433.526C129.957 434.303 135.161 457.893 135.035 458.482C134.909 459.072 124.766 459.829 123.882 459.492Z" fill="white"/>
<path d="M122.559 457.632C121.726 457.315 118.345 438.857 116.758 429.669C116.461 420.695 127.963 420.496 129.5 427.041C129.715 427.957 135.847 455.748 135.698 456.442C135.549 457.136 123.6 458.029 122.559 457.632Z" fill="url(#paint6_linear_1003_5984)"/>
<path d="M122.784 458.727C122.218 458.205 122.258 457.602 122.348 457.367C123.328 456.006 135.247 455.135 135.737 455.571C136.227 456.006 135.846 456.768 135.737 457.367C135.628 457.965 123.491 459.38 122.784 458.727Z" fill="#F4F5F7"/>
<path d="M157.112 437.355C160.283 441.115 162.359 442.054 163.318 442.015C160.725 444.757 148.141 450.032 146.194 447.592C144.441 445.396 139.761 433.779 138.487 431.215C138.298 431.095 138.188 430.97 138.169 430.838C138.132 430.576 138.251 430.74 138.487 431.215C140.703 432.626 153.77 433.393 157.112 437.355Z" fill="white"/>
<circle cx="126.226" cy="394.132" r="22.3522" fill="url(#paint7_linear_1003_5984)"/>
<mask id="mask4_1003_5984" style="mask-type:alpha" maskUnits="userSpaceOnUse" x="103" y="371" width="46" height="46">
<circle cx="126.226" cy="394.132" r="22.3522" fill="white"/>
</mask>
<g mask="url(#mask4_1003_5984)">
<path d="M144.781 406.072C146.24 404.98 140.016 413.542 137.167 415.761C137.167 416.22 125.061 420.867 123.225 420.294C121.389 419.72 122.766 419.777 122.536 418.113C122.307 416.449 133.093 411.859 134.298 411.228C135.503 410.597 140.737 409.098 144.781 406.072Z" fill="#F4F5F7"/>
</g>
<path d="M110.879 384.749C126.242 371.242 139.765 382.523 139.019 381.304C135.66 375.82 129.328 373.643 124.906 374.142C118.59 374.854 113.006 377.74 110.879 384.749Z" fill="#393951"/>
<path d="M145.105 391.474C144.831 390.262 143.657 387.866 143.098 387.005C144.9 387.096 145.261 388.279 145.515 388.631C145.77 388.983 145.38 392.685 145.105 391.474Z" fill="#393951"/>
<circle cx="141.583" cy="424.836" r="4.82423" fill="#FFCA00"/>
<path d="M144.545 464.947C143.736 463.624 138.075 455.242 137.561 454.506C137.945 460.084 141.728 467.313 144.049 467.943C144.758 468.136 145.354 466.27 144.545 464.947Z" fill="#F4F5F7"/>
<mask id="mask5_1003_5984" style="mask-type:alpha" maskUnits="userSpaceOnUse" x="-83" y="563" width="670" height="678">
<path fill-rule="evenodd" clip-rule="evenodd" d="M224.528 572.373C223.326 570.411 223.175 568.34 225.14 566.242C230.47 560.556 246.414 564.136 265.374 568.393C272.133 569.91 279.275 571.514 286.457 572.814C455.256 589.89 587 732.423 587 905.725C587 1090.53 437.183 1240.35 252.374 1240.35C67.5655 1240.35 -82.2515 1090.53 -82.2515 905.725C-82.2515 840.213 -82.1908 802.745 -49.6536 751.142C-20.3227 698.236 23.6074 654.259 74.701 623.014C81.3655 617.35 94.0496 606.358 99.8601 600.548C106.541 593.867 113.312 595.422 116.884 600.842C151.316 585.521 187.826 575.709 224.528 572.373Z" fill="url(#paint8_linear_1003_5984)"/>
</mask>
<g mask="url(#mask5_1003_5984)">
<path d="M221.769 701.315C88.5249 749.502 -30.1664 705.469 -8.119 636.877C64.8912 358.983 336.376 533.606 337.289 552.771C338.202 571.936 388.323 641.082 221.769 701.315Z" fill="url(#paint9_radial_1003_5984)"/>
<g filter="url(#filter0_f_1003_5984)">
<path d="M459.334 880.029C362.554 1004.11 244.093 1002.56 222.726 915.923C143.916 596.379 461.895 616.57 486.276 686.364C494.2 709.05 580.308 724.931 459.334 880.029Z" fill="url(#paint10_radial_1003_5984)"/>
</g>
</g>
<mask id="mask6_1003_5984" style="mask-type:alpha" maskUnits="userSpaceOnUse" x="-83" y="571" width="670" height="670">
<path d="M586.997 905.726C586.997 1090.53 437.18 1240.35 252.371 1240.35C67.5628 1240.35 -82.2542 1090.53 -82.2542 905.726C-82.2542 847.076 -74.4466 795.783 -47.9392 747.851C9.07923 644.748 126.213 571.1 252.371 571.1C437.18 571.1 586.997 720.917 586.997 905.726Z" fill="url(#paint11_linear_1003_5984)"/>
</mask>
<g mask="url(#mask6_1003_5984)">
<ellipse cx="56.3544" cy="811.769" rx="196.198" ry="189.363" transform="rotate(56.6945 56.3544 811.769)" fill="url(#paint12_radial_1003_5984)"/>
</g>
<path d="M184.376 567.247C230.118 560.806 270.454 560.336 265.376 580.412C260.297 600.489 230.118 627.078 184.376 633.52C138.633 639.961 86.9173 633.513 91.9957 613.437C97.0741 593.361 138.633 573.688 184.376 567.247Z" fill="url(#paint13_radial_1003_5984)"/>
<mask id="mask7_1003_5984" style="mask-type:alpha" maskUnits="userSpaceOnUse" x="91" y="563" width="175" height="73">
<path d="M184.376 567.247C230.118 560.806 270.454 560.336 265.376 580.412C260.297 600.489 230.118 627.078 184.376 633.52C138.633 639.961 86.9173 633.513 91.9957 613.437C97.0741 593.361 138.633 573.688 184.376 567.247Z" fill="url(#paint14_radial_1003_5984)"/>
</mask>
<g mask="url(#mask7_1003_5984)">
<g filter="url(#filter1_f_1003_5984)">
<path d="M254.353 598.321C270.121 550.685 50.6826 600.212 139.886 631.188C131.243 639.831 73.1575 618.818 65.7947 592.888C58.4319 566.958 78.2795 577.843 109.331 556.074C140.383 534.306 230.658 537.507 262.99 538.147C295.322 538.788 290.2 562.477 293.082 573.681C295.386 582.644 259.796 589.038 254.353 598.321Z" fill="url(#paint15_radial_1003_5984)"/>
</g>
</g>
<path d="M183.763 569.671C206.586 566.457 227.863 564.765 242.751 566.323C250.207 567.103 255.863 568.681 259.334 571.139C262.748 573.557 263.924 576.713 262.9 580.761C260.608 589.823 252.526 600.746 239.178 610.314C225.865 619.857 207.443 627.934 184.989 631.096C162.338 634.285 138.222 634.277 120.461 631.007C111.568 629.369 104.402 626.938 99.7988 623.78C95.1415 620.584 93.4979 616.936 94.4713 613.088C95.5353 608.882 98.5372 604.528 103.453 600.127C108.394 595.703 115.137 591.357 123.307 587.34C139.637 579.31 161.118 572.859 183.763 569.671Z" stroke="#393951" stroke-width="5"/>
<path d="M271.647 707.897C212.325 761.918 253.902 919.458 258.234 922.02C313.212 1057.22 138.114 978.154 169.105 817.98C200.096 657.806 330.969 653.875 271.647 707.897Z" fill="#393951"/>
<path d="M360.085 593.806C354.994 593.806 348.092 591.325 345.916 589.068C341.72 584.717 355.712 580.754 360.608 584.189C365.504 587.624 362.732 593.806 360.085 593.806Z" fill="#393951"/>
<path d="M275.261 574.993C275.055 576.764 274.513 578.473 273.286 578.868C270.92 579.629 269.487 574.128 271.418 572.977C273.35 571.825 275.368 574.073 275.261 574.993Z" fill="#393951"/>
<path d="M88.0513 620.058C89.4011 621.221 90.5124 622.629 90.1508 623.866C89.4536 626.252 84.0959 624.353 84.2262 622.108C84.3566 619.862 87.3496 619.453 88.0513 620.058Z" fill="#393951"/>
</g>
<defs>
<filter id="filter0_f_1003_5984" x="190.204" y="623.748" width="353.165" height="373.773" filterUnits="userSpaceOnUse" color-interpolation-filters="sRGB">
<feFlood flood-opacity="0" result="BackgroundImageFix"/>
<feBlend mode="normal" in="SourceGraphic" in2="BackgroundImageFix" result="shape"/>
<feGaussianBlur stdDeviation="10" result="effect1_foregroundBlur_1003_5984"/>
</filter>
<filter id="filter1_f_1003_5984" x="54.2583" y="527.611" width="248.93" height="115.551" filterUnits="userSpaceOnUse" color-interpolation-filters="sRGB">
<feFlood flood-opacity="0" result="BackgroundImageFix"/>
<feBlend mode="normal" in="SourceGraphic" in2="BackgroundImageFix" result="shape"/>
<feGaussianBlur stdDeviation="5" result="effect1_foregroundBlur_1003_5984"/>
</filter>
<linearGradient id="paint0_linear_1003_5984" x1="169.211" y1="577.6" x2="399.022" y2="1062.73" gradientUnits="userSpaceOnUse">
<stop stop-color="#2C2F41"/>
<stop offset="0.283302" stop-color="#2C2F41"/>
<stop offset="0.51521" stop-color="#2C2F41"/>
<stop offset="1" stop-color="#2C2F41"/>
</linearGradient>
<linearGradient id="paint1_linear_1003_5984" x1="20.2421" y1="555.903" x2="8.53443" y2="625.257" gradientUnits="userSpaceOnUse">
<stop stop-color="#383B51"/>
<stop offset="1" stop-color="#383B51"/>
</linearGradient>
<radialGradient id="paint2_radial_1003_5984" cx="0" cy="0" r="1" gradientUnits="userSpaceOnUse" gradientTransform="translate(217.911 446.527) rotate(129.581) scale(74.4036 52.5504)">
<stop stop-color="#C3C3C3"/>
<stop offset="0.52403" stop-color="white"/>
<stop offset="1" stop-color="#C8C8C8"/>
</radialGradient>
<radialGradient id="paint3_radial_1003_5984" cx="0" cy="0" r="1" gradientUnits="userSpaceOnUse" gradientTransform="translate(142.66 488.501) rotate(11.7771) scale(31.5567 32.2838)">
<stop stop-color="#5A5A5A"/>
<stop offset="0.596197" stop-color="#EEEEEE"/>
<stop offset="1" stop-color="white"/>
</radialGradient>
<linearGradient id="paint4_linear_1003_5984" x1="180.222" y1="402.169" x2="188.986" y2="422.066" gradientUnits="userSpaceOnUse">
<stop stop-color="white"/>
<stop offset="1" stop-color="#F9F9F9"/>
</linearGradient>
<linearGradient id="paint5_linear_1003_5984" x1="-26.4227" y1="242.042" x2="201.485" y2="350.38" gradientUnits="userSpaceOnUse">
<stop stop-color="#242635"/>
<stop offset="1" stop-color="#494D69"/>
</linearGradient>
<linearGradient id="paint6_linear_1003_5984" x1="135.173" y1="436.486" x2="118.137" y2="439.257" gradientUnits="userSpaceOnUse">
<stop stop-color="#EFEFEF"/>
<stop offset="0.534453" stop-color="white" stop-opacity="0.465547"/>
<stop offset="1" stop-color="#EFEFEF" stop-opacity="0"/>
</linearGradient>
<linearGradient id="paint7_linear_1003_5984" x1="136.477" y1="359.16" x2="126.226" y2="416.484" gradientUnits="userSpaceOnUse">
<stop stop-color="#7177D1" stop-opacity="0.12"/>
<stop offset="1" stop-color="#242635" stop-opacity="0.22"/>
</linearGradient>
<linearGradient id="paint8_linear_1003_5984" x1="169.211" y1="577.6" x2="399.022" y2="1062.73" gradientUnits="userSpaceOnUse">
<stop stop-color="#3C417C"/>
<stop offset="1" stop-color="#0C0D1C"/>
</linearGradient>
<radialGradient id="paint9_radial_1003_5984" cx="0" cy="0" r="1" gradientUnits="userSpaceOnUse" gradientTransform="translate(167.581 610.078) rotate(87.0275) scale(136.627 245.52)">
<stop stop-color="#2B2E41"/>
<stop offset="0.332336" stop-color="#2C2E41"/>
<stop offset="0.581437" stop-color="#2D3041"/>
</radialGradient>
<radialGradient id="paint10_radial_1003_5984" cx="0" cy="0" r="1" gradientUnits="userSpaceOnUse" gradientTransform="translate(500.24 883.893) rotate(-138.513) scale(293.75 459.845)">
<stop stop-color="#303361" stop-opacity="0.83"/>
<stop offset="0.983218" stop-color="#191B34" stop-opacity="0"/>
</radialGradient>
<linearGradient id="paint11_linear_1003_5984" x1="169.208" y1="585.235" x2="394.702" y2="1066.79" gradientUnits="userSpaceOnUse">
<stop stop-color="#3C417C"/>
<stop offset="1" stop-color="#0C0D1C"/>
</linearGradient>
<radialGradient id="paint12_radial_1003_5984" cx="0" cy="0" r="1" gradientUnits="userSpaceOnUse" gradientTransform="translate(36.0916 821.217) rotate(-84.6361) scale(199.284 205.962)">
<stop offset="0.477659" stop-color="#292C3E"/>
<stop offset="1" stop-color="#2D3044" stop-opacity="0"/>
</radialGradient>
<radialGradient id="paint13_radial_1003_5984" cx="0" cy="0" r="1" gradientUnits="userSpaceOnUse" gradientTransform="translate(177.568 601.342) rotate(174.18) scale(83.0784 31.5493)">
<stop stop-color="#2C2F42"/>
<stop offset="0.52458" stop-color="#2B2E40"/>
<stop offset="0.974002" stop-color="#262837"/>
</radialGradient>
<radialGradient id="paint14_radial_1003_5984" cx="0" cy="0" r="1" gradientUnits="userSpaceOnUse" gradientTransform="translate(177.568 601.342) rotate(173.891) scale(86.0123 32.6634)">
<stop stop-color="#2C2F42"/>
<stop offset="0.791667" stop-color="#313567"/>
<stop offset="1" stop-color="#2E3263"/>
</radialGradient>
<radialGradient id="paint15_radial_1003_5984" cx="0" cy="0" r="1" gradientUnits="userSpaceOnUse" gradientTransform="translate(174.406 564.457) rotate(72.7185) scale(62.8153 134.905)">
<stop offset="0.140928" stop-color="#252737"/>
<stop offset="1" stop-color="#272A3B"/>
</radialGradient>
</defs>
</svg>
