<svg width="24" height="28" viewBox="0 0 24 28" fill="none" xmlns="http://www.w3.org/2000/svg">
<path d="M1 6.13354H23" stroke="#0061FE" stroke-width="1.5" stroke-miterlimit="10" stroke-linecap="round"/>
<path d="M4.66667 1L1 6.13333V24.1C1 24.7807 1.25754 25.4336 1.71596 25.9149C2.17438 26.3962 2.79614 26.6667 3.44444 26.6667H20.5556C21.2039 26.6667 21.8256 26.3962 22.284 25.9149C22.7425 25.4336 23 24.7807 23 24.1V6.13333L19.3333 1H4.66667Z" stroke="#393951" stroke-width="1.5" stroke-miterlimit="10" stroke-linecap="round" stroke-linejoin="round"/>
<path d="M16.8889 11.2665C16.8889 12.6279 16.3738 13.9336 15.457 14.8963C14.5401 15.859 13.2966 16.3998 12 16.3998C10.7034 16.3998 9.45988 15.859 8.54304 14.8963C7.62619 13.9336 7.11111 12.6279 7.11111 11.2665" stroke="#0061FE" stroke-width="1.5" stroke-miterlimit="10" stroke-linecap="round"/>
</svg>
