<svg width="18" height="18" viewBox="0 0 18 18" fill="none" xmlns="http://www.w3.org/2000/svg">
<path fill-rule="evenodd" clip-rule="evenodd" d="M11.7473 2.83009C10.4177 2.23767 8.93223 2.09091 7.51243 2.41169C6.09263 2.73248 4.81456 3.50362 3.86884 4.61012C2.92312 5.71661 2.36041 7.09917 2.26463 8.5516C2.16886 10.004 2.54516 11.4485 3.3374 12.6696C4.12964 13.8907 5.29539 14.823 6.66077 15.3274C8.02615 15.8319 9.51802 15.8814 10.9139 15.4687C12.3097 15.056 13.5348 14.2031 14.4063 13.0373C15.2778 11.8715 15.7492 10.4552 15.75 8.99959V8.31002C15.75 7.89581 16.0858 7.56002 16.5 7.56002C16.9142 7.56002 17.25 7.89581 17.25 8.31002V9.00002C17.249 10.7791 16.6729 12.5106 15.6077 13.9355C14.5425 15.3604 13.0452 16.4027 11.3392 16.9072C9.63313 17.4116 7.80974 17.351 6.14094 16.7345C4.47214 16.1179 3.04734 14.9785 2.07904 13.486C1.11074 11.9936 0.650828 10.2281 0.767883 8.45291C0.884939 6.67772 1.5727 4.98792 2.72858 3.63553C3.88447 2.28315 5.44655 1.34064 7.18186 0.94857C8.91716 0.5565 10.7327 0.735878 12.3578 1.45995C12.7361 1.62853 12.9062 2.07192 12.7376 2.45027C12.569 2.82863 12.1256 2.99868 11.7473 2.83009Z" fill="#0061FE"/>
<path fill-rule="evenodd" clip-rule="evenodd" d="M17.0301 2.46943C17.3231 2.76217 17.3233 3.23705 17.0306 3.53009L9.5306 11.0376C9.38997 11.1784 9.19917 11.2575 9.00019 11.2575C8.80122 11.2576 8.61037 11.1785 8.46967 11.0379L6.21967 8.78785C5.92678 8.49496 5.92678 8.02008 6.21967 7.72719C6.51257 7.4343 6.98744 7.4343 7.28033 7.72719L8.99974 9.4466L15.9694 2.46996C16.2622 2.17692 16.737 2.17668 17.0301 2.46943Z" fill="#0061FE"/>
</svg>
