<svg width="300" height="340" viewBox="0 0 300 340" fill="none" xmlns="http://www.w3.org/2000/svg">
<circle opacity="0.1" cx="150" cy="172.778" r="150" fill="#0061FE"/>
<g opacity="0.1">
<ellipse cx="253.281" cy="2.27024" rx="2.27024" ry="2.27416" transform="rotate(90 253.281 2.27024)" fill="#FF1D31"/>
<ellipse cx="242.928" cy="2.27024" rx="2.27024" ry="2.27416" transform="rotate(90 242.928 2.27024)" fill="#FF1D31"/>
<ellipse cx="232.574" cy="2.27024" rx="2.27024" ry="2.27416" transform="rotate(90 232.574 2.27024)" fill="#FF1D31"/>
<ellipse cx="222.221" cy="2.27024" rx="2.27024" ry="2.27416" transform="rotate(90 222.221 2.27024)" fill="#FF1D31"/>
<ellipse cx="211.868" cy="2.27024" rx="2.27024" ry="2.27416" transform="rotate(90 211.868 2.27024)" fill="#FF1D31"/>
<ellipse cx="201.515" cy="2.27024" rx="2.27024" ry="2.27416" transform="rotate(90 201.515 2.27024)" fill="#FF1D31"/>
<ellipse cx="191.162" cy="2.27024" rx="2.27024" ry="2.27416" transform="rotate(90 191.162 2.27024)" fill="#FF1D31"/>
<ellipse cx="253.28" cy="12.6054" rx="2.27024" ry="2.27416" transform="rotate(90 253.28 12.6054)" fill="#FF1D31"/>
<ellipse cx="242.928" cy="12.6054" rx="2.27024" ry="2.27416" transform="rotate(90 242.928 12.6054)" fill="#FF1D31"/>
<ellipse cx="232.574" cy="12.6054" rx="2.27024" ry="2.27416" transform="rotate(90 232.574 12.6054)" fill="#FF1D31"/>
<ellipse cx="222.221" cy="12.6054" rx="2.27024" ry="2.27416" transform="rotate(90 222.221 12.6054)" fill="#FF1D31"/>
<ellipse cx="211.868" cy="12.6054" rx="2.27024" ry="2.27416" transform="rotate(90 211.868 12.6054)" fill="#FF1D31"/>
<ellipse cx="201.515" cy="12.6054" rx="2.27024" ry="2.27416" transform="rotate(90 201.515 12.6054)" fill="#FF1D31"/>
<ellipse cx="191.162" cy="12.6054" rx="2.27024" ry="2.27416" transform="rotate(90 191.162 12.6054)" fill="#FF1D31"/>
<ellipse cx="253.28" cy="22.9406" rx="2.27024" ry="2.27416" transform="rotate(90 253.28 22.9406)" fill="#FF1D31"/>
<ellipse cx="242.928" cy="22.9406" rx="2.27024" ry="2.27416" transform="rotate(90 242.928 22.9406)" fill="#FF1D31"/>
<ellipse cx="232.574" cy="22.9406" rx="2.27024" ry="2.27416" transform="rotate(90 232.574 22.9406)" fill="#FF1D31"/>
<ellipse cx="222.221" cy="22.9406" rx="2.27024" ry="2.27416" transform="rotate(90 222.221 22.9406)" fill="#FF1D31"/>
<ellipse cx="211.868" cy="22.9406" rx="2.27024" ry="2.27416" transform="rotate(90 211.868 22.9406)" fill="#FF1D31"/>
<ellipse cx="201.515" cy="22.9406" rx="2.27024" ry="2.27416" transform="rotate(90 201.515 22.9406)" fill="#FF1D31"/>
<ellipse cx="191.162" cy="22.9406" rx="2.27024" ry="2.27416" transform="rotate(90 191.162 22.9406)" fill="#FF1D31"/>
<ellipse cx="253.28" cy="33.2759" rx="2.27024" ry="2.27416" transform="rotate(90 253.28 33.2759)" fill="#FF1D31"/>
<ellipse cx="242.928" cy="33.2759" rx="2.27024" ry="2.27416" transform="rotate(90 242.928 33.2759)" fill="#FF1D31"/>
<ellipse cx="232.574" cy="33.2759" rx="2.27024" ry="2.27416" transform="rotate(90 232.574 33.2759)" fill="#FF1D31"/>
<ellipse cx="222.221" cy="33.2759" rx="2.27024" ry="2.27416" transform="rotate(90 222.221 33.2759)" fill="#FF1D31"/>
<ellipse cx="211.868" cy="33.2759" rx="2.27024" ry="2.27416" transform="rotate(90 211.868 33.2759)" fill="#FF1D31"/>
<ellipse cx="201.515" cy="33.2759" rx="2.27024" ry="2.27416" transform="rotate(90 201.515 33.2759)" fill="#FF1D31"/>
<ellipse cx="191.162" cy="33.2759" rx="2.27024" ry="2.27416" transform="rotate(90 191.162 33.2759)" fill="#FF1D31"/>
<ellipse cx="253.28" cy="43.6111" rx="2.27024" ry="2.27416" transform="rotate(90 253.28 43.6111)" fill="#FF1D31"/>
<ellipse cx="242.928" cy="43.6111" rx="2.27024" ry="2.27416" transform="rotate(90 242.928 43.6111)" fill="#FF1D31"/>
<ellipse cx="232.574" cy="43.6111" rx="2.27024" ry="2.27416" transform="rotate(90 232.574 43.6111)" fill="#FF1D31"/>
<ellipse cx="222.221" cy="43.6111" rx="2.27024" ry="2.27416" transform="rotate(90 222.221 43.6111)" fill="#FF1D31"/>
<ellipse cx="211.868" cy="43.6111" rx="2.27024" ry="2.27416" transform="rotate(90 211.868 43.6111)" fill="#FF1D31"/>
<ellipse cx="201.515" cy="43.6111" rx="2.27024" ry="2.27416" transform="rotate(90 201.515 43.6111)" fill="#FF1D31"/>
<ellipse cx="191.162" cy="43.6111" rx="2.27024" ry="2.27416" transform="rotate(90 191.162 43.6111)" fill="#FF1D31"/>
<ellipse cx="253.28" cy="53.9464" rx="2.27024" ry="2.27416" transform="rotate(90 253.28 53.9464)" fill="#FF1D31"/>
<ellipse cx="242.928" cy="53.9464" rx="2.27024" ry="2.27416" transform="rotate(90 242.928 53.9464)" fill="#FF1D31"/>
<ellipse cx="232.574" cy="53.9464" rx="2.27024" ry="2.27416" transform="rotate(90 232.574 53.9464)" fill="#FF1D31"/>
<ellipse cx="222.221" cy="53.9464" rx="2.27024" ry="2.27416" transform="rotate(90 222.221 53.9464)" fill="#FF1D31"/>
<ellipse cx="211.869" cy="53.9464" rx="2.27024" ry="2.27416" transform="rotate(90 211.869 53.9464)" fill="#FF1D31"/>
<ellipse cx="201.515" cy="53.9463" rx="2.27024" ry="2.27416" transform="rotate(90 201.515 53.9463)" fill="#FF1D31"/>
<ellipse cx="191.162" cy="53.9463" rx="2.27024" ry="2.27416" transform="rotate(90 191.162 53.9463)" fill="#FF1D31"/>
<ellipse cx="253.28" cy="64.2816" rx="2.27024" ry="2.27416" transform="rotate(90 253.28 64.2816)" fill="#FF1D31"/>
<ellipse cx="242.928" cy="64.2816" rx="2.27024" ry="2.27416" transform="rotate(90 242.928 64.2816)" fill="#FF1D31"/>
<ellipse cx="232.574" cy="64.2816" rx="2.27024" ry="2.27416" transform="rotate(90 232.574 64.2816)" fill="#FF1D31"/>
<ellipse cx="222.221" cy="64.2816" rx="2.27024" ry="2.27416" transform="rotate(90 222.221 64.2816)" fill="#FF1D31"/>
<ellipse cx="211.869" cy="64.2816" rx="2.27024" ry="2.27416" transform="rotate(90 211.869 64.2816)" fill="#FF1D31"/>
<ellipse cx="201.515" cy="64.2816" rx="2.27024" ry="2.27416" transform="rotate(90 201.515 64.2816)" fill="#FF1D31"/>
<ellipse cx="191.162" cy="64.2816" rx="2.27024" ry="2.27416" transform="rotate(90 191.162 64.2816)" fill="#FF1D31"/>
<ellipse cx="253.28" cy="74.6168" rx="2.27024" ry="2.27416" transform="rotate(90 253.28 74.6168)" fill="#FF1D31"/>
<ellipse cx="242.928" cy="74.6168" rx="2.27024" ry="2.27416" transform="rotate(90 242.928 74.6168)" fill="#FF1D31"/>
<ellipse cx="232.574" cy="74.6168" rx="2.27024" ry="2.27416" transform="rotate(90 232.574 74.6168)" fill="#FF1D31"/>
<ellipse cx="222.221" cy="74.6168" rx="2.27024" ry="2.27416" transform="rotate(90 222.221 74.6168)" fill="#FF1D31"/>
<ellipse cx="211.869" cy="74.6168" rx="2.27024" ry="2.27416" transform="rotate(90 211.869 74.6168)" fill="#FF1D31"/>
<ellipse cx="201.515" cy="74.6168" rx="2.27024" ry="2.27416" transform="rotate(90 201.515 74.6168)" fill="#FF1D31"/>
<ellipse cx="191.162" cy="74.6168" rx="2.27024" ry="2.27416" transform="rotate(90 191.162 74.6168)" fill="#FF1D31"/>
<ellipse cx="253.28" cy="84.952" rx="2.27024" ry="2.27416" transform="rotate(90 253.28 84.952)" fill="#FF1D31"/>
<ellipse cx="242.928" cy="84.952" rx="2.27024" ry="2.27416" transform="rotate(90 242.928 84.952)" fill="#FF1D31"/>
<ellipse cx="232.574" cy="84.952" rx="2.27024" ry="2.27416" transform="rotate(90 232.574 84.952)" fill="#FF1D31"/>
<ellipse cx="222.221" cy="84.952" rx="2.27024" ry="2.27416" transform="rotate(90 222.221 84.952)" fill="#FF1D31"/>
<ellipse cx="211.869" cy="84.952" rx="2.27024" ry="2.27416" transform="rotate(90 211.869 84.952)" fill="#FF1D31"/>
<ellipse cx="201.515" cy="84.952" rx="2.27024" ry="2.27416" transform="rotate(90 201.515 84.952)" fill="#FF1D31"/>
<ellipse cx="191.162" cy="84.952" rx="2.27024" ry="2.27416" transform="rotate(90 191.162 84.952)" fill="#FF1D31"/>
</g>
<g opacity="0.1">
<ellipse cx="84.9524" cy="337.17" rx="2.27024" ry="2.27416" transform="rotate(-180 84.9524 337.17)" fill="#FF1D31"/>
<ellipse cx="84.952" cy="326.817" rx="2.27024" ry="2.27416" transform="rotate(-180 84.952 326.817)" fill="#FF1D31"/>
<ellipse cx="84.952" cy="316.464" rx="2.27024" ry="2.27416" transform="rotate(-180 84.952 316.464)" fill="#FF1D31"/>
<ellipse cx="84.952" cy="306.111" rx="2.27024" ry="2.27416" transform="rotate(-180 84.952 306.111)" fill="#FF1D31"/>
<ellipse cx="84.952" cy="295.758" rx="2.27024" ry="2.27416" transform="rotate(-180 84.952 295.758)" fill="#FF1D31"/>
<ellipse cx="84.952" cy="285.405" rx="2.27024" ry="2.27416" transform="rotate(-180 84.952 285.405)" fill="#FF1D31"/>
<ellipse cx="84.952" cy="275.052" rx="2.27024" ry="2.27416" transform="rotate(-180 84.952 275.052)" fill="#FF1D31"/>
<ellipse cx="74.6167" cy="337.17" rx="2.27024" ry="2.27416" transform="rotate(-180 74.6167 337.17)" fill="#FF1D31"/>
<ellipse cx="74.6167" cy="326.817" rx="2.27024" ry="2.27416" transform="rotate(-180 74.6167 326.817)" fill="#FF1D31"/>
<ellipse cx="74.6167" cy="316.464" rx="2.27024" ry="2.27416" transform="rotate(-180 74.6167 316.464)" fill="#FF1D31"/>
<ellipse cx="74.6167" cy="306.111" rx="2.27024" ry="2.27416" transform="rotate(-180 74.6167 306.111)" fill="#FF1D31"/>
<ellipse cx="74.6167" cy="295.758" rx="2.27024" ry="2.27416" transform="rotate(-180 74.6167 295.758)" fill="#FF1D31"/>
<ellipse cx="74.6167" cy="285.405" rx="2.27024" ry="2.27416" transform="rotate(-180 74.6167 285.405)" fill="#FF1D31"/>
<ellipse cx="74.6167" cy="275.052" rx="2.27024" ry="2.27416" transform="rotate(-180 74.6167 275.052)" fill="#FF1D31"/>
<ellipse cx="64.2814" cy="337.17" rx="2.27024" ry="2.27416" transform="rotate(-180 64.2814 337.17)" fill="#FF1D31"/>
<ellipse cx="64.2814" cy="326.817" rx="2.27024" ry="2.27416" transform="rotate(-180 64.2814 326.817)" fill="#FF1D31"/>
<ellipse cx="64.2814" cy="316.464" rx="2.27024" ry="2.27416" transform="rotate(-180 64.2814 316.464)" fill="#FF1D31"/>
<ellipse cx="64.2814" cy="306.111" rx="2.27024" ry="2.27416" transform="rotate(-180 64.2814 306.111)" fill="#FF1D31"/>
<ellipse cx="64.2814" cy="295.758" rx="2.27024" ry="2.27416" transform="rotate(-180 64.2814 295.758)" fill="#FF1D31"/>
<ellipse cx="64.2814" cy="285.405" rx="2.27024" ry="2.27416" transform="rotate(-180 64.2814 285.405)" fill="#FF1D31"/>
<ellipse cx="64.2814" cy="275.052" rx="2.27024" ry="2.27416" transform="rotate(-180 64.2814 275.052)" fill="#FF1D31"/>
<ellipse cx="53.9461" cy="337.17" rx="2.27024" ry="2.27416" transform="rotate(-180 53.9461 337.17)" fill="#FF1D31"/>
<ellipse cx="53.9461" cy="326.817" rx="2.27024" ry="2.27416" transform="rotate(-180 53.9461 326.817)" fill="#FF1D31"/>
<ellipse cx="53.9461" cy="316.464" rx="2.27024" ry="2.27416" transform="rotate(-180 53.9461 316.464)" fill="#FF1D31"/>
<ellipse cx="53.9461" cy="306.111" rx="2.27024" ry="2.27416" transform="rotate(-180 53.9461 306.111)" fill="#FF1D31"/>
<ellipse cx="53.9461" cy="295.758" rx="2.27024" ry="2.27416" transform="rotate(-180 53.9461 295.758)" fill="#FF1D31"/>
<ellipse cx="53.9461" cy="285.405" rx="2.27024" ry="2.27416" transform="rotate(-180 53.9461 285.405)" fill="#FF1D31"/>
<ellipse cx="53.9461" cy="275.052" rx="2.27024" ry="2.27416" transform="rotate(-180 53.9461 275.052)" fill="#FF1D31"/>
<ellipse cx="43.6108" cy="337.17" rx="2.27024" ry="2.27416" transform="rotate(-180 43.6108 337.17)" fill="#FF1D31"/>
<ellipse cx="43.6108" cy="326.817" rx="2.27024" ry="2.27416" transform="rotate(-180 43.6108 326.817)" fill="#FF1D31"/>
<ellipse cx="43.6108" cy="316.464" rx="2.27024" ry="2.27416" transform="rotate(-180 43.6108 316.464)" fill="#FF1D31"/>
<ellipse cx="43.6108" cy="306.111" rx="2.27024" ry="2.27416" transform="rotate(-180 43.6108 306.111)" fill="#FF1D31"/>
<ellipse cx="43.6108" cy="295.758" rx="2.27024" ry="2.27416" transform="rotate(-180 43.6108 295.758)" fill="#FF1D31"/>
<ellipse cx="43.6108" cy="285.405" rx="2.27024" ry="2.27416" transform="rotate(-180 43.6108 285.405)" fill="#FF1D31"/>
<ellipse cx="43.6108" cy="275.052" rx="2.27024" ry="2.27416" transform="rotate(-180 43.6108 275.052)" fill="#FF1D31"/>
<ellipse cx="33.2756" cy="337.17" rx="2.27024" ry="2.27416" transform="rotate(-180 33.2756 337.17)" fill="#FF1D31"/>
<ellipse cx="33.2756" cy="326.817" rx="2.27024" ry="2.27416" transform="rotate(-180 33.2756 326.817)" fill="#FF1D31"/>
<ellipse cx="33.2756" cy="316.464" rx="2.27024" ry="2.27416" transform="rotate(-180 33.2756 316.464)" fill="#FF1D31"/>
<ellipse cx="33.2756" cy="306.111" rx="2.27024" ry="2.27416" transform="rotate(-180 33.2756 306.111)" fill="#FF1D31"/>
<ellipse cx="33.2756" cy="295.758" rx="2.27024" ry="2.27416" transform="rotate(-180 33.2756 295.758)" fill="#FF1D31"/>
<ellipse cx="33.2756" cy="285.405" rx="2.27024" ry="2.27416" transform="rotate(-180 33.2756 285.405)" fill="#FF1D31"/>
<ellipse cx="33.2756" cy="275.052" rx="2.27024" ry="2.27416" transform="rotate(-180 33.2756 275.052)" fill="#FF1D31"/>
<ellipse cx="22.9403" cy="337.17" rx="2.27024" ry="2.27416" transform="rotate(-180 22.9403 337.17)" fill="#FF1D31"/>
<ellipse cx="22.9403" cy="326.817" rx="2.27024" ry="2.27416" transform="rotate(-180 22.9403 326.817)" fill="#FF1D31"/>
<ellipse cx="22.9403" cy="316.464" rx="2.27024" ry="2.27416" transform="rotate(-180 22.9403 316.464)" fill="#FF1D31"/>
<ellipse cx="22.9403" cy="306.111" rx="2.27024" ry="2.27416" transform="rotate(-180 22.9403 306.111)" fill="#FF1D31"/>
<ellipse cx="22.9403" cy="295.758" rx="2.27024" ry="2.27416" transform="rotate(-180 22.9403 295.758)" fill="#FF1D31"/>
<ellipse cx="22.9403" cy="285.405" rx="2.27024" ry="2.27416" transform="rotate(-180 22.9403 285.405)" fill="#FF1D31"/>
<ellipse cx="22.9403" cy="275.052" rx="2.27024" ry="2.27416" transform="rotate(-180 22.9403 275.052)" fill="#FF1D31"/>
<ellipse cx="12.605" cy="337.17" rx="2.27024" ry="2.27416" transform="rotate(-180 12.605 337.17)" fill="#FF1D31"/>
<ellipse cx="12.605" cy="326.817" rx="2.27024" ry="2.27416" transform="rotate(-180 12.605 326.817)" fill="#FF1D31"/>
<ellipse cx="12.605" cy="316.464" rx="2.27024" ry="2.27416" transform="rotate(-180 12.605 316.464)" fill="#FF1D31"/>
<ellipse cx="12.605" cy="306.111" rx="2.27024" ry="2.27416" transform="rotate(-180 12.605 306.111)" fill="#FF1D31"/>
<ellipse cx="12.605" cy="295.758" rx="2.27024" ry="2.27416" transform="rotate(-180 12.605 295.758)" fill="#FF1D31"/>
<ellipse cx="12.605" cy="285.405" rx="2.27024" ry="2.27416" transform="rotate(-180 12.605 285.405)" fill="#FF1D31"/>
<ellipse cx="12.605" cy="275.052" rx="2.27024" ry="2.27416" transform="rotate(-180 12.605 275.052)" fill="#FF1D31"/>
<ellipse cx="2.27078" cy="337.17" rx="2.27024" ry="2.27416" transform="rotate(-180 2.27078 337.17)" fill="#FF1D31"/>
<ellipse cx="2.27078" cy="326.817" rx="2.27024" ry="2.27416" transform="rotate(-180 2.27078 326.817)" fill="#FF1D31"/>
<ellipse cx="2.27078" cy="316.464" rx="2.27024" ry="2.27416" transform="rotate(-180 2.27078 316.464)" fill="#FF1D31"/>
<ellipse cx="2.27078" cy="306.111" rx="2.27024" ry="2.27416" transform="rotate(-180 2.27078 306.111)" fill="#FF1D31"/>
<ellipse cx="2.27078" cy="295.758" rx="2.27024" ry="2.27416" transform="rotate(-180 2.27078 295.758)" fill="#FF1D31"/>
<ellipse cx="2.27078" cy="285.405" rx="2.27024" ry="2.27416" transform="rotate(-180 2.27078 285.405)" fill="#FF1D31"/>
<ellipse cx="2.27078" cy="275.052" rx="2.27024" ry="2.27416" transform="rotate(-180 2.27078 275.052)" fill="#FF1D31"/>
</g>
</svg>
