<svg width="540" height="611" viewBox="0 0 540 611" fill="none" xmlns="http://www.w3.org/2000/svg">
<circle opacity="0.1" cx="270" cy="311" r="270" fill="#0061FE"/>
<g opacity="0.1">
<ellipse cx="455.907" cy="4.08642" rx="4.08642" ry="4.09348" transform="rotate(90 455.907 4.08642)" fill="#FF1D31"/>
<ellipse cx="437.271" cy="4.08642" rx="4.08642" ry="4.09348" transform="rotate(90 437.271 4.08642)" fill="#FF1D31"/>
<ellipse cx="418.636" cy="4.08642" rx="4.08642" ry="4.09348" transform="rotate(90 418.636 4.08642)" fill="#FF1D31"/>
<ellipse cx="400" cy="4.08642" rx="4.08642" ry="4.09348" transform="rotate(90 400 4.08642)" fill="#FF1D31"/>
<ellipse cx="381.365" cy="4.08642" rx="4.08642" ry="4.09348" transform="rotate(90 381.365 4.08642)" fill="#FF1D31"/>
<ellipse cx="362.729" cy="4.08642" rx="4.08642" ry="4.09348" transform="rotate(90 362.729 4.08642)" fill="#FF1D31"/>
<ellipse cx="344.093" cy="4.08642" rx="4.08642" ry="4.09348" transform="rotate(90 344.093 4.08642)" fill="#FF1D31"/>
<ellipse cx="455.907" cy="22.6898" rx="4.08642" ry="4.09348" transform="rotate(90 455.907 22.6898)" fill="#FF1D31"/>
<ellipse cx="437.271" cy="22.6898" rx="4.08642" ry="4.09348" transform="rotate(90 437.271 22.6898)" fill="#FF1D31"/>
<ellipse cx="418.636" cy="22.6898" rx="4.08642" ry="4.09348" transform="rotate(90 418.636 22.6898)" fill="#FF1D31"/>
<ellipse cx="400" cy="22.6898" rx="4.08642" ry="4.09348" transform="rotate(90 400 22.6898)" fill="#FF1D31"/>
<ellipse cx="381.365" cy="22.6898" rx="4.08642" ry="4.09348" transform="rotate(90 381.365 22.6898)" fill="#FF1D31"/>
<ellipse cx="362.729" cy="22.6898" rx="4.08642" ry="4.09348" transform="rotate(90 362.729 22.6898)" fill="#FF1D31"/>
<ellipse cx="344.093" cy="22.6898" rx="4.08642" ry="4.09348" transform="rotate(90 344.093 22.6898)" fill="#FF1D31"/>
<ellipse cx="455.907" cy="41.2932" rx="4.08642" ry="4.09348" transform="rotate(90 455.907 41.2932)" fill="#FF1D31"/>
<ellipse cx="437.271" cy="41.2932" rx="4.08642" ry="4.09348" transform="rotate(90 437.271 41.2932)" fill="#FF1D31"/>
<ellipse cx="418.636" cy="41.2932" rx="4.08642" ry="4.09348" transform="rotate(90 418.636 41.2932)" fill="#FF1D31"/>
<ellipse cx="400" cy="41.2932" rx="4.08642" ry="4.09348" transform="rotate(90 400 41.2932)" fill="#FF1D31"/>
<ellipse cx="381.365" cy="41.2932" rx="4.08642" ry="4.09348" transform="rotate(90 381.365 41.2932)" fill="#FF1D31"/>
<ellipse cx="362.729" cy="41.2932" rx="4.08642" ry="4.09348" transform="rotate(90 362.729 41.2932)" fill="#FF1D31"/>
<ellipse cx="344.093" cy="41.2932" rx="4.08642" ry="4.09348" transform="rotate(90 344.093 41.2932)" fill="#FF1D31"/>
<ellipse cx="455.907" cy="59.8966" rx="4.08642" ry="4.09348" transform="rotate(90 455.907 59.8966)" fill="#FF1D31"/>
<ellipse cx="437.271" cy="59.8966" rx="4.08642" ry="4.09348" transform="rotate(90 437.271 59.8966)" fill="#FF1D31"/>
<ellipse cx="418.636" cy="59.8966" rx="4.08642" ry="4.09348" transform="rotate(90 418.636 59.8966)" fill="#FF1D31"/>
<ellipse cx="400" cy="59.8966" rx="4.08642" ry="4.09348" transform="rotate(90 400 59.8966)" fill="#FF1D31"/>
<ellipse cx="381.365" cy="59.8966" rx="4.08642" ry="4.09348" transform="rotate(90 381.365 59.8966)" fill="#FF1D31"/>
<ellipse cx="362.729" cy="59.8966" rx="4.08642" ry="4.09348" transform="rotate(90 362.729 59.8966)" fill="#FF1D31"/>
<ellipse cx="344.093" cy="59.8966" rx="4.08642" ry="4.09348" transform="rotate(90 344.093 59.8966)" fill="#FF1D31"/>
<ellipse cx="455.907" cy="78.5" rx="4.08642" ry="4.09348" transform="rotate(90 455.907 78.5)" fill="#FF1D31"/>
<ellipse cx="437.271" cy="78.5" rx="4.08642" ry="4.09348" transform="rotate(90 437.271 78.5)" fill="#FF1D31"/>
<ellipse cx="418.636" cy="78.5" rx="4.08642" ry="4.09348" transform="rotate(90 418.636 78.5)" fill="#FF1D31"/>
<ellipse cx="400" cy="78.5" rx="4.08642" ry="4.09348" transform="rotate(90 400 78.5)" fill="#FF1D31"/>
<ellipse cx="381.365" cy="78.5" rx="4.08642" ry="4.09348" transform="rotate(90 381.365 78.5)" fill="#FF1D31"/>
<ellipse cx="362.729" cy="78.5" rx="4.08642" ry="4.09348" transform="rotate(90 362.729 78.5)" fill="#FF1D31"/>
<ellipse cx="344.093" cy="78.5" rx="4.08642" ry="4.09348" transform="rotate(90 344.093 78.5)" fill="#FF1D31"/>
<ellipse cx="455.907" cy="97.1034" rx="4.08642" ry="4.09348" transform="rotate(90 455.907 97.1034)" fill="#FF1D31"/>
<ellipse cx="437.271" cy="97.1034" rx="4.08642" ry="4.09348" transform="rotate(90 437.271 97.1034)" fill="#FF1D31"/>
<ellipse cx="418.636" cy="97.1034" rx="4.08642" ry="4.09348" transform="rotate(90 418.636 97.1034)" fill="#FF1D31"/>
<ellipse cx="400" cy="97.1034" rx="4.08642" ry="4.09348" transform="rotate(90 400 97.1034)" fill="#FF1D31"/>
<ellipse cx="381.365" cy="97.1034" rx="4.08642" ry="4.09348" transform="rotate(90 381.365 97.1034)" fill="#FF1D31"/>
<ellipse cx="362.729" cy="97.1034" rx="4.08642" ry="4.09348" transform="rotate(90 362.729 97.1034)" fill="#FF1D31"/>
<ellipse cx="344.094" cy="97.1034" rx="4.08642" ry="4.09348" transform="rotate(90 344.094 97.1034)" fill="#FF1D31"/>
<ellipse cx="455.907" cy="115.707" rx="4.08642" ry="4.09348" transform="rotate(90 455.907 115.707)" fill="#FF1D31"/>
<ellipse cx="437.271" cy="115.707" rx="4.08642" ry="4.09348" transform="rotate(90 437.271 115.707)" fill="#FF1D31"/>
<ellipse cx="418.636" cy="115.707" rx="4.08642" ry="4.09348" transform="rotate(90 418.636 115.707)" fill="#FF1D31"/>
<ellipse cx="400" cy="115.707" rx="4.08642" ry="4.09348" transform="rotate(90 400 115.707)" fill="#FF1D31"/>
<ellipse cx="381.365" cy="115.707" rx="4.08642" ry="4.09348" transform="rotate(90 381.365 115.707)" fill="#FF1D31"/>
<ellipse cx="362.729" cy="115.707" rx="4.08642" ry="4.09348" transform="rotate(90 362.729 115.707)" fill="#FF1D31"/>
<ellipse cx="344.094" cy="115.707" rx="4.08642" ry="4.09348" transform="rotate(90 344.094 115.707)" fill="#FF1D31"/>
<ellipse cx="455.907" cy="134.31" rx="4.08642" ry="4.09348" transform="rotate(90 455.907 134.31)" fill="#FF1D31"/>
<ellipse cx="437.271" cy="134.31" rx="4.08642" ry="4.09348" transform="rotate(90 437.271 134.31)" fill="#FF1D31"/>
<ellipse cx="418.636" cy="134.31" rx="4.08642" ry="4.09348" transform="rotate(90 418.636 134.31)" fill="#FF1D31"/>
<ellipse cx="400" cy="134.31" rx="4.08642" ry="4.09348" transform="rotate(90 400 134.31)" fill="#FF1D31"/>
<ellipse cx="381.365" cy="134.31" rx="4.08642" ry="4.09348" transform="rotate(90 381.365 134.31)" fill="#FF1D31"/>
<ellipse cx="362.729" cy="134.31" rx="4.08642" ry="4.09348" transform="rotate(90 362.729 134.31)" fill="#FF1D31"/>
<ellipse cx="344.094" cy="134.31" rx="4.08642" ry="4.09348" transform="rotate(90 344.094 134.31)" fill="#FF1D31"/>
<ellipse cx="455.907" cy="152.914" rx="4.08642" ry="4.09348" transform="rotate(90 455.907 152.914)" fill="#FF1D31"/>
<ellipse cx="437.271" cy="152.914" rx="4.08642" ry="4.09348" transform="rotate(90 437.271 152.914)" fill="#FF1D31"/>
<ellipse cx="418.636" cy="152.914" rx="4.08642" ry="4.09348" transform="rotate(90 418.636 152.914)" fill="#FF1D31"/>
<ellipse cx="400" cy="152.914" rx="4.08642" ry="4.09348" transform="rotate(90 400 152.914)" fill="#FF1D31"/>
<ellipse cx="381.365" cy="152.914" rx="4.08642" ry="4.09348" transform="rotate(90 381.365 152.914)" fill="#FF1D31"/>
<ellipse cx="362.729" cy="152.914" rx="4.08642" ry="4.09348" transform="rotate(90 362.729 152.914)" fill="#FF1D31"/>
<ellipse cx="344.094" cy="152.914" rx="4.08642" ry="4.09348" transform="rotate(90 344.094 152.914)" fill="#FF1D31"/>
</g>
<g opacity="0.1">
<ellipse cx="152.914" cy="606.906" rx="4.08642" ry="4.09348" transform="rotate(-180 152.914 606.906)" fill="#FF1D31"/>
<ellipse cx="152.914" cy="588.271" rx="4.08642" ry="4.09348" transform="rotate(-180 152.914 588.271)" fill="#FF1D31"/>
<ellipse cx="152.914" cy="569.635" rx="4.08642" ry="4.09348" transform="rotate(-180 152.914 569.635)" fill="#FF1D31"/>
<ellipse cx="152.914" cy="551" rx="4.08642" ry="4.09348" transform="rotate(-180 152.914 551)" fill="#FF1D31"/>
<ellipse cx="152.914" cy="532.365" rx="4.08642" ry="4.09348" transform="rotate(-180 152.914 532.365)" fill="#FF1D31"/>
<ellipse cx="152.914" cy="513.729" rx="4.08642" ry="4.09348" transform="rotate(-180 152.914 513.729)" fill="#FF1D31"/>
<ellipse cx="152.914" cy="495.093" rx="4.08642" ry="4.09348" transform="rotate(-180 152.914 495.093)" fill="#FF1D31"/>
<ellipse cx="134.31" cy="606.906" rx="4.08642" ry="4.09348" transform="rotate(-180 134.31 606.906)" fill="#FF1D31"/>
<ellipse cx="134.31" cy="588.271" rx="4.08642" ry="4.09348" transform="rotate(-180 134.31 588.271)" fill="#FF1D31"/>
<ellipse cx="134.31" cy="569.635" rx="4.08642" ry="4.09348" transform="rotate(-180 134.31 569.635)" fill="#FF1D31"/>
<ellipse cx="134.31" cy="551" rx="4.08642" ry="4.09348" transform="rotate(-180 134.31 551)" fill="#FF1D31"/>
<ellipse cx="134.31" cy="532.365" rx="4.08642" ry="4.09348" transform="rotate(-180 134.31 532.365)" fill="#FF1D31"/>
<ellipse cx="134.31" cy="513.729" rx="4.08642" ry="4.09348" transform="rotate(-180 134.31 513.729)" fill="#FF1D31"/>
<ellipse cx="134.31" cy="495.093" rx="4.08642" ry="4.09348" transform="rotate(-180 134.31 495.093)" fill="#FF1D31"/>
<ellipse cx="115.707" cy="606.906" rx="4.08642" ry="4.09348" transform="rotate(-180 115.707 606.906)" fill="#FF1D31"/>
<ellipse cx="115.707" cy="588.271" rx="4.08642" ry="4.09348" transform="rotate(-180 115.707 588.271)" fill="#FF1D31"/>
<ellipse cx="115.707" cy="569.635" rx="4.08642" ry="4.09348" transform="rotate(-180 115.707 569.635)" fill="#FF1D31"/>
<ellipse cx="115.707" cy="551" rx="4.08642" ry="4.09348" transform="rotate(-180 115.707 551)" fill="#FF1D31"/>
<ellipse cx="115.707" cy="532.365" rx="4.08642" ry="4.09348" transform="rotate(-180 115.707 532.365)" fill="#FF1D31"/>
<ellipse cx="115.707" cy="513.729" rx="4.08642" ry="4.09348" transform="rotate(-180 115.707 513.729)" fill="#FF1D31"/>
<ellipse cx="115.707" cy="495.093" rx="4.08642" ry="4.09348" transform="rotate(-180 115.707 495.093)" fill="#FF1D31"/>
<ellipse cx="97.1034" cy="606.906" rx="4.08642" ry="4.09348" transform="rotate(-180 97.1034 606.906)" fill="#FF1D31"/>
<ellipse cx="97.1034" cy="588.271" rx="4.08642" ry="4.09348" transform="rotate(-180 97.1034 588.271)" fill="#FF1D31"/>
<ellipse cx="97.1034" cy="569.635" rx="4.08642" ry="4.09348" transform="rotate(-180 97.1034 569.635)" fill="#FF1D31"/>
<ellipse cx="97.1034" cy="551" rx="4.08642" ry="4.09348" transform="rotate(-180 97.1034 551)" fill="#FF1D31"/>
<ellipse cx="97.1034" cy="532.365" rx="4.08642" ry="4.09348" transform="rotate(-180 97.1034 532.365)" fill="#FF1D31"/>
<ellipse cx="97.1034" cy="513.729" rx="4.08642" ry="4.09348" transform="rotate(-180 97.1034 513.729)" fill="#FF1D31"/>
<ellipse cx="97.1034" cy="495.093" rx="4.08642" ry="4.09348" transform="rotate(-180 97.1034 495.093)" fill="#FF1D31"/>
<ellipse cx="78.5" cy="606.906" rx="4.08642" ry="4.09348" transform="rotate(-180 78.5 606.906)" fill="#FF1D31"/>
<ellipse cx="78.5" cy="588.271" rx="4.08642" ry="4.09348" transform="rotate(-180 78.5 588.271)" fill="#FF1D31"/>
<ellipse cx="78.5" cy="569.635" rx="4.08642" ry="4.09348" transform="rotate(-180 78.5 569.635)" fill="#FF1D31"/>
<ellipse cx="78.5" cy="551" rx="4.08642" ry="4.09348" transform="rotate(-180 78.5 551)" fill="#FF1D31"/>
<ellipse cx="78.5" cy="532.365" rx="4.08642" ry="4.09348" transform="rotate(-180 78.5 532.365)" fill="#FF1D31"/>
<ellipse cx="78.5" cy="513.729" rx="4.08642" ry="4.09348" transform="rotate(-180 78.5 513.729)" fill="#FF1D31"/>
<ellipse cx="78.5" cy="495.093" rx="4.08642" ry="4.09348" transform="rotate(-180 78.5 495.093)" fill="#FF1D31"/>
<ellipse cx="59.8966" cy="606.906" rx="4.08642" ry="4.09348" transform="rotate(-180 59.8966 606.906)" fill="#FF1D31"/>
<ellipse cx="59.8966" cy="588.271" rx="4.08642" ry="4.09348" transform="rotate(-180 59.8966 588.271)" fill="#FF1D31"/>
<ellipse cx="59.8966" cy="569.635" rx="4.08642" ry="4.09348" transform="rotate(-180 59.8966 569.635)" fill="#FF1D31"/>
<ellipse cx="59.8966" cy="551" rx="4.08642" ry="4.09348" transform="rotate(-180 59.8966 551)" fill="#FF1D31"/>
<ellipse cx="59.8966" cy="532.365" rx="4.08642" ry="4.09348" transform="rotate(-180 59.8966 532.365)" fill="#FF1D31"/>
<ellipse cx="59.8966" cy="513.729" rx="4.08642" ry="4.09348" transform="rotate(-180 59.8966 513.729)" fill="#FF1D31"/>
<ellipse cx="59.8966" cy="495.093" rx="4.08642" ry="4.09348" transform="rotate(-180 59.8966 495.093)" fill="#FF1D31"/>
<ellipse cx="41.2932" cy="606.906" rx="4.08642" ry="4.09348" transform="rotate(-180 41.2932 606.906)" fill="#FF1D31"/>
<ellipse cx="41.2932" cy="588.271" rx="4.08642" ry="4.09348" transform="rotate(-180 41.2932 588.271)" fill="#FF1D31"/>
<ellipse cx="41.2932" cy="569.635" rx="4.08642" ry="4.09348" transform="rotate(-180 41.2932 569.635)" fill="#FF1D31"/>
<ellipse cx="41.2932" cy="551" rx="4.08642" ry="4.09348" transform="rotate(-180 41.2932 551)" fill="#FF1D31"/>
<ellipse cx="41.2932" cy="532.365" rx="4.08642" ry="4.09348" transform="rotate(-180 41.2932 532.365)" fill="#FF1D31"/>
<ellipse cx="41.2932" cy="513.729" rx="4.08642" ry="4.09348" transform="rotate(-180 41.2932 513.729)" fill="#FF1D31"/>
<ellipse cx="41.2932" cy="495.093" rx="4.08642" ry="4.09348" transform="rotate(-180 41.2932 495.093)" fill="#FF1D31"/>
<ellipse cx="22.6898" cy="606.906" rx="4.08642" ry="4.09348" transform="rotate(-180 22.6898 606.906)" fill="#FF1D31"/>
<ellipse cx="22.6898" cy="588.271" rx="4.08642" ry="4.09348" transform="rotate(-180 22.6898 588.271)" fill="#FF1D31"/>
<ellipse cx="22.6898" cy="569.635" rx="4.08642" ry="4.09348" transform="rotate(-180 22.6898 569.635)" fill="#FF1D31"/>
<ellipse cx="22.6898" cy="551" rx="4.08642" ry="4.09348" transform="rotate(-180 22.6898 551)" fill="#FF1D31"/>
<ellipse cx="22.6898" cy="532.365" rx="4.08642" ry="4.09348" transform="rotate(-180 22.6898 532.365)" fill="#FF1D31"/>
<ellipse cx="22.6898" cy="513.729" rx="4.08642" ry="4.09348" transform="rotate(-180 22.6898 513.729)" fill="#FF1D31"/>
<ellipse cx="22.6898" cy="495.093" rx="4.08642" ry="4.09348" transform="rotate(-180 22.6898 495.093)" fill="#FF1D31"/>
<ellipse cx="4.08643" cy="606.906" rx="4.08642" ry="4.09348" transform="rotate(-180 4.08643 606.906)" fill="#FF1D31"/>
<ellipse cx="4.08643" cy="588.271" rx="4.08642" ry="4.09348" transform="rotate(-180 4.08643 588.271)" fill="#FF1D31"/>
<ellipse cx="4.08643" cy="569.635" rx="4.08642" ry="4.09348" transform="rotate(-180 4.08643 569.635)" fill="#FF1D31"/>
<ellipse cx="4.08643" cy="551" rx="4.08642" ry="4.09348" transform="rotate(-180 4.08643 551)" fill="#FF1D31"/>
<ellipse cx="4.08643" cy="532.365" rx="4.08642" ry="4.09348" transform="rotate(-180 4.08643 532.365)" fill="#FF1D31"/>
<ellipse cx="4.08643" cy="513.729" rx="4.08642" ry="4.09348" transform="rotate(-180 4.08643 513.729)" fill="#FF1D31"/>
<ellipse cx="4.08643" cy="495.093" rx="4.08642" ry="4.09348" transform="rotate(-180 4.08643 495.093)" fill="#FF1D31"/>
</g>
</svg>
