    <svg
          width="120"
          height="157"
          viewBox="0 0 120 157"
          fill="none"
          xmlns="http://www.w3.org/2000/svg"
        >
          <g opacity="0.1">
            <ellipse
              cx="115.907"
              cy="4.08642"
              rx="4.08642"
              ry="4.09348"
              transform="rotate(90 115.907 4.08642)"
              fill="#FF1D31"
            />
            <ellipse
              cx="97.271"
              cy="4.08642"
              rx="4.08642"
              ry="4.09348"
              transform="rotate(90 97.271 4.08642)"
              fill="#FF1D31"
            />
            <ellipse
              cx="78.6355"
              cy="4.08642"
              rx="4.08642"
              ry="4.09348"
              transform="rotate(90 78.6355 4.08642)"
              fill="#FF1D31"
            />
            <ellipse
              cx="60"
              cy="4.08642"
              rx="4.08642"
              ry="4.09348"
              transform="rotate(90 60 4.08642)"
              fill="#FF1D31"
            />
            <ellipse
              cx="41.3645"
              cy="4.08642"
              rx="4.08642"
              ry="4.09348"
              transform="rotate(90 41.3645 4.08642)"
              fill="#FF1D31"
            />
            <ellipse
              cx="22.729"
              cy="4.08642"
              rx="4.08642"
              ry="4.09348"
              transform="rotate(90 22.729 4.08642)"
              fill="#FF1D31"
            />
            <ellipse
              cx="4.09341"
              cy="4.08642"
              rx="4.08642"
              ry="4.09348"
              transform="rotate(90 4.09341 4.08642)"
              fill="#FF1D31"
            />
            <ellipse
              cx="115.907"
              cy="22.6898"
              rx="4.08642"
              ry="4.09348"
              transform="rotate(90 115.907 22.6898)"
              fill="#FF1D31"
            />
            <ellipse
              cx="97.2709"
              cy="22.6898"
              rx="4.08642"
              ry="4.09348"
              transform="rotate(90 97.2709 22.6898)"
              fill="#FF1D31"
            />
            <ellipse
              cx="78.6355"
              cy="22.6898"
              rx="4.08642"
              ry="4.09348"
              transform="rotate(90 78.6355 22.6898)"
              fill="#FF1D31"
            />
            <ellipse
              cx="60"
              cy="22.6898"
              rx="4.08642"
              ry="4.09348"
              transform="rotate(90 60 22.6898)"
              fill="#FF1D31"
            />
            <ellipse
              cx="41.3645"
              cy="22.6898"
              rx="4.08642"
              ry="4.09348"
              transform="rotate(90 41.3645 22.6898)"
              fill="#FF1D31"
            />
            <ellipse
              cx="22.729"
              cy="22.6898"
              rx="4.08642"
              ry="4.09348"
              transform="rotate(90 22.729 22.6898)"
              fill="#FF1D31"
            />
            <ellipse
              cx="4.09341"
              cy="22.6898"
              rx="4.08642"
              ry="4.09348"
              transform="rotate(90 4.09341 22.6898)"
              fill="#FF1D31"
            />
            <ellipse
              cx="115.907"
              cy="41.2932"
              rx="4.08642"
              ry="4.09348"
              transform="rotate(90 115.907 41.2932)"
              fill="#FF1D31"
            />
            <ellipse
              cx="97.271"
              cy="41.2932"
              rx="4.08642"
              ry="4.09348"
              transform="rotate(90 97.271 41.2932)"
              fill="#FF1D31"
            />
            <ellipse
              cx="78.6355"
              cy="41.2932"
              rx="4.08642"
              ry="4.09348"
              transform="rotate(90 78.6355 41.2932)"
              fill="#FF1D31"
            />
            <ellipse
              cx="60"
              cy="41.2932"
              rx="4.08642"
              ry="4.09348"
              transform="rotate(90 60 41.2932)"
              fill="#FF1D31"
            />
            <ellipse
              cx="41.3645"
              cy="41.2932"
              rx="4.08642"
              ry="4.09348"
              transform="rotate(90 41.3645 41.2932)"
              fill="#FF1D31"
            />
            <ellipse
              cx="22.729"
              cy="41.2932"
              rx="4.08642"
              ry="4.09348"
              transform="rotate(90 22.729 41.2932)"
              fill="#FF1D31"
            />
            <ellipse
              cx="4.09341"
              cy="41.2932"
              rx="4.08642"
              ry="4.09348"
              transform="rotate(90 4.09341 41.2932)"
              fill="#FF1D31"
            />
            <ellipse
              cx="115.907"
              cy="59.8966"
              rx="4.08642"
              ry="4.09348"
              transform="rotate(90 115.907 59.8966)"
              fill="#FF1D31"
            />
            <ellipse
              cx="97.2709"
              cy="59.8966"
              rx="4.08642"
              ry="4.09348"
              transform="rotate(90 97.2709 59.8966)"
              fill="#FF1D31"
            />
            <ellipse
              cx="78.6355"
              cy="59.8966"
              rx="4.08642"
              ry="4.09348"
              transform="rotate(90 78.6355 59.8966)"
              fill="#FF1D31"
            />
            <ellipse
              cx="60"
              cy="59.8966"
              rx="4.08642"
              ry="4.09348"
              transform="rotate(90 60 59.8966)"
              fill="#FF1D31"
            />
            <ellipse
              cx="41.3645"
              cy="59.8966"
              rx="4.08642"
              ry="4.09348"
              transform="rotate(90 41.3645 59.8966)"
              fill="#FF1D31"
            />
            <ellipse
              cx="22.729"
              cy="59.8966"
              rx="4.08642"
              ry="4.09348"
              transform="rotate(90 22.729 59.8966)"
              fill="#FF1D31"
            />
            <ellipse
              cx="4.09341"
              cy="59.8966"
              rx="4.08642"
              ry="4.09348"
              transform="rotate(90 4.09341 59.8966)"
              fill="#FF1D31"
            />
            <ellipse
              cx="115.907"
              cy="78.5"
              rx="4.08642"
              ry="4.09348"
              transform="rotate(90 115.907 78.5)"
              fill="#FF1D31"
            />
            <ellipse
              cx="97.271"
              cy="78.5"
              rx="4.08642"
              ry="4.09348"
              transform="rotate(90 97.271 78.5)"
              fill="#FF1D31"
            />
            <ellipse
              cx="78.6355"
              cy="78.5"
              rx="4.08642"
              ry="4.09348"
              transform="rotate(90 78.6355 78.5)"
              fill="#FF1D31"
            />
            <ellipse
              cx="60"
              cy="78.5"
              rx="4.08642"
              ry="4.09348"
              transform="rotate(90 60 78.5)"
              fill="#FF1D31"
            />
            <ellipse
              cx="41.3645"
              cy="78.5"
              rx="4.08642"
              ry="4.09348"
              transform="rotate(90 41.3645 78.5)"
              fill="#FF1D31"
            />
            <ellipse
              cx="22.729"
              cy="78.5"
              rx="4.08642"
              ry="4.09348"
              transform="rotate(90 22.729 78.5)"
              fill="#FF1D31"
            />
            <ellipse
              cx="4.09341"
              cy="78.5"
              rx="4.08642"
              ry="4.09348"
              transform="rotate(90 4.09341 78.5)"
              fill="#FF1D31"
            />
            <ellipse
              cx="115.907"
              cy="97.1034"
              rx="4.08642"
              ry="4.09348"
              transform="rotate(90 115.907 97.1034)"
              fill="#FF1D31"
            />
            <ellipse
              cx="97.2709"
              cy="97.1034"
              rx="4.08642"
              ry="4.09348"
              transform="rotate(90 97.2709 97.1034)"
              fill="#FF1D31"
            />
            <ellipse
              cx="78.6355"
              cy="97.1034"
              rx="4.08642"
              ry="4.09348"
              transform="rotate(90 78.6355 97.1034)"
              fill="#FF1D31"
            />
            <ellipse
              cx="60"
              cy="97.1034"
              rx="4.08642"
              ry="4.09348"
              transform="rotate(90 60 97.1034)"
              fill="#FF1D31"
            />
            <ellipse
              cx="41.3645"
              cy="97.1034"
              rx="4.08642"
              ry="4.09348"
              transform="rotate(90 41.3645 97.1034)"
              fill="#FF1D31"
            />
            <ellipse
              cx="22.729"
              cy="97.1034"
              rx="4.08642"
              ry="4.09348"
              transform="rotate(90 22.729 97.1034)"
              fill="#FF1D31"
            />
            <ellipse
              cx="4.09353"
              cy="97.1034"
              rx="4.08642"
              ry="4.09348"
              transform="rotate(90 4.09353 97.1034)"
              fill="#FF1D31"
            />
            <ellipse
              cx="115.907"
              cy="115.707"
              rx="4.08642"
              ry="4.09348"
              transform="rotate(90 115.907 115.707)"
              fill="#FF1D31"
            />
            <ellipse
              cx="97.271"
              cy="115.707"
              rx="4.08642"
              ry="4.09348"
              transform="rotate(90 97.271 115.707)"
              fill="#FF1D31"
            />
            <ellipse
              cx="78.6355"
              cy="115.707"
              rx="4.08642"
              ry="4.09348"
              transform="rotate(90 78.6355 115.707)"
              fill="#FF1D31"
            />
            <ellipse
              cx="60"
              cy="115.707"
              rx="4.08642"
              ry="4.09348"
              transform="rotate(90 60 115.707)"
              fill="#FF1D31"
            />
            <ellipse
              cx="41.3645"
              cy="115.707"
              rx="4.08642"
              ry="4.09348"
              transform="rotate(90 41.3645 115.707)"
              fill="#FF1D31"
            />
            <ellipse
              cx="22.729"
              cy="115.707"
              rx="4.08642"
              ry="4.09348"
              transform="rotate(90 22.729 115.707)"
              fill="#FF1D31"
            />
            <ellipse
              cx="4.09353"
              cy="115.707"
              rx="4.08642"
              ry="4.09348"
              transform="rotate(90 4.09353 115.707)"
              fill="#FF1D31"
            />
            <ellipse
              cx="115.907"
              cy="134.31"
              rx="4.08642"
              ry="4.09348"
              transform="rotate(90 115.907 134.31)"
              fill="#FF1D31"
            />
            <ellipse
              cx="97.271"
              cy="134.31"
              rx="4.08642"
              ry="4.09348"
              transform="rotate(90 97.271 134.31)"
              fill="#FF1D31"
            />
            <ellipse
              cx="78.6355"
              cy="134.31"
              rx="4.08642"
              ry="4.09348"
              transform="rotate(90 78.6355 134.31)"
              fill="#FF1D31"
            />
            <ellipse
              cx="60"
              cy="134.31"
              rx="4.08642"
              ry="4.09348"
              transform="rotate(90 60 134.31)"
              fill="#FF1D31"
            />
            <ellipse
              cx="41.3645"
              cy="134.31"
              rx="4.08642"
              ry="4.09348"
              transform="rotate(90 41.3645 134.31)"
              fill="#FF1D31"
            />
            <ellipse
              cx="22.729"
              cy="134.31"
              rx="4.08642"
              ry="4.09348"
              transform="rotate(90 22.729 134.31)"
              fill="#FF1D31"
            />
            <ellipse
              cx="4.09353"
              cy="134.31"
              rx="4.08642"
              ry="4.09348"
              transform="rotate(90 4.09353 134.31)"
              fill="#FF1D31"
            />
            <ellipse
              cx="115.907"
              cy="152.914"
              rx="4.08642"
              ry="4.09348"
              transform="rotate(90 115.907 152.914)"
              fill="#FF1D31"
            />
            <ellipse
              cx="97.2709"
              cy="152.914"
              rx="4.08642"
              ry="4.09348"
              transform="rotate(90 97.2709 152.914)"
              fill="#FF1D31"
            />
            <ellipse
              cx="78.6355"
              cy="152.914"
              rx="4.08642"
              ry="4.09348"
              transform="rotate(90 78.6355 152.914)"
              fill="#FF1D31"
            />
            <ellipse
              cx="60"
              cy="152.914"
              rx="4.08642"
              ry="4.09348"
              transform="rotate(90 60 152.914)"
              fill="#FF1D31"
            />
            <ellipse
              cx="41.3645"
              cy="152.914"
              rx="4.08642"
              ry="4.09348"
              transform="rotate(90 41.3645 152.914)"
              fill="#FF1D31"
            />
            <ellipse
              cx="22.729"
              cy="152.914"
              rx="4.08642"
              ry="4.09348"
              transform="rotate(90 22.729 152.914)"
              fill="#FF1D31"
            />
            <ellipse
              cx="4.09353"
              cy="152.914"
              rx="4.08642"
              ry="4.09348"
              transform="rotate(90 4.09353 152.914)"
              fill="#FF1D31"
            />
          </g>
        </svg>